G75*
%MOIN*%
%OFA0B0*%
%FSLAX25Y25*%
%IPPOS*%
%LPD*%
%AMOC8*
5,1,8,0,0,1.08239X$1,22.5*
%
%ADD10R,0.04737X0.05131*%
%ADD11OC8,0.06000*%
%ADD12C,0.07100*%
%ADD13OC8,0.07100*%
%ADD14C,0.08200*%
%ADD15C,0.06000*%
%ADD16C,0.08200*%
%ADD17C,0.00500*%
D10*
X0031800Y0043454D03*
X0031800Y0050146D03*
X0031800Y0058454D03*
X0031800Y0065146D03*
D11*
X0121800Y0076800D03*
X0156800Y0061800D03*
X0176800Y0061800D03*
X0176800Y0046800D03*
X0156800Y0046800D03*
X0121800Y0096800D03*
D12*
X0071800Y0036800D03*
D13*
X0081800Y0036800D03*
X0091800Y0036800D03*
X0101800Y0036800D03*
X0111800Y0036800D03*
X0121800Y0036800D03*
X0131800Y0036800D03*
X0141800Y0036800D03*
X0141800Y0066800D03*
X0131800Y0066800D03*
X0121800Y0066800D03*
X0111800Y0066800D03*
X0101800Y0066800D03*
X0091800Y0066800D03*
X0081800Y0066800D03*
X0071800Y0066800D03*
D14*
X0011800Y0016800D03*
X0041800Y0016800D03*
X0071800Y0026800D03*
X0101800Y0026800D03*
X0111800Y0026800D03*
X0141800Y0026800D03*
X0156800Y0026800D03*
X0166800Y0026800D03*
X0161800Y0019300D03*
X0156800Y0076800D03*
X0146800Y0076800D03*
X0151800Y0084300D03*
X0136800Y0091800D03*
X0166800Y0091800D03*
X0041800Y0086800D03*
X0011800Y0086800D03*
D15*
X0051800Y0066300D03*
X0051800Y0047300D03*
D16*
X0015500Y0046800D02*
X0008100Y0046800D01*
X0008100Y0056800D02*
X0015500Y0056800D01*
X0015500Y0066800D02*
X0008100Y0066800D01*
X0008100Y0076800D02*
X0015500Y0076800D01*
X0015500Y0036800D02*
X0008100Y0036800D01*
X0008100Y0026800D02*
X0015500Y0026800D01*
X0183100Y0026800D02*
X0190500Y0026800D01*
X0190500Y0036800D02*
X0183100Y0036800D01*
X0183100Y0046800D02*
X0190500Y0046800D01*
X0190500Y0056800D02*
X0183100Y0056800D01*
X0183100Y0066800D02*
X0190500Y0066800D01*
X0190500Y0076800D02*
X0183100Y0076800D01*
D17*
X0103515Y0086479D02*
X0103392Y0086097D01*
X0103186Y0085751D01*
X0102909Y0085460D01*
X0102574Y0085237D01*
X0102198Y0085095D01*
X0101800Y0085040D01*
X0101407Y0085091D01*
X0101035Y0085228D01*
X0100703Y0085445D01*
X0100428Y0085730D01*
X0100223Y0086069D01*
X0100098Y0086445D01*
X0100060Y0086840D01*
X0100107Y0087223D01*
X0100237Y0087587D01*
X0100446Y0087912D01*
X0100721Y0088183D01*
X0101050Y0088386D01*
X0101416Y0088510D01*
X0101800Y0088550D01*
X0102182Y0088516D01*
X0102546Y0088398D01*
X0102875Y0088202D01*
X0103152Y0087937D01*
X0103363Y0087618D01*
X0103498Y0087259D01*
X0103550Y0086880D01*
X0103515Y0086479D01*
X0103521Y0086547D02*
X0100088Y0086547D01*
X0100085Y0087045D02*
X0103527Y0087045D01*
X0103391Y0087544D02*
X0100222Y0087544D01*
X0100578Y0088042D02*
X0103042Y0088042D01*
X0101902Y0088541D02*
X0101713Y0088541D01*
X0100235Y0086048D02*
X0103363Y0086048D01*
X0102995Y0085550D02*
X0100602Y0085550D01*
X0101713Y0085051D02*
X0101881Y0085051D01*
X0073520Y0086850D02*
X0073485Y0086449D01*
X0073362Y0086067D01*
X0073156Y0085721D01*
X0072879Y0085430D01*
X0072544Y0085207D01*
X0072168Y0085065D01*
X0071770Y0085010D01*
X0071377Y0085061D01*
X0071005Y0085198D01*
X0070673Y0085415D01*
X0070398Y0085700D01*
X0070193Y0086039D01*
X0070068Y0086415D01*
X0070030Y0086810D01*
X0070077Y0087193D01*
X0070207Y0087557D01*
X0070416Y0087882D01*
X0070691Y0088153D01*
X0071020Y0088356D01*
X0071386Y0088480D01*
X0071770Y0088520D01*
X0072152Y0088486D01*
X0072516Y0088368D01*
X0072845Y0088172D01*
X0073122Y0087908D01*
X0073333Y0087588D01*
X0073468Y0087230D01*
X0073520Y0086850D01*
X0073493Y0087045D02*
X0070059Y0087045D01*
X0070055Y0086547D02*
X0073494Y0086547D01*
X0073351Y0086048D02*
X0070189Y0086048D01*
X0070543Y0085550D02*
X0072994Y0085550D01*
X0072068Y0085051D02*
X0071453Y0085051D01*
X0070203Y0087544D02*
X0073350Y0087544D01*
X0072981Y0088042D02*
X0070579Y0088042D01*
M02*
