G75*
%MOIN*%
%OFA0B0*%
%FSLAX25Y25*%
%IPPOS*%
%LPD*%
%AMOC8*
5,1,8,0,0,1.08239X$1,22.5*
%
%ADD10R,0.03937X0.04331*%
%ADD11OC8,0.05200*%
%ADD12C,0.06300*%
%ADD13OC8,0.06300*%
%ADD14C,0.07400*%
%ADD15C,0.05200*%
%ADD16C,0.07400*%
%ADD17C,0.08000*%
%ADD18C,0.01600*%
%ADD19C,0.01000*%
D10*
X0031800Y0043454D03*
X0031800Y0050146D03*
X0031800Y0058454D03*
X0031800Y0065146D03*
D11*
X0121800Y0076800D03*
X0156800Y0061800D03*
X0176800Y0061800D03*
X0176800Y0046800D03*
X0156800Y0046800D03*
X0121800Y0096800D03*
D12*
X0071800Y0036800D03*
D13*
X0081800Y0036800D03*
X0091800Y0036800D03*
X0101800Y0036800D03*
X0111800Y0036800D03*
X0121800Y0036800D03*
X0131800Y0036800D03*
X0141800Y0036800D03*
X0141800Y0066800D03*
X0131800Y0066800D03*
X0121800Y0066800D03*
X0111800Y0066800D03*
X0101800Y0066800D03*
X0091800Y0066800D03*
X0081800Y0066800D03*
X0071800Y0066800D03*
D14*
X0041800Y0086800D03*
X0011800Y0086800D03*
X0071800Y0026800D03*
X0101800Y0026800D03*
X0111800Y0026800D03*
X0141800Y0026800D03*
X0156800Y0026800D03*
X0166800Y0026800D03*
X0161800Y0019300D03*
X0156800Y0076800D03*
X0146800Y0076800D03*
X0151800Y0084300D03*
X0136800Y0091800D03*
X0166800Y0091800D03*
X0041800Y0016800D03*
X0011800Y0016800D03*
D15*
X0051800Y0047300D03*
X0051800Y0066300D03*
D16*
X0015500Y0066800D02*
X0008100Y0066800D01*
X0008100Y0056800D02*
X0015500Y0056800D01*
X0015500Y0046800D02*
X0008100Y0046800D01*
X0008100Y0036800D02*
X0015500Y0036800D01*
X0015500Y0026800D02*
X0008100Y0026800D01*
X0008100Y0076800D02*
X0015500Y0076800D01*
X0183100Y0076800D02*
X0190500Y0076800D01*
X0190500Y0066800D02*
X0183100Y0066800D01*
X0183100Y0056800D02*
X0190500Y0056800D01*
X0190500Y0046800D02*
X0183100Y0046800D01*
X0183100Y0036800D02*
X0190500Y0036800D01*
X0190500Y0026800D02*
X0183100Y0026800D01*
D17*
X0101800Y0086800D03*
X0071800Y0086800D03*
D18*
X0003400Y0024297D02*
X0003400Y0003400D01*
X0198901Y0003400D01*
X0198901Y0100161D01*
X0124379Y0100161D01*
X0125440Y0099100D01*
X0132753Y0099100D01*
X0135044Y0096809D01*
X0135746Y0097100D01*
X0137854Y0097100D01*
X0139802Y0096293D01*
X0141293Y0094802D01*
X0142100Y0092854D01*
X0142100Y0090746D01*
X0141293Y0088798D01*
X0139802Y0087307D01*
X0139303Y0087100D01*
X0147223Y0087100D01*
X0147307Y0087302D01*
X0148798Y0088793D01*
X0150746Y0089600D01*
X0152854Y0089600D01*
X0154802Y0088793D01*
X0156293Y0087302D01*
X0157100Y0085354D01*
X0157100Y0083246D01*
X0156625Y0082100D01*
X0157854Y0082100D01*
X0158556Y0081809D01*
X0163979Y0087232D01*
X0163798Y0087307D01*
X0162307Y0088798D01*
X0161500Y0090746D01*
X0161500Y0092854D01*
X0162307Y0094802D01*
X0163798Y0096293D01*
X0165746Y0097100D01*
X0167854Y0097100D01*
X0169802Y0096293D01*
X0171293Y0094802D01*
X0172100Y0092854D01*
X0172100Y0090746D01*
X0171293Y0088798D01*
X0169802Y0087307D01*
X0169100Y0087016D01*
X0169100Y0085847D01*
X0161809Y0078556D01*
X0162100Y0077854D01*
X0162100Y0075746D01*
X0161293Y0073798D01*
X0159802Y0072307D01*
X0159100Y0072016D01*
X0159100Y0065440D01*
X0161000Y0063540D01*
X0161000Y0060060D01*
X0158540Y0057600D01*
X0155060Y0057600D01*
X0152600Y0060060D01*
X0152600Y0063540D01*
X0154500Y0065440D01*
X0154500Y0072016D01*
X0153798Y0072307D01*
X0152307Y0073798D01*
X0151915Y0074744D01*
X0151897Y0074689D01*
X0151504Y0073917D01*
X0150995Y0073217D01*
X0150383Y0072605D01*
X0149683Y0072096D01*
X0148911Y0071703D01*
X0148088Y0071435D01*
X0147233Y0071300D01*
X0146800Y0071300D01*
X0146800Y0076800D01*
X0146800Y0076800D01*
X0146800Y0082300D01*
X0146892Y0082300D01*
X0146809Y0082500D01*
X0110847Y0082500D01*
X0107518Y0085829D01*
X0107457Y0085442D01*
X0107175Y0084574D01*
X0106761Y0083760D01*
X0106224Y0083022D01*
X0105578Y0082376D01*
X0104840Y0081839D01*
X0104026Y0081425D01*
X0103158Y0081143D01*
X0102256Y0081000D01*
X0102000Y0081000D01*
X0102000Y0086600D01*
X0101600Y0086600D01*
X0101600Y0081000D01*
X0101344Y0081000D01*
X0100442Y0081143D01*
X0099574Y0081425D01*
X0098760Y0081839D01*
X0098022Y0082376D01*
X0097376Y0083022D01*
X0096839Y0083760D01*
X0096425Y0084574D01*
X0096143Y0085442D01*
X0096000Y0086344D01*
X0096000Y0086600D01*
X0101600Y0086600D01*
X0101600Y0087000D01*
X0096000Y0087000D01*
X0096000Y0087256D01*
X0096143Y0088158D01*
X0096425Y0089026D01*
X0096839Y0089840D01*
X0097319Y0090500D01*
X0076020Y0090500D01*
X0076547Y0089972D01*
X0077400Y0087914D01*
X0077400Y0085686D01*
X0076547Y0083628D01*
X0074972Y0082053D01*
X0072914Y0081200D01*
X0070686Y0081200D01*
X0068628Y0082053D01*
X0067053Y0083628D01*
X0066200Y0085686D01*
X0066200Y0087914D01*
X0067053Y0089972D01*
X0067580Y0090500D01*
X0048753Y0090500D01*
X0046809Y0088556D01*
X0047100Y0087854D01*
X0047100Y0085746D01*
X0046293Y0083798D01*
X0044802Y0082307D01*
X0042854Y0081500D01*
X0040746Y0081500D01*
X0038798Y0082307D01*
X0037307Y0083798D01*
X0036500Y0085746D01*
X0036500Y0087854D01*
X0037307Y0089802D01*
X0038798Y0091293D01*
X0040746Y0092100D01*
X0042854Y0092100D01*
X0043556Y0091809D01*
X0046847Y0095100D01*
X0104753Y0095100D01*
X0106100Y0093753D01*
X0112753Y0087100D01*
X0134297Y0087100D01*
X0133798Y0087307D01*
X0132307Y0088798D01*
X0131500Y0090746D01*
X0131500Y0092854D01*
X0131791Y0093556D01*
X0130847Y0094500D01*
X0125440Y0094500D01*
X0123540Y0092600D01*
X0120060Y0092600D01*
X0117600Y0095060D01*
X0117600Y0098540D01*
X0119221Y0100161D01*
X0003400Y0100161D01*
X0003400Y0079303D01*
X0003607Y0079802D01*
X0005098Y0081293D01*
X0007046Y0082100D01*
X0009297Y0082100D01*
X0008798Y0082307D01*
X0007307Y0083798D01*
X0006500Y0085746D01*
X0006500Y0087854D01*
X0007307Y0089802D01*
X0008798Y0091293D01*
X0010746Y0092100D01*
X0012854Y0092100D01*
X0014802Y0091293D01*
X0016293Y0089802D01*
X0017100Y0087854D01*
X0017100Y0085746D01*
X0016293Y0083798D01*
X0014802Y0082307D01*
X0014303Y0082100D01*
X0016554Y0082100D01*
X0018502Y0081293D01*
X0019993Y0079802D01*
X0020800Y0077854D01*
X0020800Y0075746D01*
X0019993Y0073798D01*
X0018502Y0072307D01*
X0017278Y0071800D01*
X0018502Y0071293D01*
X0019993Y0069802D01*
X0020800Y0067854D01*
X0020800Y0065746D01*
X0019993Y0063798D01*
X0018502Y0062307D01*
X0017556Y0061915D01*
X0017611Y0061897D01*
X0018383Y0061504D01*
X0019083Y0060995D01*
X0019695Y0060383D01*
X0020204Y0059683D01*
X0020597Y0058911D01*
X0020865Y0058088D01*
X0021000Y0057233D01*
X0021000Y0057100D01*
X0012100Y0057100D01*
X0012100Y0056500D01*
X0021000Y0056500D01*
X0021000Y0056367D01*
X0020865Y0055512D01*
X0020597Y0054689D01*
X0020204Y0053917D01*
X0019695Y0053217D01*
X0019083Y0052605D01*
X0018383Y0052096D01*
X0017611Y0051703D01*
X0017556Y0051685D01*
X0018502Y0051293D01*
X0019993Y0049802D01*
X0020800Y0047854D01*
X0020800Y0045746D01*
X0019993Y0043798D01*
X0018502Y0042307D01*
X0017278Y0041800D01*
X0018502Y0041293D01*
X0019993Y0039802D01*
X0020284Y0039100D01*
X0067611Y0039100D01*
X0067773Y0039491D01*
X0069109Y0040827D01*
X0070855Y0041550D01*
X0072745Y0041550D01*
X0074491Y0040827D01*
X0075827Y0039491D01*
X0076550Y0037745D01*
X0076550Y0035855D01*
X0075827Y0034109D01*
X0074491Y0032773D01*
X0074100Y0032611D01*
X0074100Y0031584D01*
X0074802Y0031293D01*
X0076293Y0029802D01*
X0077100Y0027854D01*
X0077100Y0025746D01*
X0076293Y0023798D01*
X0074802Y0022307D01*
X0072854Y0021500D01*
X0070746Y0021500D01*
X0068798Y0022307D01*
X0067307Y0023798D01*
X0066500Y0025746D01*
X0066500Y0027854D01*
X0067307Y0029802D01*
X0068798Y0031293D01*
X0069500Y0031584D01*
X0069500Y0032611D01*
X0069109Y0032773D01*
X0067773Y0034109D01*
X0067611Y0034500D01*
X0020284Y0034500D01*
X0019993Y0033798D01*
X0018502Y0032307D01*
X0017278Y0031800D01*
X0018502Y0031293D01*
X0019993Y0029802D01*
X0020800Y0027854D01*
X0020800Y0025746D01*
X0019993Y0023798D01*
X0018502Y0022307D01*
X0016554Y0021500D01*
X0014303Y0021500D01*
X0014802Y0021293D01*
X0016293Y0019802D01*
X0017100Y0017854D01*
X0017100Y0015746D01*
X0016293Y0013798D01*
X0014802Y0012307D01*
X0012854Y0011500D01*
X0010746Y0011500D01*
X0008798Y0012307D01*
X0007307Y0013798D01*
X0006500Y0015746D01*
X0006500Y0017854D01*
X0007307Y0019802D01*
X0008798Y0021293D01*
X0009297Y0021500D01*
X0007046Y0021500D01*
X0005098Y0022307D01*
X0003607Y0023798D01*
X0003400Y0024297D01*
X0003400Y0024179D02*
X0003449Y0024179D01*
X0003400Y0022581D02*
X0004824Y0022581D01*
X0003400Y0020982D02*
X0008487Y0020982D01*
X0007134Y0019384D02*
X0003400Y0019384D01*
X0003400Y0017785D02*
X0006500Y0017785D01*
X0006500Y0016187D02*
X0003400Y0016187D01*
X0003400Y0014588D02*
X0006980Y0014588D01*
X0008115Y0012990D02*
X0003400Y0012990D01*
X0003400Y0011391D02*
X0198901Y0011391D01*
X0198901Y0009793D02*
X0003400Y0009793D01*
X0003400Y0008194D02*
X0198901Y0008194D01*
X0198901Y0006596D02*
X0003400Y0006596D01*
X0003400Y0004997D02*
X0198901Y0004997D01*
X0198901Y0012990D02*
X0045485Y0012990D01*
X0044802Y0012307D02*
X0046293Y0013798D01*
X0046584Y0014500D01*
X0159539Y0014500D01*
X0160746Y0014000D01*
X0162854Y0014000D01*
X0164802Y0014807D01*
X0166293Y0016298D01*
X0167100Y0018246D01*
X0167100Y0020354D01*
X0166625Y0021500D01*
X0167854Y0021500D01*
X0169802Y0022307D01*
X0171293Y0023798D01*
X0171584Y0024500D01*
X0178316Y0024500D01*
X0178607Y0023798D01*
X0180098Y0022307D01*
X0182046Y0021500D01*
X0191554Y0021500D01*
X0193502Y0022307D01*
X0194993Y0023798D01*
X0195800Y0025746D01*
X0195800Y0027854D01*
X0194993Y0029802D01*
X0193502Y0031293D01*
X0192278Y0031800D01*
X0193502Y0032307D01*
X0194993Y0033798D01*
X0195800Y0035746D01*
X0195800Y0037854D01*
X0194993Y0039802D01*
X0193502Y0041293D01*
X0192278Y0041800D01*
X0193502Y0042307D01*
X0194993Y0043798D01*
X0195800Y0045746D01*
X0195800Y0047854D01*
X0194993Y0049802D01*
X0193502Y0051293D01*
X0192278Y0051800D01*
X0193502Y0052307D01*
X0194993Y0053798D01*
X0195800Y0055746D01*
X0195800Y0057854D01*
X0194993Y0059802D01*
X0193502Y0061293D01*
X0192278Y0061800D01*
X0193502Y0062307D01*
X0194993Y0063798D01*
X0195800Y0065746D01*
X0195800Y0067854D01*
X0194993Y0069802D01*
X0193502Y0071293D01*
X0192556Y0071685D01*
X0192611Y0071703D01*
X0193383Y0072096D01*
X0194083Y0072605D01*
X0194695Y0073217D01*
X0195204Y0073917D01*
X0195597Y0074689D01*
X0195865Y0075512D01*
X0196000Y0076367D01*
X0196000Y0076500D01*
X0187100Y0076500D01*
X0187100Y0077100D01*
X0186500Y0077100D01*
X0186500Y0082300D01*
X0182667Y0082300D01*
X0181812Y0082165D01*
X0180989Y0081897D01*
X0180217Y0081504D01*
X0179517Y0080995D01*
X0178905Y0080383D01*
X0178396Y0079683D01*
X0178003Y0078911D01*
X0177735Y0078088D01*
X0177600Y0077233D01*
X0177600Y0077100D01*
X0186500Y0077100D01*
X0186500Y0076500D01*
X0177600Y0076500D01*
X0177600Y0076367D01*
X0177735Y0075512D01*
X0178003Y0074689D01*
X0178396Y0073917D01*
X0178905Y0073217D01*
X0179517Y0072605D01*
X0180217Y0072096D01*
X0180989Y0071703D01*
X0181044Y0071685D01*
X0180098Y0071293D01*
X0178607Y0069802D01*
X0177800Y0067854D01*
X0177800Y0066000D01*
X0175060Y0066000D01*
X0172600Y0063540D01*
X0172600Y0060060D01*
X0175060Y0057600D01*
X0177800Y0057600D01*
X0177800Y0055746D01*
X0178607Y0053798D01*
X0179076Y0053329D01*
X0176747Y0051000D01*
X0175060Y0051000D01*
X0172600Y0048540D01*
X0172600Y0045060D01*
X0175060Y0042600D01*
X0178540Y0042600D01*
X0179172Y0043232D01*
X0180098Y0042307D01*
X0181322Y0041800D01*
X0180098Y0041293D01*
X0178607Y0039802D01*
X0177800Y0037854D01*
X0177800Y0035746D01*
X0178607Y0033798D01*
X0180098Y0032307D01*
X0181322Y0031800D01*
X0180098Y0031293D01*
X0178607Y0029802D01*
X0178316Y0029100D01*
X0171584Y0029100D01*
X0171293Y0029802D01*
X0169802Y0031293D01*
X0167854Y0032100D01*
X0165746Y0032100D01*
X0163798Y0031293D01*
X0162307Y0029802D01*
X0161915Y0028856D01*
X0161897Y0028911D01*
X0161504Y0029683D01*
X0160995Y0030383D01*
X0160383Y0030995D01*
X0159683Y0031504D01*
X0158911Y0031897D01*
X0158088Y0032165D01*
X0157233Y0032300D01*
X0156800Y0032300D01*
X0156800Y0026800D01*
X0156800Y0026800D01*
X0156800Y0032300D01*
X0156367Y0032300D01*
X0155512Y0032165D01*
X0154689Y0031897D01*
X0153917Y0031504D01*
X0153217Y0030995D01*
X0152605Y0030383D01*
X0152096Y0029683D01*
X0151703Y0028911D01*
X0151435Y0028088D01*
X0151300Y0027233D01*
X0151300Y0026800D01*
X0156800Y0026800D01*
X0156800Y0021300D01*
X0156892Y0021300D01*
X0156500Y0020354D01*
X0156500Y0019100D01*
X0046584Y0019100D01*
X0046293Y0019802D01*
X0044802Y0021293D01*
X0042854Y0022100D01*
X0040746Y0022100D01*
X0038798Y0021293D01*
X0037307Y0019802D01*
X0036500Y0017854D01*
X0036500Y0015746D01*
X0037307Y0013798D01*
X0038798Y0012307D01*
X0040746Y0011500D01*
X0042854Y0011500D01*
X0044802Y0012307D01*
X0038115Y0012990D02*
X0015485Y0012990D01*
X0016620Y0014588D02*
X0036980Y0014588D01*
X0036500Y0016187D02*
X0017100Y0016187D01*
X0017100Y0017785D02*
X0036500Y0017785D01*
X0037134Y0019384D02*
X0016466Y0019384D01*
X0015113Y0020982D02*
X0038487Y0020982D01*
X0045113Y0020982D02*
X0106365Y0020982D01*
X0106500Y0020847D02*
X0107847Y0019500D01*
X0137753Y0019500D01*
X0140044Y0021791D01*
X0140746Y0021500D01*
X0142854Y0021500D01*
X0144802Y0022307D01*
X0146293Y0023798D01*
X0147100Y0025746D01*
X0147100Y0027854D01*
X0146293Y0029802D01*
X0144802Y0031293D01*
X0142975Y0032050D01*
X0143768Y0032050D01*
X0146550Y0034832D01*
X0146550Y0038768D01*
X0143768Y0041550D01*
X0139832Y0041550D01*
X0137050Y0038768D01*
X0137050Y0034832D01*
X0139832Y0032050D01*
X0140625Y0032050D01*
X0138798Y0031293D01*
X0137307Y0029802D01*
X0136500Y0027854D01*
X0136500Y0025746D01*
X0136791Y0025044D01*
X0135847Y0024100D01*
X0116418Y0024100D01*
X0116584Y0024500D01*
X0119753Y0024500D01*
X0121100Y0025847D01*
X0128568Y0033315D01*
X0129832Y0032050D01*
X0133768Y0032050D01*
X0136550Y0034832D01*
X0136550Y0038768D01*
X0133768Y0041550D01*
X0129832Y0041550D01*
X0127050Y0038768D01*
X0127050Y0038303D01*
X0126550Y0037803D01*
X0126550Y0038768D01*
X0123768Y0041550D01*
X0119832Y0041550D01*
X0117050Y0038768D01*
X0117050Y0034832D01*
X0119832Y0032050D01*
X0120797Y0032050D01*
X0117847Y0029100D01*
X0116584Y0029100D01*
X0116293Y0029802D01*
X0114802Y0031293D01*
X0113458Y0031850D01*
X0113850Y0031850D01*
X0116750Y0034750D01*
X0116750Y0036800D01*
X0116750Y0038850D01*
X0113850Y0041750D01*
X0111800Y0041750D01*
X0111800Y0036800D01*
X0111800Y0036800D01*
X0116750Y0036800D01*
X0111800Y0036800D01*
X0111800Y0036800D01*
X0111800Y0041750D01*
X0110003Y0041750D01*
X0112753Y0044500D01*
X0153160Y0044500D01*
X0155060Y0042600D01*
X0158540Y0042600D01*
X0161000Y0045060D01*
X0161000Y0048540D01*
X0158540Y0051000D01*
X0155060Y0051000D01*
X0153160Y0049100D01*
X0110847Y0049100D01*
X0103297Y0041550D01*
X0099832Y0041550D01*
X0097050Y0038768D01*
X0097050Y0034832D01*
X0099832Y0032050D01*
X0100625Y0032050D01*
X0098798Y0031293D01*
X0097307Y0029802D01*
X0096500Y0027854D01*
X0096500Y0025746D01*
X0097307Y0023798D01*
X0098798Y0022307D01*
X0100746Y0021500D01*
X0102854Y0021500D01*
X0104802Y0022307D01*
X0104921Y0022426D01*
X0106500Y0020847D01*
X0098524Y0022581D02*
X0075076Y0022581D01*
X0076451Y0024179D02*
X0097149Y0024179D01*
X0096500Y0025778D02*
X0077100Y0025778D01*
X0077100Y0027376D02*
X0096500Y0027376D01*
X0096964Y0028975D02*
X0076636Y0028975D01*
X0075522Y0030573D02*
X0098078Y0030573D01*
X0099711Y0032172D02*
X0093889Y0032172D01*
X0093768Y0032050D02*
X0096550Y0034832D01*
X0096550Y0038768D01*
X0093768Y0041550D01*
X0089832Y0041550D01*
X0087050Y0038768D01*
X0087050Y0034832D01*
X0089832Y0032050D01*
X0093768Y0032050D01*
X0095488Y0033770D02*
X0098112Y0033770D01*
X0097050Y0035369D02*
X0096550Y0035369D01*
X0096550Y0036967D02*
X0097050Y0036967D01*
X0097050Y0038566D02*
X0096550Y0038566D01*
X0095153Y0040164D02*
X0098447Y0040164D01*
X0103510Y0041763D02*
X0050015Y0041763D01*
X0049753Y0041500D02*
X0051353Y0043100D01*
X0052635Y0043100D01*
X0054179Y0043739D01*
X0055361Y0044921D01*
X0055600Y0045500D01*
X0063753Y0045500D01*
X0065100Y0046847D01*
X0080303Y0062050D01*
X0083768Y0062050D01*
X0086550Y0064832D01*
X0086550Y0068768D01*
X0083768Y0071550D01*
X0079832Y0071550D01*
X0077050Y0068768D01*
X0077050Y0065303D01*
X0061847Y0050100D01*
X0054940Y0050100D01*
X0054179Y0050861D01*
X0052635Y0051500D01*
X0050965Y0051500D01*
X0049421Y0050861D01*
X0048239Y0049679D01*
X0047600Y0048135D01*
X0047600Y0046465D01*
X0047751Y0046100D01*
X0035368Y0046100D01*
X0035368Y0046282D01*
X0034992Y0046659D01*
X0035209Y0046876D01*
X0035446Y0047286D01*
X0035568Y0047744D01*
X0035568Y0049962D01*
X0031984Y0049962D01*
X0031984Y0050331D01*
X0031616Y0050331D01*
X0031616Y0054112D01*
X0029595Y0054112D01*
X0029137Y0053989D01*
X0028726Y0053752D01*
X0028391Y0053417D01*
X0028154Y0053007D01*
X0028031Y0052549D01*
X0028031Y0050331D01*
X0031616Y0050331D01*
X0031616Y0049962D01*
X0028031Y0049962D01*
X0028031Y0047744D01*
X0028154Y0047286D01*
X0028391Y0046876D01*
X0028608Y0046659D01*
X0028231Y0046282D01*
X0028231Y0040625D01*
X0029169Y0039688D01*
X0034431Y0039688D01*
X0035368Y0040625D01*
X0035368Y0041500D01*
X0049753Y0041500D01*
X0053266Y0043361D02*
X0105109Y0043361D01*
X0106707Y0044960D02*
X0055377Y0044960D01*
X0047600Y0046558D02*
X0035092Y0046558D01*
X0035568Y0048157D02*
X0047609Y0048157D01*
X0048316Y0049755D02*
X0035568Y0049755D01*
X0035568Y0050331D02*
X0035568Y0052549D01*
X0035446Y0053007D01*
X0035209Y0053417D01*
X0034874Y0053752D01*
X0034463Y0053989D01*
X0034005Y0054112D01*
X0031984Y0054112D01*
X0031984Y0050331D01*
X0035568Y0050331D01*
X0035568Y0051354D02*
X0050612Y0051354D01*
X0052988Y0051354D02*
X0063101Y0051354D01*
X0064700Y0052952D02*
X0035460Y0052952D01*
X0034463Y0054611D02*
X0034874Y0054848D01*
X0035209Y0055183D01*
X0035446Y0055593D01*
X0035568Y0056051D01*
X0035568Y0058269D01*
X0031984Y0058269D01*
X0031984Y0054488D01*
X0034005Y0054488D01*
X0034463Y0054611D01*
X0034239Y0054551D02*
X0066298Y0054551D01*
X0067897Y0056149D02*
X0035568Y0056149D01*
X0035568Y0057748D02*
X0069495Y0057748D01*
X0071094Y0059346D02*
X0035568Y0059346D01*
X0035568Y0058638D02*
X0035568Y0060856D01*
X0035446Y0061314D01*
X0035209Y0061724D01*
X0034992Y0061941D01*
X0035368Y0062318D01*
X0035368Y0063500D01*
X0048660Y0063500D01*
X0049421Y0062739D01*
X0050965Y0062100D01*
X0052635Y0062100D01*
X0054179Y0062739D01*
X0055361Y0063921D01*
X0055600Y0064500D01*
X0067382Y0064500D01*
X0069832Y0062050D01*
X0073768Y0062050D01*
X0076550Y0064832D01*
X0076550Y0068768D01*
X0073768Y0071550D01*
X0069832Y0071550D01*
X0067382Y0069100D01*
X0054940Y0069100D01*
X0054179Y0069861D01*
X0052635Y0070500D01*
X0050965Y0070500D01*
X0049421Y0069861D01*
X0048239Y0068679D01*
X0048000Y0068100D01*
X0035243Y0068100D01*
X0034431Y0068912D01*
X0029169Y0068912D01*
X0028231Y0067975D01*
X0028231Y0062318D01*
X0028608Y0061941D01*
X0028391Y0061724D01*
X0028154Y0061314D01*
X0028031Y0060856D01*
X0028031Y0058638D01*
X0031616Y0058638D01*
X0031616Y0058269D01*
X0031984Y0058269D01*
X0031984Y0058638D01*
X0035568Y0058638D01*
X0035545Y0060945D02*
X0072692Y0060945D01*
X0074261Y0062543D02*
X0074291Y0062543D01*
X0075859Y0064142D02*
X0075889Y0064142D01*
X0076550Y0065740D02*
X0077050Y0065740D01*
X0077050Y0067339D02*
X0076550Y0067339D01*
X0076380Y0068937D02*
X0077220Y0068937D01*
X0078818Y0070536D02*
X0074782Y0070536D01*
X0068818Y0070536D02*
X0019259Y0070536D01*
X0018086Y0072134D02*
X0119500Y0072134D01*
X0119500Y0071217D02*
X0117050Y0068768D01*
X0117050Y0064832D01*
X0119832Y0062050D01*
X0123768Y0062050D01*
X0126550Y0064832D01*
X0126550Y0068768D01*
X0124100Y0071217D01*
X0124100Y0073160D01*
X0126000Y0075060D01*
X0126000Y0078540D01*
X0123540Y0081000D01*
X0120060Y0081000D01*
X0117600Y0078540D01*
X0117600Y0075060D01*
X0119500Y0073160D01*
X0119500Y0071217D01*
X0118818Y0070536D02*
X0115064Y0070536D01*
X0113850Y0071750D02*
X0111800Y0071750D01*
X0111800Y0066800D01*
X0116750Y0066800D01*
X0116750Y0068850D01*
X0113850Y0071750D01*
X0111800Y0071750D02*
X0109750Y0071750D01*
X0106850Y0068850D01*
X0106850Y0066800D01*
X0111800Y0066800D01*
X0111800Y0066800D01*
X0111800Y0066800D01*
X0116750Y0066800D01*
X0116750Y0064750D01*
X0113850Y0061850D01*
X0111800Y0061850D01*
X0111800Y0066800D01*
X0111800Y0066800D01*
X0111800Y0066800D01*
X0111800Y0071750D01*
X0111800Y0070536D02*
X0111800Y0070536D01*
X0108536Y0070536D02*
X0105064Y0070536D01*
X0103850Y0071750D02*
X0101800Y0071750D01*
X0101800Y0066800D01*
X0106750Y0066800D01*
X0106750Y0068850D01*
X0103850Y0071750D01*
X0101800Y0071750D02*
X0099750Y0071750D01*
X0096850Y0068850D01*
X0096850Y0066800D01*
X0101800Y0066800D01*
X0101800Y0066800D01*
X0101800Y0066800D01*
X0106750Y0066800D01*
X0106750Y0064750D01*
X0103850Y0061850D01*
X0101800Y0061850D01*
X0101800Y0066800D01*
X0101800Y0066800D01*
X0101800Y0066800D01*
X0101800Y0071750D01*
X0101800Y0070536D02*
X0101800Y0070536D01*
X0098536Y0070536D02*
X0094782Y0070536D01*
X0093768Y0071550D02*
X0089832Y0071550D01*
X0087050Y0068768D01*
X0087050Y0064832D01*
X0089832Y0062050D01*
X0093768Y0062050D01*
X0096550Y0064832D01*
X0096550Y0068768D01*
X0093768Y0071550D01*
X0088818Y0070536D02*
X0084782Y0070536D01*
X0086380Y0068937D02*
X0087220Y0068937D01*
X0087050Y0067339D02*
X0086550Y0067339D01*
X0086550Y0065740D02*
X0087050Y0065740D01*
X0087741Y0064142D02*
X0085859Y0064142D01*
X0084261Y0062543D02*
X0089339Y0062543D01*
X0094261Y0062543D02*
X0099056Y0062543D01*
X0099750Y0061850D02*
X0101800Y0061850D01*
X0101800Y0066800D01*
X0096850Y0066800D01*
X0096850Y0064750D01*
X0099750Y0061850D01*
X0101800Y0062543D02*
X0101800Y0062543D01*
X0101800Y0064142D02*
X0101800Y0064142D01*
X0101800Y0065740D02*
X0101800Y0065740D01*
X0101800Y0067339D02*
X0101800Y0067339D01*
X0101800Y0068937D02*
X0101800Y0068937D01*
X0096937Y0068937D02*
X0096380Y0068937D01*
X0096550Y0067339D02*
X0096850Y0067339D01*
X0096850Y0065740D02*
X0096550Y0065740D01*
X0095859Y0064142D02*
X0097458Y0064142D01*
X0104544Y0062543D02*
X0109056Y0062543D01*
X0109750Y0061850D02*
X0111800Y0061850D01*
X0111800Y0066800D01*
X0106850Y0066800D01*
X0106850Y0064750D01*
X0109750Y0061850D01*
X0111800Y0062543D02*
X0111800Y0062543D01*
X0111800Y0064142D02*
X0111800Y0064142D01*
X0111800Y0065740D02*
X0111800Y0065740D01*
X0111800Y0067339D02*
X0111800Y0067339D01*
X0111800Y0068937D02*
X0111800Y0068937D01*
X0106937Y0068937D02*
X0106663Y0068937D01*
X0106750Y0067339D02*
X0106850Y0067339D01*
X0106850Y0065740D02*
X0106750Y0065740D01*
X0106142Y0064142D02*
X0107458Y0064142D01*
X0114544Y0062543D02*
X0119339Y0062543D01*
X0117741Y0064142D02*
X0116142Y0064142D01*
X0116750Y0065740D02*
X0117050Y0065740D01*
X0117050Y0067339D02*
X0116750Y0067339D01*
X0116663Y0068937D02*
X0117220Y0068937D01*
X0124100Y0072134D02*
X0143864Y0072134D01*
X0143917Y0072096D02*
X0144689Y0071703D01*
X0145512Y0071435D01*
X0146367Y0071300D01*
X0146800Y0071300D01*
X0146800Y0076800D01*
X0146800Y0076800D01*
X0146800Y0076800D01*
X0141300Y0076800D01*
X0141300Y0077233D01*
X0141435Y0078088D01*
X0141703Y0078911D01*
X0142096Y0079683D01*
X0142605Y0080383D01*
X0143217Y0080995D01*
X0143917Y0081504D01*
X0144689Y0081897D01*
X0145512Y0082165D01*
X0146367Y0082300D01*
X0146800Y0082300D01*
X0146800Y0076800D01*
X0141300Y0076800D01*
X0141300Y0076367D01*
X0141435Y0075512D01*
X0141703Y0074689D01*
X0142096Y0073917D01*
X0142605Y0073217D01*
X0143217Y0072605D01*
X0143917Y0072096D01*
X0143850Y0071750D02*
X0141800Y0071750D01*
X0141800Y0066800D01*
X0146750Y0066800D01*
X0146750Y0068850D01*
X0143850Y0071750D01*
X0145064Y0070536D02*
X0154500Y0070536D01*
X0154214Y0072134D02*
X0149736Y0072134D01*
X0151370Y0073733D02*
X0152372Y0073733D01*
X0146800Y0073733D02*
X0146800Y0073733D01*
X0146800Y0075332D02*
X0146800Y0075332D01*
X0146800Y0076930D02*
X0146800Y0076930D01*
X0146800Y0078529D02*
X0146800Y0078529D01*
X0146800Y0080127D02*
X0146800Y0080127D01*
X0146800Y0081726D02*
X0146800Y0081726D01*
X0144352Y0081726D02*
X0104616Y0081726D01*
X0106444Y0083324D02*
X0110023Y0083324D01*
X0108425Y0084923D02*
X0107288Y0084923D01*
X0102000Y0084923D02*
X0101600Y0084923D01*
X0101600Y0083324D02*
X0102000Y0083324D01*
X0102000Y0081726D02*
X0101600Y0081726D01*
X0098984Y0081726D02*
X0074183Y0081726D01*
X0076244Y0083324D02*
X0097156Y0083324D01*
X0096312Y0084923D02*
X0077084Y0084923D01*
X0077400Y0086521D02*
X0096000Y0086521D01*
X0096137Y0088120D02*
X0077315Y0088120D01*
X0076653Y0089718D02*
X0096777Y0089718D01*
X0101600Y0086521D02*
X0102000Y0086521D01*
X0110135Y0089718D02*
X0131926Y0089718D01*
X0132985Y0088120D02*
X0111733Y0088120D01*
X0108536Y0091317D02*
X0131500Y0091317D01*
X0131525Y0092915D02*
X0123855Y0092915D01*
X0119745Y0092915D02*
X0106938Y0092915D01*
X0105339Y0094514D02*
X0118147Y0094514D01*
X0117600Y0096112D02*
X0003400Y0096112D01*
X0003400Y0094514D02*
X0046261Y0094514D01*
X0044662Y0092915D02*
X0003400Y0092915D01*
X0003400Y0091317D02*
X0008855Y0091317D01*
X0007272Y0089718D02*
X0003400Y0089718D01*
X0003400Y0088120D02*
X0006610Y0088120D01*
X0006500Y0086521D02*
X0003400Y0086521D01*
X0003400Y0084923D02*
X0006841Y0084923D01*
X0007781Y0083324D02*
X0003400Y0083324D01*
X0003400Y0081726D02*
X0006142Y0081726D01*
X0003932Y0080127D02*
X0003400Y0080127D01*
X0015819Y0083324D02*
X0037781Y0083324D01*
X0036841Y0084923D02*
X0016759Y0084923D01*
X0017100Y0086521D02*
X0036500Y0086521D01*
X0036610Y0088120D02*
X0016990Y0088120D01*
X0016328Y0089718D02*
X0037272Y0089718D01*
X0038855Y0091317D02*
X0014745Y0091317D01*
X0003400Y0097711D02*
X0117600Y0097711D01*
X0118370Y0099309D02*
X0003400Y0099309D01*
X0017458Y0081726D02*
X0040201Y0081726D01*
X0043399Y0081726D02*
X0069417Y0081726D01*
X0067356Y0083324D02*
X0045819Y0083324D01*
X0046759Y0084923D02*
X0066516Y0084923D01*
X0066200Y0086521D02*
X0047100Y0086521D01*
X0046990Y0088120D02*
X0066285Y0088120D01*
X0066947Y0089718D02*
X0047971Y0089718D01*
X0020521Y0078529D02*
X0117600Y0078529D01*
X0117600Y0076930D02*
X0020800Y0076930D01*
X0020628Y0075332D02*
X0117600Y0075332D01*
X0118927Y0073733D02*
X0019928Y0073733D01*
X0020351Y0068937D02*
X0048498Y0068937D01*
X0055452Y0064142D02*
X0067741Y0064142D01*
X0069339Y0062543D02*
X0053706Y0062543D01*
X0049894Y0062543D02*
X0035368Y0062543D01*
X0031616Y0058269D02*
X0028031Y0058269D01*
X0028031Y0056051D01*
X0028154Y0055593D01*
X0028391Y0055183D01*
X0028726Y0054848D01*
X0029137Y0054611D01*
X0029595Y0054488D01*
X0031616Y0054488D01*
X0031616Y0058269D01*
X0031616Y0057748D02*
X0031984Y0057748D01*
X0031984Y0056149D02*
X0031616Y0056149D01*
X0031616Y0054551D02*
X0031984Y0054551D01*
X0031984Y0052952D02*
X0031616Y0052952D01*
X0029361Y0054551D02*
X0020527Y0054551D01*
X0019431Y0052952D02*
X0028140Y0052952D01*
X0028031Y0051354D02*
X0018356Y0051354D01*
X0020013Y0049755D02*
X0028031Y0049755D01*
X0028031Y0048157D02*
X0020675Y0048157D01*
X0020800Y0046558D02*
X0028508Y0046558D01*
X0028231Y0044960D02*
X0020474Y0044960D01*
X0019557Y0043361D02*
X0028231Y0043361D01*
X0028231Y0041763D02*
X0017368Y0041763D01*
X0019631Y0040164D02*
X0028693Y0040164D01*
X0034907Y0040164D02*
X0068447Y0040164D01*
X0075153Y0040164D02*
X0078447Y0040164D01*
X0079832Y0041550D02*
X0077050Y0038768D01*
X0077050Y0034832D01*
X0079832Y0032050D01*
X0083768Y0032050D01*
X0086550Y0034832D01*
X0086550Y0038768D01*
X0083768Y0041550D01*
X0079832Y0041550D01*
X0085153Y0040164D02*
X0088447Y0040164D01*
X0087050Y0038566D02*
X0086550Y0038566D01*
X0086550Y0036967D02*
X0087050Y0036967D01*
X0087050Y0035369D02*
X0086550Y0035369D01*
X0085488Y0033770D02*
X0088112Y0033770D01*
X0089711Y0032172D02*
X0083889Y0032172D01*
X0079711Y0032172D02*
X0074100Y0032172D01*
X0075488Y0033770D02*
X0078112Y0033770D01*
X0077050Y0035369D02*
X0076348Y0035369D01*
X0076550Y0036967D02*
X0077050Y0036967D01*
X0077050Y0038566D02*
X0076210Y0038566D01*
X0068112Y0033770D02*
X0019966Y0033770D01*
X0018176Y0032172D02*
X0069500Y0032172D01*
X0068078Y0030573D02*
X0019222Y0030573D01*
X0020336Y0028975D02*
X0066964Y0028975D01*
X0066500Y0027376D02*
X0020800Y0027376D01*
X0020800Y0025778D02*
X0066500Y0025778D01*
X0067149Y0024179D02*
X0020151Y0024179D01*
X0018776Y0022581D02*
X0068524Y0022581D01*
X0046466Y0019384D02*
X0156500Y0019384D01*
X0156760Y0020982D02*
X0139235Y0020982D01*
X0135926Y0024179D02*
X0116451Y0024179D01*
X0121030Y0025778D02*
X0136500Y0025778D01*
X0136500Y0027376D02*
X0122629Y0027376D01*
X0124227Y0028975D02*
X0136964Y0028975D01*
X0138078Y0030573D02*
X0125826Y0030573D01*
X0127424Y0032172D02*
X0129711Y0032172D01*
X0133889Y0032172D02*
X0139711Y0032172D01*
X0138112Y0033770D02*
X0135488Y0033770D01*
X0136550Y0035369D02*
X0137050Y0035369D01*
X0137050Y0036967D02*
X0136550Y0036967D01*
X0136550Y0038566D02*
X0137050Y0038566D01*
X0138447Y0040164D02*
X0135153Y0040164D01*
X0128447Y0040164D02*
X0125153Y0040164D01*
X0126550Y0038566D02*
X0127050Y0038566D01*
X0118447Y0040164D02*
X0115436Y0040164D01*
X0116750Y0038566D02*
X0117050Y0038566D01*
X0117050Y0036967D02*
X0116750Y0036967D01*
X0116750Y0035369D02*
X0117050Y0035369D01*
X0118112Y0033770D02*
X0115771Y0033770D01*
X0114172Y0032172D02*
X0119711Y0032172D01*
X0119321Y0030573D02*
X0115522Y0030573D01*
X0110142Y0031850D02*
X0108798Y0031293D01*
X0107307Y0029802D01*
X0106800Y0028578D01*
X0106293Y0029802D01*
X0104802Y0031293D01*
X0102975Y0032050D01*
X0103768Y0032050D01*
X0106550Y0034832D01*
X0106550Y0038297D01*
X0106850Y0038597D01*
X0106850Y0036800D01*
X0111800Y0036800D01*
X0111800Y0036800D01*
X0106850Y0036800D01*
X0106850Y0034750D01*
X0109750Y0031850D01*
X0110142Y0031850D01*
X0109428Y0032172D02*
X0103889Y0032172D01*
X0105488Y0033770D02*
X0107829Y0033770D01*
X0106850Y0035369D02*
X0106550Y0035369D01*
X0106550Y0036967D02*
X0106850Y0036967D01*
X0106818Y0038566D02*
X0106850Y0038566D01*
X0111800Y0038566D02*
X0111800Y0038566D01*
X0111800Y0040164D02*
X0111800Y0040164D01*
X0110015Y0041763D02*
X0181232Y0041763D01*
X0178969Y0040164D02*
X0145153Y0040164D01*
X0146550Y0038566D02*
X0178095Y0038566D01*
X0177800Y0036967D02*
X0146550Y0036967D01*
X0146550Y0035369D02*
X0177956Y0035369D01*
X0178634Y0033770D02*
X0145488Y0033770D01*
X0143889Y0032172D02*
X0155557Y0032172D01*
X0156800Y0032172D02*
X0156800Y0032172D01*
X0158043Y0032172D02*
X0180424Y0032172D01*
X0179378Y0030573D02*
X0170522Y0030573D01*
X0163078Y0030573D02*
X0160805Y0030573D01*
X0161865Y0028975D02*
X0161964Y0028975D01*
X0156800Y0028975D02*
X0156800Y0028975D01*
X0156800Y0027376D02*
X0156800Y0027376D01*
X0156800Y0026800D02*
X0156800Y0026800D01*
X0156800Y0026800D01*
X0156800Y0021300D01*
X0156367Y0021300D01*
X0155512Y0021435D01*
X0154689Y0021703D01*
X0153917Y0022096D01*
X0153217Y0022605D01*
X0152605Y0023217D01*
X0152096Y0023917D01*
X0151703Y0024689D01*
X0151435Y0025512D01*
X0151300Y0026367D01*
X0151300Y0026800D01*
X0156800Y0026800D01*
X0156800Y0025778D02*
X0156800Y0025778D01*
X0156800Y0024179D02*
X0156800Y0024179D01*
X0156800Y0022581D02*
X0156800Y0022581D01*
X0153250Y0022581D02*
X0145076Y0022581D01*
X0146451Y0024179D02*
X0151963Y0024179D01*
X0151393Y0025778D02*
X0147100Y0025778D01*
X0147100Y0027376D02*
X0151323Y0027376D01*
X0151735Y0028975D02*
X0146636Y0028975D01*
X0145522Y0030573D02*
X0152795Y0030573D01*
X0156800Y0030573D02*
X0156800Y0030573D01*
X0171451Y0024179D02*
X0178449Y0024179D01*
X0179824Y0022581D02*
X0170076Y0022581D01*
X0166840Y0020982D02*
X0198901Y0020982D01*
X0198901Y0022581D02*
X0193776Y0022581D01*
X0195151Y0024179D02*
X0198901Y0024179D01*
X0198901Y0025778D02*
X0195800Y0025778D01*
X0195800Y0027376D02*
X0198901Y0027376D01*
X0198901Y0028975D02*
X0195336Y0028975D01*
X0194222Y0030573D02*
X0198901Y0030573D01*
X0198901Y0032172D02*
X0193176Y0032172D01*
X0194966Y0033770D02*
X0198901Y0033770D01*
X0198901Y0035369D02*
X0195644Y0035369D01*
X0195800Y0036967D02*
X0198901Y0036967D01*
X0198901Y0038566D02*
X0195505Y0038566D01*
X0194631Y0040164D02*
X0198901Y0040164D01*
X0198901Y0041763D02*
X0192368Y0041763D01*
X0194557Y0043361D02*
X0198901Y0043361D01*
X0198901Y0044960D02*
X0195474Y0044960D01*
X0195800Y0046558D02*
X0198901Y0046558D01*
X0198901Y0048157D02*
X0195675Y0048157D01*
X0195013Y0049755D02*
X0198901Y0049755D01*
X0198901Y0051354D02*
X0193356Y0051354D01*
X0194148Y0052952D02*
X0198901Y0052952D01*
X0198901Y0054551D02*
X0195305Y0054551D01*
X0195800Y0056149D02*
X0198901Y0056149D01*
X0198901Y0057748D02*
X0195800Y0057748D01*
X0195182Y0059346D02*
X0198901Y0059346D01*
X0198901Y0060945D02*
X0193850Y0060945D01*
X0193739Y0062543D02*
X0198901Y0062543D01*
X0198901Y0064142D02*
X0195136Y0064142D01*
X0195798Y0065740D02*
X0198901Y0065740D01*
X0198901Y0067339D02*
X0195800Y0067339D01*
X0195351Y0068937D02*
X0198901Y0068937D01*
X0198901Y0070536D02*
X0194259Y0070536D01*
X0193436Y0072134D02*
X0198901Y0072134D01*
X0198901Y0073733D02*
X0195070Y0073733D01*
X0195806Y0075332D02*
X0198901Y0075332D01*
X0198901Y0076930D02*
X0187100Y0076930D01*
X0187100Y0077100D02*
X0196000Y0077100D01*
X0196000Y0077233D01*
X0195865Y0078088D01*
X0195597Y0078911D01*
X0195204Y0079683D01*
X0194695Y0080383D01*
X0194083Y0080995D01*
X0193383Y0081504D01*
X0192611Y0081897D01*
X0191788Y0082165D01*
X0190933Y0082300D01*
X0187100Y0082300D01*
X0187100Y0077100D01*
X0186500Y0076930D02*
X0162100Y0076930D01*
X0161821Y0078529D02*
X0177879Y0078529D01*
X0178719Y0080127D02*
X0163380Y0080127D01*
X0164978Y0081726D02*
X0180652Y0081726D01*
X0186500Y0081726D02*
X0187100Y0081726D01*
X0187100Y0080127D02*
X0186500Y0080127D01*
X0186500Y0078529D02*
X0187100Y0078529D01*
X0192948Y0081726D02*
X0198901Y0081726D01*
X0198901Y0080127D02*
X0194881Y0080127D01*
X0195721Y0078529D02*
X0198901Y0078529D01*
X0198901Y0083324D02*
X0166577Y0083324D01*
X0168175Y0084923D02*
X0198901Y0084923D01*
X0198901Y0086521D02*
X0169100Y0086521D01*
X0170615Y0088120D02*
X0198901Y0088120D01*
X0198901Y0089718D02*
X0171674Y0089718D01*
X0172100Y0091317D02*
X0198901Y0091317D01*
X0198901Y0092915D02*
X0172075Y0092915D01*
X0171413Y0094514D02*
X0198901Y0094514D01*
X0198901Y0096112D02*
X0169983Y0096112D01*
X0163617Y0096112D02*
X0139983Y0096112D01*
X0141413Y0094514D02*
X0162187Y0094514D01*
X0161525Y0092915D02*
X0142075Y0092915D01*
X0142100Y0091317D02*
X0161500Y0091317D01*
X0161926Y0089718D02*
X0141674Y0089718D01*
X0140615Y0088120D02*
X0148124Y0088120D01*
X0155476Y0088120D02*
X0162985Y0088120D01*
X0163268Y0086521D02*
X0156617Y0086521D01*
X0157100Y0084923D02*
X0161670Y0084923D01*
X0160071Y0083324D02*
X0157100Y0083324D01*
X0142419Y0080127D02*
X0124413Y0080127D01*
X0126000Y0078529D02*
X0141579Y0078529D01*
X0141300Y0076930D02*
X0126000Y0076930D01*
X0126000Y0075332D02*
X0141494Y0075332D01*
X0142230Y0073733D02*
X0124673Y0073733D01*
X0127050Y0068768D02*
X0129832Y0071550D01*
X0133768Y0071550D01*
X0136550Y0068768D01*
X0136550Y0064832D01*
X0133768Y0062050D01*
X0129832Y0062050D01*
X0127050Y0064832D01*
X0127050Y0068768D01*
X0127220Y0068937D02*
X0126380Y0068937D01*
X0126550Y0067339D02*
X0127050Y0067339D01*
X0127050Y0065740D02*
X0126550Y0065740D01*
X0125859Y0064142D02*
X0127741Y0064142D01*
X0129339Y0062543D02*
X0124261Y0062543D01*
X0134261Y0062543D02*
X0139056Y0062543D01*
X0139750Y0061850D02*
X0141800Y0061850D01*
X0143850Y0061850D01*
X0146750Y0064750D01*
X0146750Y0066800D01*
X0141800Y0066800D01*
X0141800Y0066800D01*
X0141800Y0066800D01*
X0141800Y0061850D01*
X0141800Y0066800D01*
X0141800Y0066800D01*
X0141800Y0066800D01*
X0136850Y0066800D01*
X0136850Y0068850D01*
X0139750Y0071750D01*
X0141800Y0071750D01*
X0141800Y0066800D01*
X0136850Y0066800D01*
X0136850Y0064750D01*
X0139750Y0061850D01*
X0141800Y0062543D02*
X0141800Y0062543D01*
X0141800Y0064142D02*
X0141800Y0064142D01*
X0144544Y0062543D02*
X0152600Y0062543D01*
X0153202Y0064142D02*
X0146142Y0064142D01*
X0146750Y0065740D02*
X0154500Y0065740D01*
X0154500Y0067339D02*
X0146750Y0067339D01*
X0146663Y0068937D02*
X0154500Y0068937D01*
X0159100Y0068937D02*
X0178249Y0068937D01*
X0177800Y0067339D02*
X0159100Y0067339D01*
X0159100Y0065740D02*
X0174801Y0065740D01*
X0173202Y0064142D02*
X0160398Y0064142D01*
X0161000Y0062543D02*
X0172600Y0062543D01*
X0172600Y0060945D02*
X0161000Y0060945D01*
X0160286Y0059346D02*
X0173314Y0059346D01*
X0174912Y0057748D02*
X0158688Y0057748D01*
X0154912Y0057748D02*
X0076001Y0057748D01*
X0074402Y0056149D02*
X0177800Y0056149D01*
X0178295Y0054551D02*
X0072804Y0054551D01*
X0071205Y0052952D02*
X0178700Y0052952D01*
X0177101Y0051354D02*
X0069607Y0051354D01*
X0068008Y0049755D02*
X0153816Y0049755D01*
X0159784Y0049755D02*
X0173816Y0049755D01*
X0172600Y0048157D02*
X0161000Y0048157D01*
X0161000Y0046558D02*
X0172600Y0046558D01*
X0172700Y0044960D02*
X0160899Y0044960D01*
X0159301Y0043361D02*
X0174299Y0043361D01*
X0154299Y0043361D02*
X0111614Y0043361D01*
X0108306Y0046558D02*
X0064811Y0046558D01*
X0066409Y0048157D02*
X0109904Y0048157D01*
X0111800Y0036967D02*
X0111800Y0036967D01*
X0108078Y0030573D02*
X0105522Y0030573D01*
X0106636Y0028975D02*
X0106964Y0028975D01*
X0164274Y0014588D02*
X0198901Y0014588D01*
X0198901Y0016187D02*
X0166182Y0016187D01*
X0166909Y0017785D02*
X0198901Y0017785D01*
X0198901Y0019384D02*
X0167100Y0019384D01*
X0153314Y0059346D02*
X0077599Y0059346D01*
X0079198Y0060945D02*
X0152600Y0060945D01*
X0141800Y0065740D02*
X0141800Y0065740D01*
X0141800Y0067339D02*
X0141800Y0067339D01*
X0141800Y0068937D02*
X0141800Y0068937D01*
X0141800Y0070536D02*
X0141800Y0070536D01*
X0138536Y0070536D02*
X0134782Y0070536D01*
X0136380Y0068937D02*
X0136937Y0068937D01*
X0136850Y0067339D02*
X0136550Y0067339D01*
X0136550Y0065740D02*
X0136850Y0065740D01*
X0137458Y0064142D02*
X0135859Y0064142D01*
X0128818Y0070536D02*
X0124782Y0070536D01*
X0119187Y0080127D02*
X0019668Y0080127D01*
X0020800Y0067339D02*
X0028231Y0067339D01*
X0028231Y0065740D02*
X0020798Y0065740D01*
X0020136Y0064142D02*
X0028231Y0064142D01*
X0028231Y0062543D02*
X0018739Y0062543D01*
X0019133Y0060945D02*
X0028055Y0060945D01*
X0028031Y0059346D02*
X0020375Y0059346D01*
X0020918Y0057748D02*
X0028031Y0057748D01*
X0028031Y0056149D02*
X0020965Y0056149D01*
X0031616Y0051354D02*
X0031984Y0051354D01*
X0125230Y0099309D02*
X0198901Y0099309D01*
X0198901Y0097711D02*
X0134142Y0097711D01*
X0161928Y0075332D02*
X0177794Y0075332D01*
X0178530Y0073733D02*
X0161228Y0073733D01*
X0159386Y0072134D02*
X0180164Y0072134D01*
X0179341Y0070536D02*
X0159100Y0070536D01*
X0146800Y0072134D02*
X0146800Y0072134D01*
D19*
X0156800Y0076800D02*
X0166800Y0086800D01*
X0166800Y0091800D01*
X0151800Y0084800D02*
X0151800Y0084300D01*
X0151800Y0084800D02*
X0111800Y0084800D01*
X0103800Y0092800D01*
X0047800Y0092800D01*
X0041800Y0086800D01*
X0011800Y0086800D02*
X0011800Y0076800D01*
X0031800Y0065800D02*
X0031800Y0065146D01*
X0031800Y0065800D02*
X0051800Y0065800D01*
X0051800Y0066300D01*
X0051800Y0066800D01*
X0071800Y0066800D01*
X0081800Y0066800D02*
X0062800Y0047800D01*
X0051800Y0047800D01*
X0051800Y0047300D01*
X0051800Y0046800D01*
X0048800Y0043800D01*
X0031800Y0043800D01*
X0031800Y0043454D01*
X0011800Y0036800D02*
X0071800Y0036800D01*
X0071800Y0026800D01*
X0101800Y0026800D02*
X0103800Y0026800D01*
X0108800Y0021800D01*
X0136800Y0021800D01*
X0141800Y0026800D01*
X0159800Y0016800D02*
X0161800Y0018800D01*
X0161800Y0019300D01*
X0159800Y0016800D02*
X0041800Y0016800D01*
X0011800Y0016800D02*
X0011800Y0026800D01*
X0101800Y0036800D02*
X0111800Y0046800D01*
X0156800Y0046800D01*
X0176800Y0046800D02*
X0176800Y0047800D01*
X0185800Y0056800D01*
X0186800Y0056800D01*
X0181800Y0061800D02*
X0176800Y0061800D01*
X0181800Y0061800D02*
X0186800Y0066800D01*
X0156800Y0061800D02*
X0156800Y0076800D01*
X0136800Y0091800D02*
X0131800Y0096800D01*
X0121800Y0096800D01*
X0121800Y0076800D02*
X0121800Y0066800D01*
X0128800Y0036800D02*
X0118800Y0026800D01*
X0111800Y0026800D01*
X0128800Y0036800D02*
X0131800Y0036800D01*
X0166800Y0026800D02*
X0186800Y0026800D01*
M02*
