%
M48
M72
T01C0.03200
T02C0.03543
T03C0.04000
T04C0.04400
%
T01
X71800Y36800
X81800Y36800
X91800Y36800
X101800Y36800
X111800Y36800
X121800Y36800
X131800Y36800
X141800Y36800
X156800Y26800
X166800Y26800
X161800Y19300
X156800Y46800
X176800Y46800
X176800Y61800
X156800Y61800
X141800Y66800
X131800Y66800
X121800Y66800
X111800Y66800
X101800Y66800
X91800Y66800
X81800Y66800
X71800Y66800
X51800Y66300
X51800Y47300
X121800Y76800
X146800Y76800
X156800Y76800
X151800Y84300
X121800Y96800
T02
X11800Y16800
X41800Y16800
X71800Y26800
X101800Y26800
X111800Y26800
X141800Y26800
X41800Y86800
X11800Y86800
X136800Y91800
X166800Y91800
T03
X101800Y86800
X71800Y86800
T04
X11800Y76800
X11800Y66800
X11800Y56800
X11800Y46800
X11800Y36800
X11800Y26800
X186800Y26800
X186800Y36800
X186800Y46800
X186800Y56800
X186800Y66800
X186800Y76800
M30
