G75*
%MOIN*%
%OFA0B0*%
%FSLAX25Y25*%
%IPPOS*%
%LPD*%
%AMOC8*
5,1,8,0,0,1.08239X$1,22.5*
%
%ADD10R,0.04146X0.04343*%
%ADD11C,0.07300*%
%ADD12R,0.04343X0.04146*%
%ADD13R,0.07099X0.06312*%
%ADD14R,0.06312X0.07099*%
%ADD15R,0.04737X0.18910*%
%ADD16R,0.07099X0.14186*%
%ADD17R,0.05131X0.04737*%
%ADD18C,0.08200*%
%ADD19R,0.03950X0.03950*%
%ADD20R,0.03950X0.04343*%
%ADD21C,0.08200*%
%ADD22R,0.04343X0.03556*%
%ADD23R,0.04737X0.05131*%
%ADD24R,0.03556X0.04343*%
%ADD25R,0.01666X0.04737*%
%ADD26R,0.04737X0.01666*%
%ADD27R,0.05131X0.02375*%
%ADD28C,0.06400*%
%ADD29R,0.08200X0.08200*%
%ADD30C,0.13398*%
%ADD31R,0.05956X0.05956*%
%ADD32C,0.05956*%
%ADD33R,0.02200X0.06400*%
%ADD34OC8,0.08200*%
%ADD35R,0.07898X0.07099*%
%ADD36C,0.05162*%
%ADD37OC8,0.05162*%
%ADD38R,0.05162X0.05162*%
D10*
X0186636Y0076800D03*
X0191203Y0076800D03*
X0196636Y0081800D03*
X0201203Y0081800D03*
D11*
X0118920Y0041800D03*
X0118920Y0031800D03*
X0098920Y0051800D03*
X0088920Y0051800D03*
X0073920Y0051800D03*
X0063920Y0051800D03*
D12*
X0153920Y0044083D03*
X0153920Y0039517D03*
X0153920Y0119517D03*
X0153920Y0124083D03*
D13*
X0233920Y0161288D03*
X0233920Y0172312D03*
X0273920Y0176288D03*
X0273920Y0187312D03*
D14*
X0119431Y0096800D03*
X0108408Y0096800D03*
D15*
X0294983Y0172233D03*
X0302857Y0172233D03*
D16*
X0312306Y0192706D03*
X0285534Y0192706D03*
D17*
X0267266Y0156800D03*
X0260573Y0156800D03*
X0202266Y0096800D03*
X0195573Y0096800D03*
X0197266Y0066800D03*
X0190573Y0066800D03*
D18*
X0128920Y0118100D02*
X0128920Y0125500D01*
X0118920Y0125500D02*
X0118920Y0118100D01*
X0108920Y0118100D02*
X0108920Y0125500D01*
X0098920Y0125500D02*
X0098920Y0118100D01*
X0165220Y0141800D02*
X0172620Y0141800D01*
X0172620Y0151800D02*
X0165220Y0151800D01*
X0165220Y0161800D02*
X0172620Y0161800D01*
X0172620Y0171800D02*
X0165220Y0171800D01*
X0165220Y0181800D02*
X0172620Y0181800D01*
X0172620Y0191800D02*
X0165220Y0191800D01*
X0128920Y0190500D02*
X0128920Y0183100D01*
X0118920Y0183100D02*
X0118920Y0190500D01*
X0108920Y0190500D02*
X0108920Y0183100D01*
X0098920Y0183100D02*
X0098920Y0190500D01*
X0340220Y0191800D02*
X0347620Y0191800D01*
X0347620Y0181800D02*
X0340220Y0181800D01*
X0340220Y0171800D02*
X0347620Y0171800D01*
X0347620Y0161800D02*
X0340220Y0161800D01*
X0340220Y0151800D02*
X0347620Y0151800D01*
X0347620Y0141800D02*
X0340220Y0141800D01*
D19*
X0273920Y0158847D03*
X0273920Y0164753D03*
X0191872Y0091800D03*
X0185967Y0091800D03*
D20*
X0127660Y0147863D03*
X0120180Y0147863D03*
X0107660Y0147863D03*
X0100180Y0147863D03*
X0103920Y0156131D03*
X0123920Y0156131D03*
D21*
X0078920Y0154300D03*
X0068920Y0149300D03*
X0078920Y0144300D03*
X0068920Y0159300D03*
X0078920Y0164300D03*
X0068920Y0169300D03*
X0078920Y0174300D03*
X0193920Y0141800D03*
X0193920Y0131800D03*
X0193920Y0121800D03*
X0118920Y0081800D03*
X0108920Y0081800D03*
X0098920Y0081800D03*
X0078920Y0084300D03*
X0068920Y0089300D03*
X0078920Y0094300D03*
X0068920Y0099300D03*
X0078920Y0104300D03*
X0068920Y0079300D03*
X0078920Y0074300D03*
X0098920Y0061800D03*
X0108920Y0061800D03*
X0118920Y0061800D03*
X0198920Y0161800D03*
X0198920Y0171800D03*
X0198920Y0181800D03*
X0378920Y0184300D03*
X0388920Y0179300D03*
X0378920Y0174300D03*
X0388920Y0169300D03*
X0378920Y0164300D03*
X0388920Y0159300D03*
X0378920Y0154300D03*
D22*
X0173920Y0114359D03*
X0173920Y0109241D03*
X0143920Y0049359D03*
X0133920Y0049359D03*
X0133920Y0044241D03*
X0143920Y0044241D03*
X0148920Y0034359D03*
X0148920Y0029241D03*
X0158920Y0029241D03*
X0158920Y0034359D03*
X0168920Y0034359D03*
X0168920Y0029241D03*
X0178920Y0029241D03*
X0178920Y0034359D03*
D23*
X0123920Y0163454D03*
X0123920Y0170146D03*
X0103920Y0170146D03*
X0103920Y0163454D03*
D24*
X0106479Y0141800D03*
X0101361Y0141800D03*
X0121361Y0136800D03*
X0126479Y0136800D03*
D25*
X0139156Y0104438D03*
X0141124Y0104438D03*
X0143093Y0104438D03*
X0145061Y0104438D03*
X0147030Y0104438D03*
X0148998Y0104438D03*
X0150967Y0104438D03*
X0152935Y0104438D03*
X0154904Y0104438D03*
X0156872Y0104438D03*
X0158841Y0104438D03*
X0160809Y0104438D03*
X0162778Y0104438D03*
X0164746Y0104438D03*
X0166715Y0104438D03*
X0168683Y0104438D03*
X0168683Y0059162D03*
X0166715Y0059162D03*
X0164746Y0059162D03*
X0162778Y0059162D03*
X0160809Y0059162D03*
X0158841Y0059162D03*
X0156872Y0059162D03*
X0154904Y0059162D03*
X0152935Y0059162D03*
X0150967Y0059162D03*
X0148998Y0059162D03*
X0147030Y0059162D03*
X0145061Y0059162D03*
X0143093Y0059162D03*
X0141124Y0059162D03*
X0139156Y0059162D03*
D26*
X0131282Y0067036D03*
X0131282Y0069005D03*
X0131282Y0070973D03*
X0131282Y0072942D03*
X0131282Y0074910D03*
X0131282Y0076879D03*
X0131282Y0078847D03*
X0131282Y0080816D03*
X0131282Y0082784D03*
X0131282Y0084753D03*
X0131282Y0086721D03*
X0131282Y0088690D03*
X0131282Y0090658D03*
X0131282Y0092627D03*
X0131282Y0094595D03*
X0131282Y0096564D03*
X0176557Y0096564D03*
X0176557Y0094595D03*
X0176557Y0092627D03*
X0176557Y0090658D03*
X0176557Y0088690D03*
X0176557Y0086721D03*
X0176557Y0084753D03*
X0176557Y0082784D03*
X0176557Y0080816D03*
X0176557Y0078847D03*
X0176557Y0076879D03*
X0176557Y0074910D03*
X0176557Y0072942D03*
X0176557Y0070973D03*
X0176557Y0069005D03*
X0176557Y0067036D03*
D27*
X0245061Y0162961D03*
X0245061Y0165520D03*
X0245061Y0168080D03*
X0245061Y0170639D03*
X0262778Y0170639D03*
X0262778Y0168080D03*
X0262778Y0165520D03*
X0262778Y0162961D03*
X0262778Y0182961D03*
X0262778Y0185520D03*
X0262778Y0188080D03*
X0262778Y0190639D03*
X0245061Y0190639D03*
X0245061Y0188080D03*
X0245061Y0185520D03*
X0245061Y0182961D03*
D28*
X0038920Y0014600D02*
X0038920Y0009000D01*
X0048920Y0009000D02*
X0048920Y0014600D01*
X0058920Y0014600D02*
X0058920Y0009000D01*
X0068920Y0009000D02*
X0068920Y0014600D01*
X0078920Y0014600D02*
X0078920Y0009000D01*
X0088920Y0009000D02*
X0088920Y0014600D01*
X0098920Y0014600D02*
X0098920Y0009000D01*
X0108920Y0009000D02*
X0108920Y0014600D01*
X0108920Y0039000D02*
X0108920Y0044600D01*
X0098920Y0044600D02*
X0098920Y0039000D01*
X0088920Y0039000D02*
X0088920Y0044600D01*
X0078920Y0044600D02*
X0078920Y0039000D01*
X0068920Y0039000D02*
X0068920Y0044600D01*
X0058920Y0044600D02*
X0058920Y0039000D01*
X0048920Y0039000D02*
X0048920Y0044600D01*
X0038920Y0044600D02*
X0038920Y0039000D01*
D29*
X0068920Y0109300D03*
X0193920Y0111800D03*
X0068920Y0179300D03*
X0388920Y0149300D03*
D30*
X0413920Y0144300D03*
X0413920Y0189300D03*
X0043920Y0184300D03*
X0043920Y0139300D03*
X0043920Y0114300D03*
X0043920Y0069300D03*
D31*
X0193920Y0043611D03*
D32*
X0193920Y0037706D03*
X0193920Y0031800D03*
X0193920Y0025894D03*
X0193920Y0019989D03*
D33*
X0142720Y0010400D03*
X0140220Y0010400D03*
X0137620Y0010400D03*
X0135120Y0010400D03*
X0135120Y0033200D03*
X0137620Y0033200D03*
X0140220Y0033200D03*
X0142720Y0033200D03*
D34*
X0213920Y0046800D03*
X0223920Y0046800D03*
X0223920Y0056800D03*
X0213920Y0056800D03*
X0213920Y0066800D03*
X0223920Y0066800D03*
X0223920Y0076800D03*
X0213920Y0076800D03*
X0213920Y0086800D03*
X0223920Y0086800D03*
D35*
X0178920Y0017398D03*
X0178920Y0006202D03*
X0158920Y0006202D03*
X0158920Y0017398D03*
D36*
X0163920Y0026800D03*
X0173920Y0026800D03*
X0163920Y0041800D03*
X0158920Y0046800D03*
X0188920Y0051800D03*
X0188920Y0056800D03*
X0183920Y0061800D03*
X0183920Y0066800D03*
X0169920Y0066800D03*
X0163920Y0066800D03*
X0158920Y0071800D03*
X0163920Y0076800D03*
X0143920Y0081800D03*
X0158920Y0086800D03*
X0153920Y0096800D03*
X0143329Y0096800D03*
X0238920Y0151800D03*
X0128920Y0006800D03*
D37*
X0158920Y0131800D03*
D38*
X0168920Y0121800D03*
M02*
