%
M48
M72
T01C0.01500
T02C0.02000
T03C0.02362
T04C0.02756
T05C0.03200
T06C0.03937
T07C0.04000
T08C0.04400
T09C0.12598
%
T01
X177420Y118050
T02
X185920Y81800
X143295Y64300
X140170Y53050
X140170Y40550
X145170Y39300
X158920Y24800
X122920Y11800
X55920Y22800
X42920Y33800
T03
X128920Y6800
X163920Y26800
X173920Y26800
X163920Y41800
X158920Y46800
X188920Y51800
X188920Y56800
X183920Y61800
X183920Y66800
X169920Y66800
X163920Y66800
X158920Y71800
X163920Y76800
X143920Y81800
X158920Y86800
X153920Y96800
X143329Y96800
X168920Y121800
X158920Y131800
X238920Y151800
T04
X98920Y51800
X88920Y51800
X73920Y51800
X63920Y51800
X118920Y41800
X118920Y31800
X193920Y31800
X193920Y25894
X193920Y19989
X193920Y37706
X193920Y43611
T05
X38920Y11800
X48920Y11800
X58920Y11800
X68920Y11800
X78920Y11800
X88920Y11800
X98920Y11800
X108920Y11800
X108920Y41800
X98920Y41800
X88920Y41800
X78920Y41800
X68920Y41800
X58920Y41800
X48920Y41800
X38920Y41800
T06
X78920Y74300
X68920Y79300
X78920Y84300
X68920Y89300
X78920Y94300
X68920Y99300
X78920Y104300
X68920Y109300
X78920Y144300
X68920Y149300
X78920Y154300
X68920Y159300
X78920Y164300
X68920Y169300
X78920Y174300
X68920Y179300
X378920Y174300
X388920Y179300
X378920Y184300
X388920Y169300
X378920Y164300
X388920Y159300
X378920Y154300
X388920Y149300
T07
X223920Y86800
X213920Y86800
X213920Y76800
X223920Y76800
X223920Y66800
X213920Y66800
X213920Y56800
X223920Y56800
X223920Y46800
X213920Y46800
X118920Y61800
X108920Y61800
X98920Y61800
X98920Y81800
X108920Y81800
X118920Y81800
X193920Y111800
X193920Y121800
X193920Y131800
X193920Y141800
X198920Y161800
X198920Y171800
X198920Y181800
T08
X168920Y181800
X168920Y191800
X128920Y186800
X118920Y186800
X108920Y186800
X98920Y186800
X168920Y171800
X168920Y161800
X168920Y151800
X168920Y141800
X128920Y121800
X118920Y121800
X108920Y121800
X98920Y121800
X343920Y141800
X343920Y151800
X343920Y161800
X343920Y171800
X343920Y181800
X343920Y191800
T09
X413920Y189300
X413920Y144300
X43920Y139300
X43920Y114300
X43920Y69300
X43920Y184300
M30
