G75*
%MOIN*%
%OFA0B0*%
%FSLAX25Y25*%
%IPPOS*%
%LPD*%
%AMOC8*
5,1,8,0,0,1.08239X$1,22.5*
%
%ADD10C,0.07300*%
%ADD11C,0.08200*%
%ADD12C,0.08200*%
%ADD13C,0.06400*%
%ADD14R,0.08200X0.08200*%
%ADD15C,0.13398*%
%ADD16R,0.05956X0.05956*%
%ADD17C,0.05956*%
%ADD18OC8,0.08200*%
%ADD19C,0.05162*%
%ADD20OC8,0.05162*%
%ADD21R,0.05162X0.05162*%
D10*
X0063920Y0051800D03*
X0073920Y0051800D03*
X0088920Y0051800D03*
X0098920Y0051800D03*
X0118920Y0041800D03*
X0118920Y0031800D03*
D11*
X0118920Y0118100D02*
X0118920Y0125500D01*
X0108920Y0125500D02*
X0108920Y0118100D01*
X0098920Y0118100D02*
X0098920Y0125500D01*
X0128920Y0125500D02*
X0128920Y0118100D01*
X0165220Y0141800D02*
X0172620Y0141800D01*
X0172620Y0151800D02*
X0165220Y0151800D01*
X0165220Y0161800D02*
X0172620Y0161800D01*
X0172620Y0171800D02*
X0165220Y0171800D01*
X0165220Y0181800D02*
X0172620Y0181800D01*
X0172620Y0191800D02*
X0165220Y0191800D01*
X0128920Y0190500D02*
X0128920Y0183100D01*
X0118920Y0183100D02*
X0118920Y0190500D01*
X0108920Y0190500D02*
X0108920Y0183100D01*
X0098920Y0183100D02*
X0098920Y0190500D01*
X0340220Y0191800D02*
X0347620Y0191800D01*
X0347620Y0181800D02*
X0340220Y0181800D01*
X0340220Y0171800D02*
X0347620Y0171800D01*
X0347620Y0161800D02*
X0340220Y0161800D01*
X0340220Y0151800D02*
X0347620Y0151800D01*
X0347620Y0141800D02*
X0340220Y0141800D01*
D12*
X0378920Y0154300D03*
X0388920Y0159300D03*
X0378920Y0164300D03*
X0388920Y0169300D03*
X0378920Y0174300D03*
X0388920Y0179300D03*
X0378920Y0184300D03*
X0198920Y0181800D03*
X0198920Y0171800D03*
X0198920Y0161800D03*
X0193920Y0141800D03*
X0193920Y0131800D03*
X0193920Y0121800D03*
X0118920Y0081800D03*
X0108920Y0081800D03*
X0098920Y0081800D03*
X0078920Y0084300D03*
X0068920Y0089300D03*
X0078920Y0094300D03*
X0068920Y0099300D03*
X0078920Y0104300D03*
X0068920Y0079300D03*
X0078920Y0074300D03*
X0098920Y0061800D03*
X0108920Y0061800D03*
X0118920Y0061800D03*
X0078920Y0144300D03*
X0068920Y0149300D03*
X0078920Y0154300D03*
X0068920Y0159300D03*
X0078920Y0164300D03*
X0068920Y0169300D03*
X0078920Y0174300D03*
D13*
X0038920Y0014600D02*
X0038920Y0009000D01*
X0048920Y0009000D02*
X0048920Y0014600D01*
X0058920Y0014600D02*
X0058920Y0009000D01*
X0068920Y0009000D02*
X0068920Y0014600D01*
X0078920Y0014600D02*
X0078920Y0009000D01*
X0088920Y0009000D02*
X0088920Y0014600D01*
X0098920Y0014600D02*
X0098920Y0009000D01*
X0108920Y0009000D02*
X0108920Y0014600D01*
X0108920Y0039000D02*
X0108920Y0044600D01*
X0098920Y0044600D02*
X0098920Y0039000D01*
X0088920Y0039000D02*
X0088920Y0044600D01*
X0078920Y0044600D02*
X0078920Y0039000D01*
X0068920Y0039000D02*
X0068920Y0044600D01*
X0058920Y0044600D02*
X0058920Y0039000D01*
X0048920Y0039000D02*
X0048920Y0044600D01*
X0038920Y0044600D02*
X0038920Y0039000D01*
D14*
X0068920Y0109300D03*
X0193920Y0111800D03*
X0068920Y0179300D03*
X0388920Y0149300D03*
D15*
X0413920Y0144300D03*
X0413920Y0189300D03*
X0043920Y0184300D03*
X0043920Y0139300D03*
X0043920Y0114300D03*
X0043920Y0069300D03*
D16*
X0193920Y0043611D03*
D17*
X0193920Y0037706D03*
X0193920Y0031800D03*
X0193920Y0025894D03*
X0193920Y0019989D03*
D18*
X0213920Y0046800D03*
X0223920Y0046800D03*
X0223920Y0056800D03*
X0213920Y0056800D03*
X0213920Y0066800D03*
X0223920Y0066800D03*
X0223920Y0076800D03*
X0213920Y0076800D03*
X0213920Y0086800D03*
X0223920Y0086800D03*
D19*
X0183920Y0066800D03*
X0183920Y0061800D03*
X0188920Y0056800D03*
X0188920Y0051800D03*
X0163920Y0041800D03*
X0158920Y0046800D03*
X0163920Y0026800D03*
X0173920Y0026800D03*
X0128920Y0006800D03*
X0163920Y0066800D03*
X0169920Y0066800D03*
X0158920Y0071800D03*
X0163920Y0076800D03*
X0143920Y0081800D03*
X0158920Y0086800D03*
X0153920Y0096800D03*
X0143329Y0096800D03*
X0238920Y0151800D03*
D20*
X0158920Y0131800D03*
D21*
X0168920Y0121800D03*
M02*
