G75*
%MOIN*%
%OFA0B0*%
%FSLAX25Y25*%
%IPPOS*%
%LPD*%
%AMOC8*
5,1,8,0,0,1.08239X$1,22.5*
%
%ADD10C,0.00000*%
%ADD11C,0.01600*%
%ADD12C,0.00100*%
%ADD13C,0.00800*%
%ADD14C,0.00500*%
%ADD15R,0.03000X0.01800*%
%ADD16R,0.01600X0.02800*%
%ADD17R,0.01800X0.03000*%
%ADD18C,0.00060*%
%ADD19C,0.00600*%
%ADD20C,0.01000*%
%ADD21C,0.01200*%
%ADD22C,0.00300*%
%ADD23R,0.02800X0.01600*%
D10*
X0028920Y0001800D02*
X0028920Y0201761D01*
X0427620Y0201761D01*
X0427620Y0001800D01*
X0028920Y0001800D01*
X0132820Y0020600D02*
X0132889Y0020602D01*
X0132957Y0020608D01*
X0133025Y0020618D01*
X0133092Y0020631D01*
X0133158Y0020649D01*
X0133223Y0020670D01*
X0133287Y0020695D01*
X0133349Y0020723D01*
X0133410Y0020755D01*
X0133469Y0020790D01*
X0133525Y0020829D01*
X0133580Y0020871D01*
X0133631Y0020916D01*
X0133681Y0020964D01*
X0133727Y0021014D01*
X0133770Y0021067D01*
X0133811Y0021123D01*
X0133848Y0021180D01*
X0133881Y0021240D01*
X0133912Y0021302D01*
X0133938Y0021365D01*
X0133961Y0021429D01*
X0133981Y0021495D01*
X0133996Y0021562D01*
X0134008Y0021629D01*
X0134016Y0021697D01*
X0134020Y0021766D01*
X0134020Y0021834D01*
X0134016Y0021903D01*
X0134008Y0021971D01*
X0133996Y0022038D01*
X0133981Y0022105D01*
X0133961Y0022171D01*
X0133938Y0022235D01*
X0133912Y0022298D01*
X0133881Y0022360D01*
X0133848Y0022420D01*
X0133811Y0022477D01*
X0133770Y0022533D01*
X0133727Y0022586D01*
X0133681Y0022636D01*
X0133631Y0022684D01*
X0133580Y0022729D01*
X0133525Y0022771D01*
X0133469Y0022810D01*
X0133410Y0022845D01*
X0133349Y0022877D01*
X0133287Y0022905D01*
X0133223Y0022930D01*
X0133158Y0022951D01*
X0133092Y0022969D01*
X0133025Y0022982D01*
X0132957Y0022992D01*
X0132889Y0022998D01*
X0132820Y0023000D01*
X0037621Y0069300D02*
X0037623Y0069458D01*
X0037629Y0069616D01*
X0037639Y0069774D01*
X0037653Y0069932D01*
X0037671Y0070089D01*
X0037692Y0070246D01*
X0037718Y0070402D01*
X0037748Y0070558D01*
X0037781Y0070713D01*
X0037819Y0070866D01*
X0037860Y0071019D01*
X0037905Y0071171D01*
X0037954Y0071322D01*
X0038007Y0071471D01*
X0038063Y0071619D01*
X0038123Y0071765D01*
X0038187Y0071910D01*
X0038255Y0072053D01*
X0038326Y0072195D01*
X0038400Y0072335D01*
X0038478Y0072472D01*
X0038560Y0072608D01*
X0038644Y0072742D01*
X0038733Y0072873D01*
X0038824Y0073002D01*
X0038919Y0073129D01*
X0039016Y0073254D01*
X0039117Y0073376D01*
X0039221Y0073495D01*
X0039328Y0073612D01*
X0039438Y0073726D01*
X0039551Y0073837D01*
X0039666Y0073946D01*
X0039784Y0074051D01*
X0039905Y0074153D01*
X0040028Y0074253D01*
X0040154Y0074349D01*
X0040282Y0074442D01*
X0040412Y0074532D01*
X0040545Y0074618D01*
X0040680Y0074702D01*
X0040816Y0074781D01*
X0040955Y0074858D01*
X0041096Y0074930D01*
X0041238Y0075000D01*
X0041382Y0075065D01*
X0041528Y0075127D01*
X0041675Y0075185D01*
X0041824Y0075240D01*
X0041974Y0075291D01*
X0042125Y0075338D01*
X0042277Y0075381D01*
X0042430Y0075420D01*
X0042585Y0075456D01*
X0042740Y0075487D01*
X0042896Y0075515D01*
X0043052Y0075539D01*
X0043209Y0075559D01*
X0043367Y0075575D01*
X0043524Y0075587D01*
X0043683Y0075595D01*
X0043841Y0075599D01*
X0043999Y0075599D01*
X0044157Y0075595D01*
X0044316Y0075587D01*
X0044473Y0075575D01*
X0044631Y0075559D01*
X0044788Y0075539D01*
X0044944Y0075515D01*
X0045100Y0075487D01*
X0045255Y0075456D01*
X0045410Y0075420D01*
X0045563Y0075381D01*
X0045715Y0075338D01*
X0045866Y0075291D01*
X0046016Y0075240D01*
X0046165Y0075185D01*
X0046312Y0075127D01*
X0046458Y0075065D01*
X0046602Y0075000D01*
X0046744Y0074930D01*
X0046885Y0074858D01*
X0047024Y0074781D01*
X0047160Y0074702D01*
X0047295Y0074618D01*
X0047428Y0074532D01*
X0047558Y0074442D01*
X0047686Y0074349D01*
X0047812Y0074253D01*
X0047935Y0074153D01*
X0048056Y0074051D01*
X0048174Y0073946D01*
X0048289Y0073837D01*
X0048402Y0073726D01*
X0048512Y0073612D01*
X0048619Y0073495D01*
X0048723Y0073376D01*
X0048824Y0073254D01*
X0048921Y0073129D01*
X0049016Y0073002D01*
X0049107Y0072873D01*
X0049196Y0072742D01*
X0049280Y0072608D01*
X0049362Y0072472D01*
X0049440Y0072335D01*
X0049514Y0072195D01*
X0049585Y0072053D01*
X0049653Y0071910D01*
X0049717Y0071765D01*
X0049777Y0071619D01*
X0049833Y0071471D01*
X0049886Y0071322D01*
X0049935Y0071171D01*
X0049980Y0071019D01*
X0050021Y0070866D01*
X0050059Y0070713D01*
X0050092Y0070558D01*
X0050122Y0070402D01*
X0050148Y0070246D01*
X0050169Y0070089D01*
X0050187Y0069932D01*
X0050201Y0069774D01*
X0050211Y0069616D01*
X0050217Y0069458D01*
X0050219Y0069300D01*
X0050217Y0069142D01*
X0050211Y0068984D01*
X0050201Y0068826D01*
X0050187Y0068668D01*
X0050169Y0068511D01*
X0050148Y0068354D01*
X0050122Y0068198D01*
X0050092Y0068042D01*
X0050059Y0067887D01*
X0050021Y0067734D01*
X0049980Y0067581D01*
X0049935Y0067429D01*
X0049886Y0067278D01*
X0049833Y0067129D01*
X0049777Y0066981D01*
X0049717Y0066835D01*
X0049653Y0066690D01*
X0049585Y0066547D01*
X0049514Y0066405D01*
X0049440Y0066265D01*
X0049362Y0066128D01*
X0049280Y0065992D01*
X0049196Y0065858D01*
X0049107Y0065727D01*
X0049016Y0065598D01*
X0048921Y0065471D01*
X0048824Y0065346D01*
X0048723Y0065224D01*
X0048619Y0065105D01*
X0048512Y0064988D01*
X0048402Y0064874D01*
X0048289Y0064763D01*
X0048174Y0064654D01*
X0048056Y0064549D01*
X0047935Y0064447D01*
X0047812Y0064347D01*
X0047686Y0064251D01*
X0047558Y0064158D01*
X0047428Y0064068D01*
X0047295Y0063982D01*
X0047160Y0063898D01*
X0047024Y0063819D01*
X0046885Y0063742D01*
X0046744Y0063670D01*
X0046602Y0063600D01*
X0046458Y0063535D01*
X0046312Y0063473D01*
X0046165Y0063415D01*
X0046016Y0063360D01*
X0045866Y0063309D01*
X0045715Y0063262D01*
X0045563Y0063219D01*
X0045410Y0063180D01*
X0045255Y0063144D01*
X0045100Y0063113D01*
X0044944Y0063085D01*
X0044788Y0063061D01*
X0044631Y0063041D01*
X0044473Y0063025D01*
X0044316Y0063013D01*
X0044157Y0063005D01*
X0043999Y0063001D01*
X0043841Y0063001D01*
X0043683Y0063005D01*
X0043524Y0063013D01*
X0043367Y0063025D01*
X0043209Y0063041D01*
X0043052Y0063061D01*
X0042896Y0063085D01*
X0042740Y0063113D01*
X0042585Y0063144D01*
X0042430Y0063180D01*
X0042277Y0063219D01*
X0042125Y0063262D01*
X0041974Y0063309D01*
X0041824Y0063360D01*
X0041675Y0063415D01*
X0041528Y0063473D01*
X0041382Y0063535D01*
X0041238Y0063600D01*
X0041096Y0063670D01*
X0040955Y0063742D01*
X0040816Y0063819D01*
X0040680Y0063898D01*
X0040545Y0063982D01*
X0040412Y0064068D01*
X0040282Y0064158D01*
X0040154Y0064251D01*
X0040028Y0064347D01*
X0039905Y0064447D01*
X0039784Y0064549D01*
X0039666Y0064654D01*
X0039551Y0064763D01*
X0039438Y0064874D01*
X0039328Y0064988D01*
X0039221Y0065105D01*
X0039117Y0065224D01*
X0039016Y0065346D01*
X0038919Y0065471D01*
X0038824Y0065598D01*
X0038733Y0065727D01*
X0038644Y0065858D01*
X0038560Y0065992D01*
X0038478Y0066128D01*
X0038400Y0066265D01*
X0038326Y0066405D01*
X0038255Y0066547D01*
X0038187Y0066690D01*
X0038123Y0066835D01*
X0038063Y0066981D01*
X0038007Y0067129D01*
X0037954Y0067278D01*
X0037905Y0067429D01*
X0037860Y0067581D01*
X0037819Y0067734D01*
X0037781Y0067887D01*
X0037748Y0068042D01*
X0037718Y0068198D01*
X0037692Y0068354D01*
X0037671Y0068511D01*
X0037653Y0068668D01*
X0037639Y0068826D01*
X0037629Y0068984D01*
X0037623Y0069142D01*
X0037621Y0069300D01*
X0037621Y0114300D02*
X0037623Y0114458D01*
X0037629Y0114616D01*
X0037639Y0114774D01*
X0037653Y0114932D01*
X0037671Y0115089D01*
X0037692Y0115246D01*
X0037718Y0115402D01*
X0037748Y0115558D01*
X0037781Y0115713D01*
X0037819Y0115866D01*
X0037860Y0116019D01*
X0037905Y0116171D01*
X0037954Y0116322D01*
X0038007Y0116471D01*
X0038063Y0116619D01*
X0038123Y0116765D01*
X0038187Y0116910D01*
X0038255Y0117053D01*
X0038326Y0117195D01*
X0038400Y0117335D01*
X0038478Y0117472D01*
X0038560Y0117608D01*
X0038644Y0117742D01*
X0038733Y0117873D01*
X0038824Y0118002D01*
X0038919Y0118129D01*
X0039016Y0118254D01*
X0039117Y0118376D01*
X0039221Y0118495D01*
X0039328Y0118612D01*
X0039438Y0118726D01*
X0039551Y0118837D01*
X0039666Y0118946D01*
X0039784Y0119051D01*
X0039905Y0119153D01*
X0040028Y0119253D01*
X0040154Y0119349D01*
X0040282Y0119442D01*
X0040412Y0119532D01*
X0040545Y0119618D01*
X0040680Y0119702D01*
X0040816Y0119781D01*
X0040955Y0119858D01*
X0041096Y0119930D01*
X0041238Y0120000D01*
X0041382Y0120065D01*
X0041528Y0120127D01*
X0041675Y0120185D01*
X0041824Y0120240D01*
X0041974Y0120291D01*
X0042125Y0120338D01*
X0042277Y0120381D01*
X0042430Y0120420D01*
X0042585Y0120456D01*
X0042740Y0120487D01*
X0042896Y0120515D01*
X0043052Y0120539D01*
X0043209Y0120559D01*
X0043367Y0120575D01*
X0043524Y0120587D01*
X0043683Y0120595D01*
X0043841Y0120599D01*
X0043999Y0120599D01*
X0044157Y0120595D01*
X0044316Y0120587D01*
X0044473Y0120575D01*
X0044631Y0120559D01*
X0044788Y0120539D01*
X0044944Y0120515D01*
X0045100Y0120487D01*
X0045255Y0120456D01*
X0045410Y0120420D01*
X0045563Y0120381D01*
X0045715Y0120338D01*
X0045866Y0120291D01*
X0046016Y0120240D01*
X0046165Y0120185D01*
X0046312Y0120127D01*
X0046458Y0120065D01*
X0046602Y0120000D01*
X0046744Y0119930D01*
X0046885Y0119858D01*
X0047024Y0119781D01*
X0047160Y0119702D01*
X0047295Y0119618D01*
X0047428Y0119532D01*
X0047558Y0119442D01*
X0047686Y0119349D01*
X0047812Y0119253D01*
X0047935Y0119153D01*
X0048056Y0119051D01*
X0048174Y0118946D01*
X0048289Y0118837D01*
X0048402Y0118726D01*
X0048512Y0118612D01*
X0048619Y0118495D01*
X0048723Y0118376D01*
X0048824Y0118254D01*
X0048921Y0118129D01*
X0049016Y0118002D01*
X0049107Y0117873D01*
X0049196Y0117742D01*
X0049280Y0117608D01*
X0049362Y0117472D01*
X0049440Y0117335D01*
X0049514Y0117195D01*
X0049585Y0117053D01*
X0049653Y0116910D01*
X0049717Y0116765D01*
X0049777Y0116619D01*
X0049833Y0116471D01*
X0049886Y0116322D01*
X0049935Y0116171D01*
X0049980Y0116019D01*
X0050021Y0115866D01*
X0050059Y0115713D01*
X0050092Y0115558D01*
X0050122Y0115402D01*
X0050148Y0115246D01*
X0050169Y0115089D01*
X0050187Y0114932D01*
X0050201Y0114774D01*
X0050211Y0114616D01*
X0050217Y0114458D01*
X0050219Y0114300D01*
X0050217Y0114142D01*
X0050211Y0113984D01*
X0050201Y0113826D01*
X0050187Y0113668D01*
X0050169Y0113511D01*
X0050148Y0113354D01*
X0050122Y0113198D01*
X0050092Y0113042D01*
X0050059Y0112887D01*
X0050021Y0112734D01*
X0049980Y0112581D01*
X0049935Y0112429D01*
X0049886Y0112278D01*
X0049833Y0112129D01*
X0049777Y0111981D01*
X0049717Y0111835D01*
X0049653Y0111690D01*
X0049585Y0111547D01*
X0049514Y0111405D01*
X0049440Y0111265D01*
X0049362Y0111128D01*
X0049280Y0110992D01*
X0049196Y0110858D01*
X0049107Y0110727D01*
X0049016Y0110598D01*
X0048921Y0110471D01*
X0048824Y0110346D01*
X0048723Y0110224D01*
X0048619Y0110105D01*
X0048512Y0109988D01*
X0048402Y0109874D01*
X0048289Y0109763D01*
X0048174Y0109654D01*
X0048056Y0109549D01*
X0047935Y0109447D01*
X0047812Y0109347D01*
X0047686Y0109251D01*
X0047558Y0109158D01*
X0047428Y0109068D01*
X0047295Y0108982D01*
X0047160Y0108898D01*
X0047024Y0108819D01*
X0046885Y0108742D01*
X0046744Y0108670D01*
X0046602Y0108600D01*
X0046458Y0108535D01*
X0046312Y0108473D01*
X0046165Y0108415D01*
X0046016Y0108360D01*
X0045866Y0108309D01*
X0045715Y0108262D01*
X0045563Y0108219D01*
X0045410Y0108180D01*
X0045255Y0108144D01*
X0045100Y0108113D01*
X0044944Y0108085D01*
X0044788Y0108061D01*
X0044631Y0108041D01*
X0044473Y0108025D01*
X0044316Y0108013D01*
X0044157Y0108005D01*
X0043999Y0108001D01*
X0043841Y0108001D01*
X0043683Y0108005D01*
X0043524Y0108013D01*
X0043367Y0108025D01*
X0043209Y0108041D01*
X0043052Y0108061D01*
X0042896Y0108085D01*
X0042740Y0108113D01*
X0042585Y0108144D01*
X0042430Y0108180D01*
X0042277Y0108219D01*
X0042125Y0108262D01*
X0041974Y0108309D01*
X0041824Y0108360D01*
X0041675Y0108415D01*
X0041528Y0108473D01*
X0041382Y0108535D01*
X0041238Y0108600D01*
X0041096Y0108670D01*
X0040955Y0108742D01*
X0040816Y0108819D01*
X0040680Y0108898D01*
X0040545Y0108982D01*
X0040412Y0109068D01*
X0040282Y0109158D01*
X0040154Y0109251D01*
X0040028Y0109347D01*
X0039905Y0109447D01*
X0039784Y0109549D01*
X0039666Y0109654D01*
X0039551Y0109763D01*
X0039438Y0109874D01*
X0039328Y0109988D01*
X0039221Y0110105D01*
X0039117Y0110224D01*
X0039016Y0110346D01*
X0038919Y0110471D01*
X0038824Y0110598D01*
X0038733Y0110727D01*
X0038644Y0110858D01*
X0038560Y0110992D01*
X0038478Y0111128D01*
X0038400Y0111265D01*
X0038326Y0111405D01*
X0038255Y0111547D01*
X0038187Y0111690D01*
X0038123Y0111835D01*
X0038063Y0111981D01*
X0038007Y0112129D01*
X0037954Y0112278D01*
X0037905Y0112429D01*
X0037860Y0112581D01*
X0037819Y0112734D01*
X0037781Y0112887D01*
X0037748Y0113042D01*
X0037718Y0113198D01*
X0037692Y0113354D01*
X0037671Y0113511D01*
X0037653Y0113668D01*
X0037639Y0113826D01*
X0037629Y0113984D01*
X0037623Y0114142D01*
X0037621Y0114300D01*
X0037621Y0139300D02*
X0037623Y0139458D01*
X0037629Y0139616D01*
X0037639Y0139774D01*
X0037653Y0139932D01*
X0037671Y0140089D01*
X0037692Y0140246D01*
X0037718Y0140402D01*
X0037748Y0140558D01*
X0037781Y0140713D01*
X0037819Y0140866D01*
X0037860Y0141019D01*
X0037905Y0141171D01*
X0037954Y0141322D01*
X0038007Y0141471D01*
X0038063Y0141619D01*
X0038123Y0141765D01*
X0038187Y0141910D01*
X0038255Y0142053D01*
X0038326Y0142195D01*
X0038400Y0142335D01*
X0038478Y0142472D01*
X0038560Y0142608D01*
X0038644Y0142742D01*
X0038733Y0142873D01*
X0038824Y0143002D01*
X0038919Y0143129D01*
X0039016Y0143254D01*
X0039117Y0143376D01*
X0039221Y0143495D01*
X0039328Y0143612D01*
X0039438Y0143726D01*
X0039551Y0143837D01*
X0039666Y0143946D01*
X0039784Y0144051D01*
X0039905Y0144153D01*
X0040028Y0144253D01*
X0040154Y0144349D01*
X0040282Y0144442D01*
X0040412Y0144532D01*
X0040545Y0144618D01*
X0040680Y0144702D01*
X0040816Y0144781D01*
X0040955Y0144858D01*
X0041096Y0144930D01*
X0041238Y0145000D01*
X0041382Y0145065D01*
X0041528Y0145127D01*
X0041675Y0145185D01*
X0041824Y0145240D01*
X0041974Y0145291D01*
X0042125Y0145338D01*
X0042277Y0145381D01*
X0042430Y0145420D01*
X0042585Y0145456D01*
X0042740Y0145487D01*
X0042896Y0145515D01*
X0043052Y0145539D01*
X0043209Y0145559D01*
X0043367Y0145575D01*
X0043524Y0145587D01*
X0043683Y0145595D01*
X0043841Y0145599D01*
X0043999Y0145599D01*
X0044157Y0145595D01*
X0044316Y0145587D01*
X0044473Y0145575D01*
X0044631Y0145559D01*
X0044788Y0145539D01*
X0044944Y0145515D01*
X0045100Y0145487D01*
X0045255Y0145456D01*
X0045410Y0145420D01*
X0045563Y0145381D01*
X0045715Y0145338D01*
X0045866Y0145291D01*
X0046016Y0145240D01*
X0046165Y0145185D01*
X0046312Y0145127D01*
X0046458Y0145065D01*
X0046602Y0145000D01*
X0046744Y0144930D01*
X0046885Y0144858D01*
X0047024Y0144781D01*
X0047160Y0144702D01*
X0047295Y0144618D01*
X0047428Y0144532D01*
X0047558Y0144442D01*
X0047686Y0144349D01*
X0047812Y0144253D01*
X0047935Y0144153D01*
X0048056Y0144051D01*
X0048174Y0143946D01*
X0048289Y0143837D01*
X0048402Y0143726D01*
X0048512Y0143612D01*
X0048619Y0143495D01*
X0048723Y0143376D01*
X0048824Y0143254D01*
X0048921Y0143129D01*
X0049016Y0143002D01*
X0049107Y0142873D01*
X0049196Y0142742D01*
X0049280Y0142608D01*
X0049362Y0142472D01*
X0049440Y0142335D01*
X0049514Y0142195D01*
X0049585Y0142053D01*
X0049653Y0141910D01*
X0049717Y0141765D01*
X0049777Y0141619D01*
X0049833Y0141471D01*
X0049886Y0141322D01*
X0049935Y0141171D01*
X0049980Y0141019D01*
X0050021Y0140866D01*
X0050059Y0140713D01*
X0050092Y0140558D01*
X0050122Y0140402D01*
X0050148Y0140246D01*
X0050169Y0140089D01*
X0050187Y0139932D01*
X0050201Y0139774D01*
X0050211Y0139616D01*
X0050217Y0139458D01*
X0050219Y0139300D01*
X0050217Y0139142D01*
X0050211Y0138984D01*
X0050201Y0138826D01*
X0050187Y0138668D01*
X0050169Y0138511D01*
X0050148Y0138354D01*
X0050122Y0138198D01*
X0050092Y0138042D01*
X0050059Y0137887D01*
X0050021Y0137734D01*
X0049980Y0137581D01*
X0049935Y0137429D01*
X0049886Y0137278D01*
X0049833Y0137129D01*
X0049777Y0136981D01*
X0049717Y0136835D01*
X0049653Y0136690D01*
X0049585Y0136547D01*
X0049514Y0136405D01*
X0049440Y0136265D01*
X0049362Y0136128D01*
X0049280Y0135992D01*
X0049196Y0135858D01*
X0049107Y0135727D01*
X0049016Y0135598D01*
X0048921Y0135471D01*
X0048824Y0135346D01*
X0048723Y0135224D01*
X0048619Y0135105D01*
X0048512Y0134988D01*
X0048402Y0134874D01*
X0048289Y0134763D01*
X0048174Y0134654D01*
X0048056Y0134549D01*
X0047935Y0134447D01*
X0047812Y0134347D01*
X0047686Y0134251D01*
X0047558Y0134158D01*
X0047428Y0134068D01*
X0047295Y0133982D01*
X0047160Y0133898D01*
X0047024Y0133819D01*
X0046885Y0133742D01*
X0046744Y0133670D01*
X0046602Y0133600D01*
X0046458Y0133535D01*
X0046312Y0133473D01*
X0046165Y0133415D01*
X0046016Y0133360D01*
X0045866Y0133309D01*
X0045715Y0133262D01*
X0045563Y0133219D01*
X0045410Y0133180D01*
X0045255Y0133144D01*
X0045100Y0133113D01*
X0044944Y0133085D01*
X0044788Y0133061D01*
X0044631Y0133041D01*
X0044473Y0133025D01*
X0044316Y0133013D01*
X0044157Y0133005D01*
X0043999Y0133001D01*
X0043841Y0133001D01*
X0043683Y0133005D01*
X0043524Y0133013D01*
X0043367Y0133025D01*
X0043209Y0133041D01*
X0043052Y0133061D01*
X0042896Y0133085D01*
X0042740Y0133113D01*
X0042585Y0133144D01*
X0042430Y0133180D01*
X0042277Y0133219D01*
X0042125Y0133262D01*
X0041974Y0133309D01*
X0041824Y0133360D01*
X0041675Y0133415D01*
X0041528Y0133473D01*
X0041382Y0133535D01*
X0041238Y0133600D01*
X0041096Y0133670D01*
X0040955Y0133742D01*
X0040816Y0133819D01*
X0040680Y0133898D01*
X0040545Y0133982D01*
X0040412Y0134068D01*
X0040282Y0134158D01*
X0040154Y0134251D01*
X0040028Y0134347D01*
X0039905Y0134447D01*
X0039784Y0134549D01*
X0039666Y0134654D01*
X0039551Y0134763D01*
X0039438Y0134874D01*
X0039328Y0134988D01*
X0039221Y0135105D01*
X0039117Y0135224D01*
X0039016Y0135346D01*
X0038919Y0135471D01*
X0038824Y0135598D01*
X0038733Y0135727D01*
X0038644Y0135858D01*
X0038560Y0135992D01*
X0038478Y0136128D01*
X0038400Y0136265D01*
X0038326Y0136405D01*
X0038255Y0136547D01*
X0038187Y0136690D01*
X0038123Y0136835D01*
X0038063Y0136981D01*
X0038007Y0137129D01*
X0037954Y0137278D01*
X0037905Y0137429D01*
X0037860Y0137581D01*
X0037819Y0137734D01*
X0037781Y0137887D01*
X0037748Y0138042D01*
X0037718Y0138198D01*
X0037692Y0138354D01*
X0037671Y0138511D01*
X0037653Y0138668D01*
X0037639Y0138826D01*
X0037629Y0138984D01*
X0037623Y0139142D01*
X0037621Y0139300D01*
X0037621Y0184300D02*
X0037623Y0184458D01*
X0037629Y0184616D01*
X0037639Y0184774D01*
X0037653Y0184932D01*
X0037671Y0185089D01*
X0037692Y0185246D01*
X0037718Y0185402D01*
X0037748Y0185558D01*
X0037781Y0185713D01*
X0037819Y0185866D01*
X0037860Y0186019D01*
X0037905Y0186171D01*
X0037954Y0186322D01*
X0038007Y0186471D01*
X0038063Y0186619D01*
X0038123Y0186765D01*
X0038187Y0186910D01*
X0038255Y0187053D01*
X0038326Y0187195D01*
X0038400Y0187335D01*
X0038478Y0187472D01*
X0038560Y0187608D01*
X0038644Y0187742D01*
X0038733Y0187873D01*
X0038824Y0188002D01*
X0038919Y0188129D01*
X0039016Y0188254D01*
X0039117Y0188376D01*
X0039221Y0188495D01*
X0039328Y0188612D01*
X0039438Y0188726D01*
X0039551Y0188837D01*
X0039666Y0188946D01*
X0039784Y0189051D01*
X0039905Y0189153D01*
X0040028Y0189253D01*
X0040154Y0189349D01*
X0040282Y0189442D01*
X0040412Y0189532D01*
X0040545Y0189618D01*
X0040680Y0189702D01*
X0040816Y0189781D01*
X0040955Y0189858D01*
X0041096Y0189930D01*
X0041238Y0190000D01*
X0041382Y0190065D01*
X0041528Y0190127D01*
X0041675Y0190185D01*
X0041824Y0190240D01*
X0041974Y0190291D01*
X0042125Y0190338D01*
X0042277Y0190381D01*
X0042430Y0190420D01*
X0042585Y0190456D01*
X0042740Y0190487D01*
X0042896Y0190515D01*
X0043052Y0190539D01*
X0043209Y0190559D01*
X0043367Y0190575D01*
X0043524Y0190587D01*
X0043683Y0190595D01*
X0043841Y0190599D01*
X0043999Y0190599D01*
X0044157Y0190595D01*
X0044316Y0190587D01*
X0044473Y0190575D01*
X0044631Y0190559D01*
X0044788Y0190539D01*
X0044944Y0190515D01*
X0045100Y0190487D01*
X0045255Y0190456D01*
X0045410Y0190420D01*
X0045563Y0190381D01*
X0045715Y0190338D01*
X0045866Y0190291D01*
X0046016Y0190240D01*
X0046165Y0190185D01*
X0046312Y0190127D01*
X0046458Y0190065D01*
X0046602Y0190000D01*
X0046744Y0189930D01*
X0046885Y0189858D01*
X0047024Y0189781D01*
X0047160Y0189702D01*
X0047295Y0189618D01*
X0047428Y0189532D01*
X0047558Y0189442D01*
X0047686Y0189349D01*
X0047812Y0189253D01*
X0047935Y0189153D01*
X0048056Y0189051D01*
X0048174Y0188946D01*
X0048289Y0188837D01*
X0048402Y0188726D01*
X0048512Y0188612D01*
X0048619Y0188495D01*
X0048723Y0188376D01*
X0048824Y0188254D01*
X0048921Y0188129D01*
X0049016Y0188002D01*
X0049107Y0187873D01*
X0049196Y0187742D01*
X0049280Y0187608D01*
X0049362Y0187472D01*
X0049440Y0187335D01*
X0049514Y0187195D01*
X0049585Y0187053D01*
X0049653Y0186910D01*
X0049717Y0186765D01*
X0049777Y0186619D01*
X0049833Y0186471D01*
X0049886Y0186322D01*
X0049935Y0186171D01*
X0049980Y0186019D01*
X0050021Y0185866D01*
X0050059Y0185713D01*
X0050092Y0185558D01*
X0050122Y0185402D01*
X0050148Y0185246D01*
X0050169Y0185089D01*
X0050187Y0184932D01*
X0050201Y0184774D01*
X0050211Y0184616D01*
X0050217Y0184458D01*
X0050219Y0184300D01*
X0050217Y0184142D01*
X0050211Y0183984D01*
X0050201Y0183826D01*
X0050187Y0183668D01*
X0050169Y0183511D01*
X0050148Y0183354D01*
X0050122Y0183198D01*
X0050092Y0183042D01*
X0050059Y0182887D01*
X0050021Y0182734D01*
X0049980Y0182581D01*
X0049935Y0182429D01*
X0049886Y0182278D01*
X0049833Y0182129D01*
X0049777Y0181981D01*
X0049717Y0181835D01*
X0049653Y0181690D01*
X0049585Y0181547D01*
X0049514Y0181405D01*
X0049440Y0181265D01*
X0049362Y0181128D01*
X0049280Y0180992D01*
X0049196Y0180858D01*
X0049107Y0180727D01*
X0049016Y0180598D01*
X0048921Y0180471D01*
X0048824Y0180346D01*
X0048723Y0180224D01*
X0048619Y0180105D01*
X0048512Y0179988D01*
X0048402Y0179874D01*
X0048289Y0179763D01*
X0048174Y0179654D01*
X0048056Y0179549D01*
X0047935Y0179447D01*
X0047812Y0179347D01*
X0047686Y0179251D01*
X0047558Y0179158D01*
X0047428Y0179068D01*
X0047295Y0178982D01*
X0047160Y0178898D01*
X0047024Y0178819D01*
X0046885Y0178742D01*
X0046744Y0178670D01*
X0046602Y0178600D01*
X0046458Y0178535D01*
X0046312Y0178473D01*
X0046165Y0178415D01*
X0046016Y0178360D01*
X0045866Y0178309D01*
X0045715Y0178262D01*
X0045563Y0178219D01*
X0045410Y0178180D01*
X0045255Y0178144D01*
X0045100Y0178113D01*
X0044944Y0178085D01*
X0044788Y0178061D01*
X0044631Y0178041D01*
X0044473Y0178025D01*
X0044316Y0178013D01*
X0044157Y0178005D01*
X0043999Y0178001D01*
X0043841Y0178001D01*
X0043683Y0178005D01*
X0043524Y0178013D01*
X0043367Y0178025D01*
X0043209Y0178041D01*
X0043052Y0178061D01*
X0042896Y0178085D01*
X0042740Y0178113D01*
X0042585Y0178144D01*
X0042430Y0178180D01*
X0042277Y0178219D01*
X0042125Y0178262D01*
X0041974Y0178309D01*
X0041824Y0178360D01*
X0041675Y0178415D01*
X0041528Y0178473D01*
X0041382Y0178535D01*
X0041238Y0178600D01*
X0041096Y0178670D01*
X0040955Y0178742D01*
X0040816Y0178819D01*
X0040680Y0178898D01*
X0040545Y0178982D01*
X0040412Y0179068D01*
X0040282Y0179158D01*
X0040154Y0179251D01*
X0040028Y0179347D01*
X0039905Y0179447D01*
X0039784Y0179549D01*
X0039666Y0179654D01*
X0039551Y0179763D01*
X0039438Y0179874D01*
X0039328Y0179988D01*
X0039221Y0180105D01*
X0039117Y0180224D01*
X0039016Y0180346D01*
X0038919Y0180471D01*
X0038824Y0180598D01*
X0038733Y0180727D01*
X0038644Y0180858D01*
X0038560Y0180992D01*
X0038478Y0181128D01*
X0038400Y0181265D01*
X0038326Y0181405D01*
X0038255Y0181547D01*
X0038187Y0181690D01*
X0038123Y0181835D01*
X0038063Y0181981D01*
X0038007Y0182129D01*
X0037954Y0182278D01*
X0037905Y0182429D01*
X0037860Y0182581D01*
X0037819Y0182734D01*
X0037781Y0182887D01*
X0037748Y0183042D01*
X0037718Y0183198D01*
X0037692Y0183354D01*
X0037671Y0183511D01*
X0037653Y0183668D01*
X0037639Y0183826D01*
X0037629Y0183984D01*
X0037623Y0184142D01*
X0037621Y0184300D01*
X0407621Y0189300D02*
X0407623Y0189458D01*
X0407629Y0189616D01*
X0407639Y0189774D01*
X0407653Y0189932D01*
X0407671Y0190089D01*
X0407692Y0190246D01*
X0407718Y0190402D01*
X0407748Y0190558D01*
X0407781Y0190713D01*
X0407819Y0190866D01*
X0407860Y0191019D01*
X0407905Y0191171D01*
X0407954Y0191322D01*
X0408007Y0191471D01*
X0408063Y0191619D01*
X0408123Y0191765D01*
X0408187Y0191910D01*
X0408255Y0192053D01*
X0408326Y0192195D01*
X0408400Y0192335D01*
X0408478Y0192472D01*
X0408560Y0192608D01*
X0408644Y0192742D01*
X0408733Y0192873D01*
X0408824Y0193002D01*
X0408919Y0193129D01*
X0409016Y0193254D01*
X0409117Y0193376D01*
X0409221Y0193495D01*
X0409328Y0193612D01*
X0409438Y0193726D01*
X0409551Y0193837D01*
X0409666Y0193946D01*
X0409784Y0194051D01*
X0409905Y0194153D01*
X0410028Y0194253D01*
X0410154Y0194349D01*
X0410282Y0194442D01*
X0410412Y0194532D01*
X0410545Y0194618D01*
X0410680Y0194702D01*
X0410816Y0194781D01*
X0410955Y0194858D01*
X0411096Y0194930D01*
X0411238Y0195000D01*
X0411382Y0195065D01*
X0411528Y0195127D01*
X0411675Y0195185D01*
X0411824Y0195240D01*
X0411974Y0195291D01*
X0412125Y0195338D01*
X0412277Y0195381D01*
X0412430Y0195420D01*
X0412585Y0195456D01*
X0412740Y0195487D01*
X0412896Y0195515D01*
X0413052Y0195539D01*
X0413209Y0195559D01*
X0413367Y0195575D01*
X0413524Y0195587D01*
X0413683Y0195595D01*
X0413841Y0195599D01*
X0413999Y0195599D01*
X0414157Y0195595D01*
X0414316Y0195587D01*
X0414473Y0195575D01*
X0414631Y0195559D01*
X0414788Y0195539D01*
X0414944Y0195515D01*
X0415100Y0195487D01*
X0415255Y0195456D01*
X0415410Y0195420D01*
X0415563Y0195381D01*
X0415715Y0195338D01*
X0415866Y0195291D01*
X0416016Y0195240D01*
X0416165Y0195185D01*
X0416312Y0195127D01*
X0416458Y0195065D01*
X0416602Y0195000D01*
X0416744Y0194930D01*
X0416885Y0194858D01*
X0417024Y0194781D01*
X0417160Y0194702D01*
X0417295Y0194618D01*
X0417428Y0194532D01*
X0417558Y0194442D01*
X0417686Y0194349D01*
X0417812Y0194253D01*
X0417935Y0194153D01*
X0418056Y0194051D01*
X0418174Y0193946D01*
X0418289Y0193837D01*
X0418402Y0193726D01*
X0418512Y0193612D01*
X0418619Y0193495D01*
X0418723Y0193376D01*
X0418824Y0193254D01*
X0418921Y0193129D01*
X0419016Y0193002D01*
X0419107Y0192873D01*
X0419196Y0192742D01*
X0419280Y0192608D01*
X0419362Y0192472D01*
X0419440Y0192335D01*
X0419514Y0192195D01*
X0419585Y0192053D01*
X0419653Y0191910D01*
X0419717Y0191765D01*
X0419777Y0191619D01*
X0419833Y0191471D01*
X0419886Y0191322D01*
X0419935Y0191171D01*
X0419980Y0191019D01*
X0420021Y0190866D01*
X0420059Y0190713D01*
X0420092Y0190558D01*
X0420122Y0190402D01*
X0420148Y0190246D01*
X0420169Y0190089D01*
X0420187Y0189932D01*
X0420201Y0189774D01*
X0420211Y0189616D01*
X0420217Y0189458D01*
X0420219Y0189300D01*
X0420217Y0189142D01*
X0420211Y0188984D01*
X0420201Y0188826D01*
X0420187Y0188668D01*
X0420169Y0188511D01*
X0420148Y0188354D01*
X0420122Y0188198D01*
X0420092Y0188042D01*
X0420059Y0187887D01*
X0420021Y0187734D01*
X0419980Y0187581D01*
X0419935Y0187429D01*
X0419886Y0187278D01*
X0419833Y0187129D01*
X0419777Y0186981D01*
X0419717Y0186835D01*
X0419653Y0186690D01*
X0419585Y0186547D01*
X0419514Y0186405D01*
X0419440Y0186265D01*
X0419362Y0186128D01*
X0419280Y0185992D01*
X0419196Y0185858D01*
X0419107Y0185727D01*
X0419016Y0185598D01*
X0418921Y0185471D01*
X0418824Y0185346D01*
X0418723Y0185224D01*
X0418619Y0185105D01*
X0418512Y0184988D01*
X0418402Y0184874D01*
X0418289Y0184763D01*
X0418174Y0184654D01*
X0418056Y0184549D01*
X0417935Y0184447D01*
X0417812Y0184347D01*
X0417686Y0184251D01*
X0417558Y0184158D01*
X0417428Y0184068D01*
X0417295Y0183982D01*
X0417160Y0183898D01*
X0417024Y0183819D01*
X0416885Y0183742D01*
X0416744Y0183670D01*
X0416602Y0183600D01*
X0416458Y0183535D01*
X0416312Y0183473D01*
X0416165Y0183415D01*
X0416016Y0183360D01*
X0415866Y0183309D01*
X0415715Y0183262D01*
X0415563Y0183219D01*
X0415410Y0183180D01*
X0415255Y0183144D01*
X0415100Y0183113D01*
X0414944Y0183085D01*
X0414788Y0183061D01*
X0414631Y0183041D01*
X0414473Y0183025D01*
X0414316Y0183013D01*
X0414157Y0183005D01*
X0413999Y0183001D01*
X0413841Y0183001D01*
X0413683Y0183005D01*
X0413524Y0183013D01*
X0413367Y0183025D01*
X0413209Y0183041D01*
X0413052Y0183061D01*
X0412896Y0183085D01*
X0412740Y0183113D01*
X0412585Y0183144D01*
X0412430Y0183180D01*
X0412277Y0183219D01*
X0412125Y0183262D01*
X0411974Y0183309D01*
X0411824Y0183360D01*
X0411675Y0183415D01*
X0411528Y0183473D01*
X0411382Y0183535D01*
X0411238Y0183600D01*
X0411096Y0183670D01*
X0410955Y0183742D01*
X0410816Y0183819D01*
X0410680Y0183898D01*
X0410545Y0183982D01*
X0410412Y0184068D01*
X0410282Y0184158D01*
X0410154Y0184251D01*
X0410028Y0184347D01*
X0409905Y0184447D01*
X0409784Y0184549D01*
X0409666Y0184654D01*
X0409551Y0184763D01*
X0409438Y0184874D01*
X0409328Y0184988D01*
X0409221Y0185105D01*
X0409117Y0185224D01*
X0409016Y0185346D01*
X0408919Y0185471D01*
X0408824Y0185598D01*
X0408733Y0185727D01*
X0408644Y0185858D01*
X0408560Y0185992D01*
X0408478Y0186128D01*
X0408400Y0186265D01*
X0408326Y0186405D01*
X0408255Y0186547D01*
X0408187Y0186690D01*
X0408123Y0186835D01*
X0408063Y0186981D01*
X0408007Y0187129D01*
X0407954Y0187278D01*
X0407905Y0187429D01*
X0407860Y0187581D01*
X0407819Y0187734D01*
X0407781Y0187887D01*
X0407748Y0188042D01*
X0407718Y0188198D01*
X0407692Y0188354D01*
X0407671Y0188511D01*
X0407653Y0188668D01*
X0407639Y0188826D01*
X0407629Y0188984D01*
X0407623Y0189142D01*
X0407621Y0189300D01*
X0407621Y0144300D02*
X0407623Y0144458D01*
X0407629Y0144616D01*
X0407639Y0144774D01*
X0407653Y0144932D01*
X0407671Y0145089D01*
X0407692Y0145246D01*
X0407718Y0145402D01*
X0407748Y0145558D01*
X0407781Y0145713D01*
X0407819Y0145866D01*
X0407860Y0146019D01*
X0407905Y0146171D01*
X0407954Y0146322D01*
X0408007Y0146471D01*
X0408063Y0146619D01*
X0408123Y0146765D01*
X0408187Y0146910D01*
X0408255Y0147053D01*
X0408326Y0147195D01*
X0408400Y0147335D01*
X0408478Y0147472D01*
X0408560Y0147608D01*
X0408644Y0147742D01*
X0408733Y0147873D01*
X0408824Y0148002D01*
X0408919Y0148129D01*
X0409016Y0148254D01*
X0409117Y0148376D01*
X0409221Y0148495D01*
X0409328Y0148612D01*
X0409438Y0148726D01*
X0409551Y0148837D01*
X0409666Y0148946D01*
X0409784Y0149051D01*
X0409905Y0149153D01*
X0410028Y0149253D01*
X0410154Y0149349D01*
X0410282Y0149442D01*
X0410412Y0149532D01*
X0410545Y0149618D01*
X0410680Y0149702D01*
X0410816Y0149781D01*
X0410955Y0149858D01*
X0411096Y0149930D01*
X0411238Y0150000D01*
X0411382Y0150065D01*
X0411528Y0150127D01*
X0411675Y0150185D01*
X0411824Y0150240D01*
X0411974Y0150291D01*
X0412125Y0150338D01*
X0412277Y0150381D01*
X0412430Y0150420D01*
X0412585Y0150456D01*
X0412740Y0150487D01*
X0412896Y0150515D01*
X0413052Y0150539D01*
X0413209Y0150559D01*
X0413367Y0150575D01*
X0413524Y0150587D01*
X0413683Y0150595D01*
X0413841Y0150599D01*
X0413999Y0150599D01*
X0414157Y0150595D01*
X0414316Y0150587D01*
X0414473Y0150575D01*
X0414631Y0150559D01*
X0414788Y0150539D01*
X0414944Y0150515D01*
X0415100Y0150487D01*
X0415255Y0150456D01*
X0415410Y0150420D01*
X0415563Y0150381D01*
X0415715Y0150338D01*
X0415866Y0150291D01*
X0416016Y0150240D01*
X0416165Y0150185D01*
X0416312Y0150127D01*
X0416458Y0150065D01*
X0416602Y0150000D01*
X0416744Y0149930D01*
X0416885Y0149858D01*
X0417024Y0149781D01*
X0417160Y0149702D01*
X0417295Y0149618D01*
X0417428Y0149532D01*
X0417558Y0149442D01*
X0417686Y0149349D01*
X0417812Y0149253D01*
X0417935Y0149153D01*
X0418056Y0149051D01*
X0418174Y0148946D01*
X0418289Y0148837D01*
X0418402Y0148726D01*
X0418512Y0148612D01*
X0418619Y0148495D01*
X0418723Y0148376D01*
X0418824Y0148254D01*
X0418921Y0148129D01*
X0419016Y0148002D01*
X0419107Y0147873D01*
X0419196Y0147742D01*
X0419280Y0147608D01*
X0419362Y0147472D01*
X0419440Y0147335D01*
X0419514Y0147195D01*
X0419585Y0147053D01*
X0419653Y0146910D01*
X0419717Y0146765D01*
X0419777Y0146619D01*
X0419833Y0146471D01*
X0419886Y0146322D01*
X0419935Y0146171D01*
X0419980Y0146019D01*
X0420021Y0145866D01*
X0420059Y0145713D01*
X0420092Y0145558D01*
X0420122Y0145402D01*
X0420148Y0145246D01*
X0420169Y0145089D01*
X0420187Y0144932D01*
X0420201Y0144774D01*
X0420211Y0144616D01*
X0420217Y0144458D01*
X0420219Y0144300D01*
X0420217Y0144142D01*
X0420211Y0143984D01*
X0420201Y0143826D01*
X0420187Y0143668D01*
X0420169Y0143511D01*
X0420148Y0143354D01*
X0420122Y0143198D01*
X0420092Y0143042D01*
X0420059Y0142887D01*
X0420021Y0142734D01*
X0419980Y0142581D01*
X0419935Y0142429D01*
X0419886Y0142278D01*
X0419833Y0142129D01*
X0419777Y0141981D01*
X0419717Y0141835D01*
X0419653Y0141690D01*
X0419585Y0141547D01*
X0419514Y0141405D01*
X0419440Y0141265D01*
X0419362Y0141128D01*
X0419280Y0140992D01*
X0419196Y0140858D01*
X0419107Y0140727D01*
X0419016Y0140598D01*
X0418921Y0140471D01*
X0418824Y0140346D01*
X0418723Y0140224D01*
X0418619Y0140105D01*
X0418512Y0139988D01*
X0418402Y0139874D01*
X0418289Y0139763D01*
X0418174Y0139654D01*
X0418056Y0139549D01*
X0417935Y0139447D01*
X0417812Y0139347D01*
X0417686Y0139251D01*
X0417558Y0139158D01*
X0417428Y0139068D01*
X0417295Y0138982D01*
X0417160Y0138898D01*
X0417024Y0138819D01*
X0416885Y0138742D01*
X0416744Y0138670D01*
X0416602Y0138600D01*
X0416458Y0138535D01*
X0416312Y0138473D01*
X0416165Y0138415D01*
X0416016Y0138360D01*
X0415866Y0138309D01*
X0415715Y0138262D01*
X0415563Y0138219D01*
X0415410Y0138180D01*
X0415255Y0138144D01*
X0415100Y0138113D01*
X0414944Y0138085D01*
X0414788Y0138061D01*
X0414631Y0138041D01*
X0414473Y0138025D01*
X0414316Y0138013D01*
X0414157Y0138005D01*
X0413999Y0138001D01*
X0413841Y0138001D01*
X0413683Y0138005D01*
X0413524Y0138013D01*
X0413367Y0138025D01*
X0413209Y0138041D01*
X0413052Y0138061D01*
X0412896Y0138085D01*
X0412740Y0138113D01*
X0412585Y0138144D01*
X0412430Y0138180D01*
X0412277Y0138219D01*
X0412125Y0138262D01*
X0411974Y0138309D01*
X0411824Y0138360D01*
X0411675Y0138415D01*
X0411528Y0138473D01*
X0411382Y0138535D01*
X0411238Y0138600D01*
X0411096Y0138670D01*
X0410955Y0138742D01*
X0410816Y0138819D01*
X0410680Y0138898D01*
X0410545Y0138982D01*
X0410412Y0139068D01*
X0410282Y0139158D01*
X0410154Y0139251D01*
X0410028Y0139347D01*
X0409905Y0139447D01*
X0409784Y0139549D01*
X0409666Y0139654D01*
X0409551Y0139763D01*
X0409438Y0139874D01*
X0409328Y0139988D01*
X0409221Y0140105D01*
X0409117Y0140224D01*
X0409016Y0140346D01*
X0408919Y0140471D01*
X0408824Y0140598D01*
X0408733Y0140727D01*
X0408644Y0140858D01*
X0408560Y0140992D01*
X0408478Y0141128D01*
X0408400Y0141265D01*
X0408326Y0141405D01*
X0408255Y0141547D01*
X0408187Y0141690D01*
X0408123Y0141835D01*
X0408063Y0141981D01*
X0408007Y0142129D01*
X0407954Y0142278D01*
X0407905Y0142429D01*
X0407860Y0142581D01*
X0407819Y0142734D01*
X0407781Y0142887D01*
X0407748Y0143042D01*
X0407718Y0143198D01*
X0407692Y0143354D01*
X0407671Y0143511D01*
X0407653Y0143668D01*
X0407639Y0143826D01*
X0407629Y0143984D01*
X0407623Y0144142D01*
X0407621Y0144300D01*
D11*
X0198920Y0081920D02*
X0198920Y0081680D01*
X0188920Y0076920D02*
X0188920Y0076680D01*
X0154040Y0041800D02*
X0153800Y0041800D01*
X0154040Y0121800D02*
X0153800Y0121800D01*
D12*
X0156718Y0122654D02*
X0156969Y0122403D01*
X0157969Y0122403D01*
X0158220Y0122654D01*
X0158220Y0123154D01*
X0157969Y0123404D01*
X0158220Y0123877D02*
X0157219Y0124878D01*
X0156969Y0124878D01*
X0156718Y0124627D01*
X0156718Y0124127D01*
X0156969Y0123877D01*
X0156969Y0123404D02*
X0156718Y0123154D01*
X0156718Y0122654D01*
X0158220Y0123877D02*
X0158220Y0124878D01*
X0171120Y0112297D02*
X0171120Y0111297D01*
X0171120Y0110824D02*
X0171120Y0109823D01*
X0171120Y0109351D02*
X0170619Y0108850D01*
X0170619Y0109101D02*
X0170619Y0108350D01*
X0171120Y0108350D02*
X0169618Y0108350D01*
X0169618Y0109101D01*
X0169869Y0109351D01*
X0170369Y0109351D01*
X0170619Y0109101D01*
X0170119Y0109823D02*
X0169618Y0110324D01*
X0171120Y0110324D01*
X0170119Y0111297D02*
X0169618Y0111797D01*
X0171120Y0111797D01*
X0195470Y0101351D02*
X0196220Y0101351D01*
X0196471Y0101101D01*
X0196471Y0100601D01*
X0196220Y0100350D01*
X0195470Y0100350D01*
X0195470Y0099850D02*
X0195470Y0101351D01*
X0195970Y0100350D02*
X0196471Y0099850D01*
X0196943Y0099850D02*
X0196943Y0100100D01*
X0197944Y0101101D01*
X0197944Y0101351D01*
X0196943Y0101351D01*
X0199773Y0079001D02*
X0199523Y0078751D01*
X0199523Y0077750D01*
X0199773Y0077500D01*
X0200274Y0077500D01*
X0200524Y0077750D01*
X0200996Y0077750D02*
X0201247Y0077500D01*
X0201747Y0077500D01*
X0201997Y0077750D01*
X0201997Y0078000D01*
X0201747Y0078251D01*
X0201497Y0078251D01*
X0201747Y0078251D02*
X0201997Y0078501D01*
X0201997Y0078751D01*
X0201747Y0079001D01*
X0201247Y0079001D01*
X0200996Y0078751D01*
X0200524Y0078751D02*
X0200274Y0079001D01*
X0199773Y0079001D01*
X0191497Y0074001D02*
X0191497Y0072500D01*
X0191997Y0072500D02*
X0190996Y0072500D01*
X0190524Y0072750D02*
X0190274Y0072500D01*
X0189773Y0072500D01*
X0189523Y0072750D01*
X0189523Y0073751D01*
X0189773Y0074001D01*
X0190274Y0074001D01*
X0190524Y0073751D01*
X0190996Y0073501D02*
X0191497Y0074001D01*
X0192443Y0071351D02*
X0191943Y0070851D01*
X0192443Y0071351D02*
X0192443Y0069850D01*
X0191943Y0069850D02*
X0192944Y0069850D01*
X0191471Y0069850D02*
X0190470Y0069850D01*
X0190470Y0071351D01*
X0144633Y0093661D02*
X0143632Y0093661D01*
X0144132Y0093661D02*
X0144132Y0095162D01*
X0143632Y0094662D01*
X0143160Y0095162D02*
X0143160Y0093911D01*
X0142909Y0093661D01*
X0142409Y0093661D01*
X0142159Y0093911D01*
X0142159Y0095162D01*
X0106444Y0103538D02*
X0105443Y0102537D01*
X0105443Y0102287D01*
X0104971Y0102537D02*
X0104720Y0102287D01*
X0104220Y0102287D01*
X0103970Y0102537D01*
X0103970Y0103538D01*
X0104220Y0103788D01*
X0104720Y0103788D01*
X0104971Y0103538D01*
X0105443Y0103788D02*
X0106444Y0103788D01*
X0106444Y0103538D01*
X0120470Y0139600D02*
X0120470Y0141101D01*
X0121220Y0141101D01*
X0121471Y0140851D01*
X0121471Y0140351D01*
X0121220Y0140100D01*
X0120470Y0140100D01*
X0120970Y0140100D02*
X0121471Y0139600D01*
X0121943Y0140351D02*
X0122944Y0140351D01*
X0122694Y0141101D02*
X0121943Y0140351D01*
X0122694Y0141101D02*
X0122694Y0139600D01*
X0102944Y0144850D02*
X0102944Y0145100D01*
X0102694Y0145351D01*
X0101943Y0145351D01*
X0101943Y0144850D01*
X0102193Y0144600D01*
X0102694Y0144600D01*
X0102944Y0144850D01*
X0102443Y0145851D02*
X0101943Y0145351D01*
X0101471Y0145351D02*
X0101220Y0145100D01*
X0100470Y0145100D01*
X0100470Y0144600D02*
X0100470Y0146101D01*
X0101220Y0146101D01*
X0101471Y0145851D01*
X0101471Y0145351D01*
X0100970Y0145100D02*
X0101471Y0144600D01*
X0102443Y0145851D02*
X0102944Y0146101D01*
X0102944Y0158850D02*
X0102443Y0158850D01*
X0102193Y0159100D01*
X0101721Y0159100D02*
X0101470Y0158850D01*
X0100970Y0158850D01*
X0100720Y0159100D01*
X0100720Y0160101D01*
X0100970Y0160351D01*
X0101470Y0160351D01*
X0101721Y0160101D01*
X0101721Y0159100D01*
X0101721Y0158850D02*
X0101220Y0159350D01*
X0102193Y0159601D02*
X0102693Y0159851D01*
X0102944Y0159851D01*
X0103194Y0159601D01*
X0103194Y0159100D01*
X0102944Y0158850D01*
X0102193Y0159601D02*
X0102193Y0160351D01*
X0103194Y0160351D01*
X0106968Y0165930D02*
X0106968Y0166681D01*
X0107219Y0166931D01*
X0107719Y0166931D01*
X0107969Y0166681D01*
X0107969Y0165930D01*
X0107969Y0166431D02*
X0108470Y0166931D01*
X0108470Y0167403D02*
X0108470Y0168404D01*
X0108470Y0167904D02*
X0106968Y0167904D01*
X0107469Y0167403D01*
X0107219Y0168877D02*
X0106968Y0169127D01*
X0106968Y0169627D01*
X0107219Y0169878D01*
X0108219Y0168877D01*
X0108470Y0169127D01*
X0108470Y0169627D01*
X0108219Y0169878D01*
X0107219Y0169878D01*
X0107219Y0168877D02*
X0108219Y0168877D01*
X0108470Y0165930D02*
X0106968Y0165930D01*
X0120720Y0160101D02*
X0120970Y0160351D01*
X0121470Y0160351D01*
X0121721Y0160101D01*
X0121721Y0159100D01*
X0121470Y0158850D01*
X0120970Y0158850D01*
X0120720Y0159100D01*
X0120720Y0160101D01*
X0121220Y0159350D02*
X0121721Y0158850D01*
X0122193Y0159601D02*
X0123194Y0159601D01*
X0122944Y0160351D02*
X0122193Y0159601D01*
X0122944Y0160351D02*
X0122944Y0158850D01*
X0126968Y0167403D02*
X0126968Y0168154D01*
X0127219Y0168404D01*
X0127719Y0168404D01*
X0127969Y0168154D01*
X0127969Y0167403D01*
X0128470Y0167403D02*
X0126968Y0167403D01*
X0127969Y0167904D02*
X0128470Y0168404D01*
X0128219Y0168877D02*
X0128470Y0169127D01*
X0128470Y0169627D01*
X0128219Y0169878D01*
X0127719Y0169878D01*
X0127469Y0169627D01*
X0127469Y0169377D01*
X0127719Y0168877D01*
X0126968Y0168877D01*
X0126968Y0169878D01*
X0239405Y0174154D02*
X0239656Y0173903D01*
X0240656Y0173903D01*
X0240907Y0174154D01*
X0240907Y0174654D01*
X0240656Y0174904D01*
X0240656Y0175377D02*
X0240907Y0175627D01*
X0240907Y0176127D01*
X0240656Y0176378D01*
X0239656Y0176378D01*
X0239405Y0176127D01*
X0239405Y0175627D01*
X0239656Y0175377D01*
X0239906Y0175377D01*
X0240156Y0175627D01*
X0240156Y0176378D01*
X0239656Y0174904D02*
X0239405Y0174654D01*
X0239405Y0174154D01*
X0248970Y0177100D02*
X0248970Y0178351D01*
X0249971Y0178351D02*
X0249971Y0177100D01*
X0249720Y0176850D01*
X0249220Y0176850D01*
X0248970Y0177100D01*
X0250443Y0177100D02*
X0250693Y0176850D01*
X0251194Y0176850D01*
X0251444Y0177100D01*
X0251444Y0177350D01*
X0251194Y0177601D01*
X0250943Y0177601D01*
X0251194Y0177601D02*
X0251444Y0177851D01*
X0251444Y0178101D01*
X0251194Y0178351D01*
X0250693Y0178351D01*
X0250443Y0178101D01*
X0256023Y0176751D02*
X0256023Y0175500D01*
X0256273Y0175250D01*
X0256774Y0175250D01*
X0257024Y0175500D01*
X0257024Y0176751D01*
X0257496Y0176501D02*
X0257747Y0176751D01*
X0258247Y0176751D01*
X0258497Y0176501D01*
X0258497Y0176251D01*
X0257496Y0175250D01*
X0258497Y0175250D01*
X0266931Y0174324D02*
X0267182Y0173824D01*
X0267682Y0173323D01*
X0267682Y0174074D01*
X0267932Y0174324D01*
X0268182Y0174324D01*
X0268433Y0174074D01*
X0268433Y0173573D01*
X0268182Y0173323D01*
X0267682Y0173323D01*
X0267182Y0172851D02*
X0266931Y0172601D01*
X0266931Y0172100D01*
X0267182Y0171850D01*
X0268182Y0171850D01*
X0268433Y0172100D01*
X0268433Y0172601D01*
X0268182Y0172851D01*
X0269869Y0163771D02*
X0269618Y0163520D01*
X0269618Y0163020D01*
X0269869Y0162770D01*
X0269869Y0162297D02*
X0269618Y0162047D01*
X0269618Y0161297D01*
X0271120Y0161297D01*
X0271120Y0162047D01*
X0270869Y0162297D01*
X0269869Y0162297D01*
X0271120Y0162770D02*
X0270119Y0163771D01*
X0269869Y0163771D01*
X0271120Y0163771D02*
X0271120Y0162770D01*
X0271120Y0160824D02*
X0271120Y0159823D01*
X0269618Y0159823D01*
X0269618Y0160824D01*
X0270369Y0160324D02*
X0270369Y0159823D01*
X0271120Y0159351D02*
X0271120Y0158350D01*
X0269618Y0158350D01*
X0266747Y0153751D02*
X0266247Y0153751D01*
X0265996Y0153501D01*
X0265996Y0153251D01*
X0266247Y0153001D01*
X0266997Y0153001D01*
X0266997Y0153501D02*
X0266997Y0152500D01*
X0266747Y0152250D01*
X0266247Y0152250D01*
X0265996Y0152500D01*
X0265524Y0152250D02*
X0265024Y0152750D01*
X0265274Y0152750D02*
X0264523Y0152750D01*
X0264523Y0152250D02*
X0264523Y0153751D01*
X0265274Y0153751D01*
X0265524Y0153501D01*
X0265524Y0153001D01*
X0265274Y0152750D01*
X0266747Y0153751D02*
X0266997Y0153501D01*
X0294220Y0191850D02*
X0294470Y0191850D01*
X0294720Y0192100D01*
X0294720Y0193351D01*
X0294470Y0193351D02*
X0294971Y0193351D01*
X0295443Y0193351D02*
X0296194Y0193351D01*
X0296444Y0193101D01*
X0296444Y0192601D01*
X0296194Y0192350D01*
X0295443Y0192350D01*
X0295443Y0191850D02*
X0295443Y0193351D01*
X0296916Y0192851D02*
X0297417Y0193351D01*
X0297417Y0191850D01*
X0297917Y0191850D02*
X0296916Y0191850D01*
X0298389Y0192100D02*
X0298640Y0191850D01*
X0299140Y0191850D01*
X0299390Y0192100D01*
X0299390Y0193101D01*
X0299140Y0193351D01*
X0298640Y0193351D01*
X0298389Y0193101D01*
X0298389Y0192851D01*
X0298640Y0192601D01*
X0299390Y0192601D01*
X0294220Y0191850D02*
X0293970Y0192100D01*
X0151120Y0040574D02*
X0149618Y0040574D01*
X0150369Y0039823D01*
X0150369Y0040824D01*
X0149869Y0039351D02*
X0149618Y0039101D01*
X0149618Y0038600D01*
X0149869Y0038350D01*
X0150869Y0038350D01*
X0151120Y0038600D01*
X0151120Y0039101D01*
X0150869Y0039351D01*
D13*
X0121420Y0036800D02*
X0116420Y0036800D01*
X0093920Y0049300D02*
X0093920Y0054300D01*
X0083290Y0061800D02*
X0032109Y0061800D01*
X0032109Y0121800D01*
X0083290Y0121800D01*
X0083290Y0061800D01*
X0068920Y0054300D02*
X0068920Y0049300D01*
X0133841Y0065658D02*
X0137778Y0061721D01*
X0170061Y0061721D02*
X0173998Y0061721D01*
X0173998Y0065658D01*
X0197857Y0045973D02*
X0197857Y0041249D01*
X0188250Y0089989D02*
X0188250Y0091800D01*
X0189471Y0092720D01*
X0188250Y0093611D02*
X0188250Y0091800D01*
X0188311Y0091700D02*
X0189471Y0090940D01*
X0173998Y0097942D02*
X0173998Y0101879D01*
X0170061Y0101879D01*
X0188920Y0109300D02*
X0191420Y0106800D01*
X0196420Y0106800D01*
X0198920Y0109300D01*
X0198920Y0114300D01*
X0196420Y0116800D01*
X0198920Y0119300D01*
X0198920Y0124300D01*
X0196420Y0126800D01*
X0198920Y0129300D01*
X0198920Y0134300D01*
X0196420Y0136800D01*
X0198920Y0139300D01*
X0198920Y0144300D01*
X0196420Y0146800D01*
X0191420Y0146800D01*
X0188920Y0144300D01*
X0188920Y0139300D01*
X0191420Y0136800D01*
X0188920Y0134300D01*
X0188920Y0129300D01*
X0191420Y0126800D01*
X0188920Y0124300D01*
X0188920Y0119300D01*
X0191420Y0116800D01*
X0188920Y0114300D01*
X0188920Y0109300D01*
X0137778Y0101879D02*
X0133841Y0101879D01*
X0133841Y0097942D01*
X0123762Y0099950D02*
X0123762Y0093650D01*
X0122187Y0092076D01*
X0117857Y0092076D01*
X0109983Y0092076D02*
X0104077Y0092076D01*
X0104077Y0101524D01*
X0109983Y0101524D01*
X0117857Y0101524D02*
X0122187Y0101524D01*
X0123762Y0099950D01*
X0133920Y0119300D02*
X0133920Y0124300D01*
X0166420Y0136800D02*
X0171420Y0136800D01*
X0129431Y0151406D02*
X0129431Y0154556D01*
X0127069Y0154556D01*
X0120770Y0154556D02*
X0118408Y0154556D01*
X0118408Y0151406D01*
X0109431Y0151406D02*
X0109431Y0154556D01*
X0107069Y0154556D01*
X0100770Y0154556D02*
X0098408Y0154556D01*
X0098408Y0151406D01*
X0083290Y0131800D02*
X0032109Y0131800D01*
X0032109Y0191800D01*
X0083290Y0191800D01*
X0083290Y0131800D01*
X0093920Y0124300D02*
X0093920Y0119300D01*
X0229195Y0158532D02*
X0230770Y0156957D01*
X0237069Y0156957D01*
X0238644Y0158532D01*
X0238644Y0162863D01*
X0229195Y0162863D02*
X0229195Y0158532D01*
X0229195Y0170737D02*
X0229195Y0176643D01*
X0238644Y0176643D01*
X0238644Y0170737D01*
X0269195Y0171957D02*
X0269195Y0177863D01*
X0278644Y0177863D02*
X0278644Y0171957D01*
X0269195Y0171957D01*
X0283172Y0169083D02*
X0286321Y0169083D01*
X0286321Y0178926D01*
X0291046Y0178926D01*
X0283172Y0182863D02*
X0283172Y0169083D01*
X0275731Y0162469D02*
X0273920Y0162469D01*
X0274840Y0161249D01*
X0273920Y0162469D02*
X0272109Y0162469D01*
X0273060Y0161249D02*
X0273820Y0162409D01*
X0306794Y0178926D02*
X0311518Y0178926D01*
X0311518Y0169083D01*
X0314668Y0169083D01*
X0314668Y0182863D01*
X0341420Y0196800D02*
X0346420Y0196800D01*
X0374550Y0196800D02*
X0425731Y0196800D01*
X0425731Y0136800D01*
X0374550Y0136800D01*
X0374550Y0196800D01*
X0306794Y0198611D02*
X0291046Y0198611D01*
X0278644Y0190068D02*
X0277069Y0191643D01*
X0270770Y0191643D01*
X0269195Y0190068D01*
X0269195Y0185737D01*
X0278644Y0185737D02*
X0278644Y0190068D01*
X0171420Y0196800D02*
X0166420Y0196800D01*
X0133920Y0189300D02*
X0133920Y0184300D01*
X0093920Y0184300D02*
X0093920Y0189300D01*
X0341420Y0136800D02*
X0346420Y0136800D01*
D14*
X0277920Y0183300D02*
X0269920Y0183300D01*
X0237920Y0165300D02*
X0229920Y0165300D01*
X0210870Y0169685D02*
X0210870Y0171186D01*
X0210119Y0171937D01*
X0210119Y0173538D02*
X0210870Y0174289D01*
X0210870Y0175790D01*
X0210119Y0176541D01*
X0207116Y0176541D01*
X0206366Y0175790D01*
X0206366Y0174289D01*
X0207116Y0173538D01*
X0210119Y0173538D01*
X0207116Y0171937D02*
X0206366Y0171186D01*
X0206366Y0169685D01*
X0207116Y0168934D01*
X0210119Y0168934D01*
X0210870Y0169685D01*
X0210870Y0178142D02*
X0206366Y0178142D01*
X0207867Y0179643D01*
X0206366Y0181145D01*
X0210870Y0181145D01*
X0210870Y0182746D02*
X0210870Y0185749D01*
X0210870Y0184247D02*
X0206366Y0184247D01*
X0207867Y0182746D01*
X0183370Y0183538D02*
X0183370Y0185790D01*
X0182619Y0186541D01*
X0179616Y0186541D01*
X0178866Y0185790D01*
X0178866Y0183538D01*
X0183370Y0183538D01*
X0182619Y0181937D02*
X0183370Y0181186D01*
X0183370Y0179685D01*
X0182619Y0178934D01*
X0179616Y0178934D01*
X0178866Y0179685D01*
X0178866Y0181186D01*
X0179616Y0181937D01*
X0182619Y0181937D01*
X0183370Y0177333D02*
X0178866Y0177333D01*
X0180367Y0175832D01*
X0178866Y0174330D01*
X0183370Y0174330D01*
X0183370Y0188142D02*
X0178866Y0188142D01*
X0178866Y0191145D01*
X0178866Y0192746D02*
X0180367Y0194247D01*
X0178866Y0195749D01*
X0183370Y0195749D01*
X0183370Y0192746D02*
X0178866Y0192746D01*
X0183370Y0191145D02*
X0183370Y0188142D01*
X0181118Y0188142D02*
X0181118Y0189643D01*
X0110684Y0197501D02*
X0109933Y0196750D01*
X0108432Y0196750D01*
X0107681Y0197501D01*
X0107681Y0199002D02*
X0109183Y0199753D01*
X0109933Y0199753D01*
X0110684Y0199002D01*
X0110684Y0197501D01*
X0107681Y0199002D02*
X0107681Y0201254D01*
X0110684Y0201254D01*
X0106080Y0200503D02*
X0105329Y0201254D01*
X0103078Y0201254D01*
X0103078Y0196750D01*
X0105329Y0196750D01*
X0106080Y0197501D01*
X0106080Y0200503D01*
X0101476Y0200503D02*
X0100726Y0201254D01*
X0099224Y0201254D01*
X0098474Y0200503D01*
X0098474Y0197501D01*
X0099224Y0196750D01*
X0100726Y0196750D01*
X0101476Y0197501D01*
X0096872Y0196750D02*
X0093870Y0196750D01*
X0093870Y0201254D01*
X0093870Y0136254D02*
X0093870Y0131750D01*
X0096872Y0131750D01*
X0098474Y0132501D02*
X0099224Y0131750D01*
X0100726Y0131750D01*
X0101476Y0132501D01*
X0103078Y0131750D02*
X0105329Y0131750D01*
X0106080Y0132501D01*
X0106080Y0135503D01*
X0105329Y0136254D01*
X0103078Y0136254D01*
X0103078Y0131750D01*
X0107681Y0132501D02*
X0108432Y0131750D01*
X0109933Y0131750D01*
X0110684Y0132501D01*
X0110684Y0133251D01*
X0109933Y0134002D01*
X0109183Y0134002D01*
X0109933Y0134002D02*
X0110684Y0134753D01*
X0110684Y0135503D01*
X0109933Y0136254D01*
X0108432Y0136254D01*
X0107681Y0135503D01*
X0101476Y0135503D02*
X0100726Y0136254D01*
X0099224Y0136254D01*
X0098474Y0135503D01*
X0098474Y0132501D01*
X0115420Y0100800D02*
X0115420Y0092800D01*
X0110684Y0089250D02*
X0107681Y0089250D01*
X0109183Y0089250D02*
X0109183Y0093754D01*
X0107681Y0092253D01*
X0106080Y0093003D02*
X0106080Y0091502D01*
X0105329Y0090751D01*
X0103078Y0090751D01*
X0104579Y0090751D02*
X0106080Y0089250D01*
X0103078Y0089250D02*
X0103078Y0093754D01*
X0105329Y0093754D01*
X0106080Y0093003D01*
X0101476Y0093754D02*
X0098474Y0093754D01*
X0099975Y0093754D02*
X0099975Y0089250D01*
X0096872Y0089250D02*
X0095371Y0090751D01*
X0096122Y0089250D02*
X0094620Y0089250D01*
X0093870Y0090001D01*
X0093870Y0093003D01*
X0094620Y0093754D01*
X0096122Y0093754D01*
X0096872Y0093003D01*
X0096872Y0090001D01*
X0096122Y0089250D01*
X0096122Y0073754D02*
X0096872Y0073003D01*
X0096872Y0070001D01*
X0096122Y0069250D01*
X0094620Y0069250D01*
X0093870Y0070001D01*
X0093870Y0073003D01*
X0094620Y0073754D01*
X0096122Y0073754D01*
X0098474Y0073754D02*
X0101476Y0073754D01*
X0099975Y0073754D02*
X0099975Y0069250D01*
X0103078Y0069250D02*
X0103078Y0073754D01*
X0105329Y0073754D01*
X0106080Y0073003D01*
X0106080Y0071502D01*
X0105329Y0070751D01*
X0103078Y0070751D01*
X0104579Y0070751D02*
X0106080Y0069250D01*
X0107681Y0069250D02*
X0110684Y0072253D01*
X0110684Y0073003D01*
X0109933Y0073754D01*
X0108432Y0073754D01*
X0107681Y0073003D01*
X0107681Y0069250D02*
X0110684Y0069250D01*
X0096872Y0069250D02*
X0095371Y0070751D01*
X0181966Y0106750D02*
X0185719Y0106750D01*
X0186470Y0107501D01*
X0186470Y0109002D01*
X0185719Y0109753D01*
X0181966Y0109753D01*
X0182716Y0111354D02*
X0183467Y0111354D01*
X0184218Y0112105D01*
X0184218Y0113606D01*
X0184968Y0114356D01*
X0185719Y0114356D01*
X0186470Y0113606D01*
X0186470Y0112105D01*
X0185719Y0111354D01*
X0182716Y0111354D02*
X0181966Y0112105D01*
X0181966Y0113606D01*
X0182716Y0114356D01*
X0181966Y0115958D02*
X0181966Y0118210D01*
X0182716Y0118960D01*
X0183467Y0118960D01*
X0184218Y0118210D01*
X0184218Y0115958D01*
X0186470Y0115958D02*
X0186470Y0118210D01*
X0185719Y0118960D01*
X0184968Y0118960D01*
X0184218Y0118210D01*
X0186470Y0115958D02*
X0181966Y0115958D01*
X0318870Y0196750D02*
X0318870Y0201254D01*
X0321122Y0201254D01*
X0321872Y0200503D01*
X0321872Y0199002D01*
X0321122Y0198251D01*
X0318870Y0198251D01*
X0320371Y0198251D02*
X0321872Y0196750D01*
X0323474Y0196750D02*
X0323474Y0199753D01*
X0324975Y0201254D01*
X0326476Y0199753D01*
X0326476Y0196750D01*
X0328078Y0196750D02*
X0330329Y0196750D01*
X0331080Y0197501D01*
X0331080Y0200503D01*
X0330329Y0201254D01*
X0328078Y0201254D01*
X0328078Y0196750D01*
X0326476Y0199002D02*
X0323474Y0199002D01*
X0332681Y0201254D02*
X0334183Y0201254D01*
X0333432Y0201254D02*
X0333432Y0196750D01*
X0332681Y0196750D02*
X0334183Y0196750D01*
X0335751Y0197501D02*
X0336501Y0196750D01*
X0338003Y0196750D01*
X0338753Y0197501D01*
X0338753Y0200503D01*
X0338003Y0201254D01*
X0336501Y0201254D01*
X0335751Y0200503D01*
X0335751Y0197501D01*
D15*
X0123920Y0166800D03*
X0103920Y0166800D03*
D16*
X0103920Y0141800D03*
X0123920Y0136800D03*
D17*
X0198920Y0096800D03*
X0263920Y0156800D03*
D18*
X0260015Y0171672D02*
X0259475Y0171672D01*
X0259475Y0171673D02*
X0259471Y0171726D01*
X0259463Y0171778D01*
X0259451Y0171830D01*
X0259435Y0171881D01*
X0259416Y0171930D01*
X0259393Y0171978D01*
X0259366Y0172024D01*
X0259336Y0172068D01*
X0259303Y0172109D01*
X0259267Y0172148D01*
X0259228Y0172184D01*
X0259187Y0172217D01*
X0259143Y0172247D01*
X0259097Y0172274D01*
X0259049Y0172297D01*
X0259000Y0172316D01*
X0258949Y0172332D01*
X0258897Y0172344D01*
X0258845Y0172352D01*
X0258792Y0172356D01*
X0258791Y0172896D01*
X0258792Y0172897D01*
X0258860Y0172893D01*
X0258928Y0172886D01*
X0258995Y0172875D01*
X0259062Y0172861D01*
X0259128Y0172843D01*
X0259192Y0172821D01*
X0259256Y0172796D01*
X0259318Y0172767D01*
X0259378Y0172735D01*
X0259436Y0172700D01*
X0259493Y0172662D01*
X0259547Y0172621D01*
X0259599Y0172577D01*
X0259649Y0172530D01*
X0259696Y0172480D01*
X0259740Y0172428D01*
X0259781Y0172374D01*
X0259819Y0172317D01*
X0259854Y0172259D01*
X0259886Y0172199D01*
X0259915Y0172137D01*
X0259940Y0172073D01*
X0259962Y0172009D01*
X0259980Y0171943D01*
X0259994Y0171876D01*
X0260005Y0171809D01*
X0260012Y0171741D01*
X0260016Y0171673D01*
X0259960Y0171673D01*
X0259956Y0171740D01*
X0259949Y0171807D01*
X0259938Y0171874D01*
X0259923Y0171940D01*
X0259904Y0172005D01*
X0259882Y0172068D01*
X0259856Y0172131D01*
X0259827Y0172192D01*
X0259794Y0172251D01*
X0259759Y0172308D01*
X0259720Y0172363D01*
X0259678Y0172416D01*
X0259633Y0172466D01*
X0259585Y0172514D01*
X0259535Y0172559D01*
X0259482Y0172601D01*
X0259427Y0172640D01*
X0259370Y0172675D01*
X0259311Y0172708D01*
X0259250Y0172737D01*
X0259187Y0172763D01*
X0259124Y0172785D01*
X0259059Y0172804D01*
X0258993Y0172819D01*
X0258926Y0172830D01*
X0258859Y0172837D01*
X0258792Y0172841D01*
X0258792Y0172785D01*
X0258859Y0172781D01*
X0258925Y0172773D01*
X0258991Y0172762D01*
X0259055Y0172747D01*
X0259119Y0172728D01*
X0259182Y0172705D01*
X0259243Y0172679D01*
X0259303Y0172649D01*
X0259361Y0172615D01*
X0259416Y0172579D01*
X0259470Y0172539D01*
X0259521Y0172496D01*
X0259570Y0172451D01*
X0259615Y0172402D01*
X0259658Y0172351D01*
X0259698Y0172297D01*
X0259734Y0172242D01*
X0259768Y0172184D01*
X0259798Y0172124D01*
X0259824Y0172063D01*
X0259847Y0172000D01*
X0259866Y0171936D01*
X0259881Y0171872D01*
X0259892Y0171806D01*
X0259900Y0171740D01*
X0259904Y0171673D01*
X0259848Y0171673D01*
X0259844Y0171736D01*
X0259837Y0171799D01*
X0259826Y0171861D01*
X0259811Y0171923D01*
X0259793Y0171984D01*
X0259772Y0172043D01*
X0259747Y0172101D01*
X0259718Y0172158D01*
X0259687Y0172213D01*
X0259652Y0172266D01*
X0259614Y0172316D01*
X0259573Y0172365D01*
X0259530Y0172411D01*
X0259484Y0172454D01*
X0259435Y0172495D01*
X0259385Y0172533D01*
X0259332Y0172568D01*
X0259277Y0172599D01*
X0259220Y0172628D01*
X0259162Y0172653D01*
X0259103Y0172674D01*
X0259042Y0172692D01*
X0258980Y0172707D01*
X0258918Y0172718D01*
X0258855Y0172725D01*
X0258792Y0172729D01*
X0258792Y0172673D01*
X0258854Y0172669D01*
X0258916Y0172661D01*
X0258977Y0172650D01*
X0259038Y0172635D01*
X0259097Y0172617D01*
X0259156Y0172595D01*
X0259212Y0172569D01*
X0259268Y0172540D01*
X0259321Y0172508D01*
X0259372Y0172473D01*
X0259421Y0172434D01*
X0259468Y0172393D01*
X0259512Y0172349D01*
X0259553Y0172302D01*
X0259592Y0172253D01*
X0259627Y0172202D01*
X0259659Y0172149D01*
X0259688Y0172093D01*
X0259714Y0172037D01*
X0259736Y0171978D01*
X0259754Y0171919D01*
X0259769Y0171858D01*
X0259780Y0171797D01*
X0259788Y0171735D01*
X0259792Y0171673D01*
X0259736Y0171673D01*
X0259732Y0171734D01*
X0259724Y0171795D01*
X0259713Y0171855D01*
X0259697Y0171914D01*
X0259679Y0171973D01*
X0259656Y0172030D01*
X0259630Y0172085D01*
X0259600Y0172139D01*
X0259568Y0172190D01*
X0259532Y0172240D01*
X0259493Y0172287D01*
X0259451Y0172332D01*
X0259406Y0172374D01*
X0259359Y0172413D01*
X0259309Y0172449D01*
X0259258Y0172481D01*
X0259204Y0172511D01*
X0259149Y0172537D01*
X0259092Y0172560D01*
X0259033Y0172578D01*
X0258974Y0172594D01*
X0258914Y0172605D01*
X0258853Y0172613D01*
X0258792Y0172617D01*
X0258792Y0172561D01*
X0258849Y0172557D01*
X0258907Y0172550D01*
X0258963Y0172539D01*
X0259019Y0172524D01*
X0259074Y0172506D01*
X0259127Y0172485D01*
X0259179Y0172461D01*
X0259230Y0172433D01*
X0259278Y0172402D01*
X0259325Y0172368D01*
X0259369Y0172332D01*
X0259411Y0172292D01*
X0259451Y0172250D01*
X0259487Y0172206D01*
X0259521Y0172159D01*
X0259552Y0172111D01*
X0259580Y0172060D01*
X0259604Y0172008D01*
X0259625Y0171955D01*
X0259643Y0171900D01*
X0259658Y0171844D01*
X0259669Y0171788D01*
X0259676Y0171730D01*
X0259680Y0171673D01*
X0259623Y0171673D01*
X0259620Y0171729D01*
X0259612Y0171785D01*
X0259601Y0171840D01*
X0259587Y0171894D01*
X0259568Y0171948D01*
X0259547Y0172000D01*
X0259522Y0172050D01*
X0259494Y0172099D01*
X0259462Y0172145D01*
X0259428Y0172190D01*
X0259391Y0172232D01*
X0259351Y0172272D01*
X0259309Y0172309D01*
X0259264Y0172343D01*
X0259218Y0172375D01*
X0259169Y0172403D01*
X0259119Y0172428D01*
X0259067Y0172449D01*
X0259013Y0172468D01*
X0258959Y0172482D01*
X0258904Y0172493D01*
X0258848Y0172501D01*
X0258792Y0172504D01*
X0258792Y0172448D01*
X0258847Y0172445D01*
X0258901Y0172437D01*
X0258955Y0172426D01*
X0259007Y0172411D01*
X0259059Y0172392D01*
X0259109Y0172370D01*
X0259158Y0172345D01*
X0259205Y0172317D01*
X0259249Y0172285D01*
X0259292Y0172250D01*
X0259332Y0172213D01*
X0259369Y0172173D01*
X0259404Y0172130D01*
X0259436Y0172086D01*
X0259464Y0172039D01*
X0259489Y0171990D01*
X0259511Y0171940D01*
X0259530Y0171888D01*
X0259545Y0171836D01*
X0259556Y0171782D01*
X0259564Y0171728D01*
X0259567Y0171673D01*
X0259511Y0171673D01*
X0259507Y0171726D01*
X0259500Y0171779D01*
X0259488Y0171831D01*
X0259473Y0171882D01*
X0259454Y0171932D01*
X0259432Y0171980D01*
X0259406Y0172027D01*
X0259378Y0172071D01*
X0259346Y0172114D01*
X0259311Y0172154D01*
X0259273Y0172192D01*
X0259233Y0172227D01*
X0259190Y0172259D01*
X0259146Y0172287D01*
X0259099Y0172313D01*
X0259051Y0172335D01*
X0259001Y0172354D01*
X0258950Y0172369D01*
X0258898Y0172381D01*
X0258845Y0172388D01*
X0258792Y0172392D01*
X0249009Y0172896D02*
X0249009Y0172356D01*
X0249008Y0172356D02*
X0248955Y0172352D01*
X0248903Y0172344D01*
X0248851Y0172332D01*
X0248800Y0172316D01*
X0248751Y0172297D01*
X0248703Y0172274D01*
X0248657Y0172247D01*
X0248613Y0172217D01*
X0248572Y0172184D01*
X0248533Y0172148D01*
X0248497Y0172109D01*
X0248464Y0172068D01*
X0248434Y0172024D01*
X0248407Y0171978D01*
X0248384Y0171930D01*
X0248365Y0171881D01*
X0248349Y0171830D01*
X0248337Y0171778D01*
X0248329Y0171726D01*
X0248325Y0171673D01*
X0247785Y0171672D01*
X0247784Y0171673D01*
X0247788Y0171741D01*
X0247795Y0171809D01*
X0247806Y0171876D01*
X0247820Y0171943D01*
X0247838Y0172009D01*
X0247860Y0172073D01*
X0247885Y0172137D01*
X0247914Y0172199D01*
X0247946Y0172259D01*
X0247981Y0172317D01*
X0248019Y0172374D01*
X0248060Y0172428D01*
X0248104Y0172480D01*
X0248151Y0172530D01*
X0248201Y0172577D01*
X0248253Y0172621D01*
X0248307Y0172662D01*
X0248364Y0172700D01*
X0248422Y0172735D01*
X0248482Y0172767D01*
X0248544Y0172796D01*
X0248608Y0172821D01*
X0248672Y0172843D01*
X0248738Y0172861D01*
X0248805Y0172875D01*
X0248872Y0172886D01*
X0248940Y0172893D01*
X0249008Y0172897D01*
X0249008Y0172841D01*
X0248941Y0172837D01*
X0248874Y0172830D01*
X0248807Y0172819D01*
X0248741Y0172804D01*
X0248676Y0172785D01*
X0248613Y0172763D01*
X0248550Y0172737D01*
X0248489Y0172708D01*
X0248430Y0172675D01*
X0248373Y0172640D01*
X0248318Y0172601D01*
X0248265Y0172559D01*
X0248215Y0172514D01*
X0248167Y0172466D01*
X0248122Y0172416D01*
X0248080Y0172363D01*
X0248041Y0172308D01*
X0248006Y0172251D01*
X0247973Y0172192D01*
X0247944Y0172131D01*
X0247918Y0172068D01*
X0247896Y0172005D01*
X0247877Y0171940D01*
X0247862Y0171874D01*
X0247851Y0171807D01*
X0247844Y0171740D01*
X0247840Y0171673D01*
X0247896Y0171673D01*
X0247900Y0171740D01*
X0247908Y0171806D01*
X0247919Y0171872D01*
X0247934Y0171936D01*
X0247953Y0172000D01*
X0247976Y0172063D01*
X0248002Y0172124D01*
X0248032Y0172184D01*
X0248066Y0172242D01*
X0248102Y0172297D01*
X0248142Y0172351D01*
X0248185Y0172402D01*
X0248230Y0172451D01*
X0248279Y0172496D01*
X0248330Y0172539D01*
X0248384Y0172579D01*
X0248439Y0172615D01*
X0248497Y0172649D01*
X0248557Y0172679D01*
X0248618Y0172705D01*
X0248681Y0172728D01*
X0248745Y0172747D01*
X0248809Y0172762D01*
X0248875Y0172773D01*
X0248941Y0172781D01*
X0249008Y0172785D01*
X0249008Y0172729D01*
X0248945Y0172725D01*
X0248882Y0172718D01*
X0248820Y0172707D01*
X0248758Y0172692D01*
X0248697Y0172674D01*
X0248638Y0172653D01*
X0248580Y0172628D01*
X0248523Y0172599D01*
X0248468Y0172568D01*
X0248415Y0172533D01*
X0248365Y0172495D01*
X0248316Y0172454D01*
X0248270Y0172411D01*
X0248227Y0172365D01*
X0248186Y0172316D01*
X0248148Y0172266D01*
X0248113Y0172213D01*
X0248082Y0172158D01*
X0248053Y0172101D01*
X0248028Y0172043D01*
X0248007Y0171984D01*
X0247989Y0171923D01*
X0247974Y0171861D01*
X0247963Y0171799D01*
X0247956Y0171736D01*
X0247952Y0171673D01*
X0248008Y0171673D01*
X0248012Y0171735D01*
X0248020Y0171797D01*
X0248031Y0171858D01*
X0248046Y0171919D01*
X0248064Y0171978D01*
X0248086Y0172037D01*
X0248112Y0172093D01*
X0248141Y0172149D01*
X0248173Y0172202D01*
X0248208Y0172253D01*
X0248247Y0172302D01*
X0248288Y0172349D01*
X0248332Y0172393D01*
X0248379Y0172434D01*
X0248428Y0172473D01*
X0248479Y0172508D01*
X0248532Y0172540D01*
X0248588Y0172569D01*
X0248644Y0172595D01*
X0248703Y0172617D01*
X0248762Y0172635D01*
X0248823Y0172650D01*
X0248884Y0172661D01*
X0248946Y0172669D01*
X0249008Y0172673D01*
X0249008Y0172617D01*
X0248947Y0172613D01*
X0248886Y0172605D01*
X0248826Y0172594D01*
X0248767Y0172578D01*
X0248708Y0172560D01*
X0248651Y0172537D01*
X0248596Y0172511D01*
X0248542Y0172481D01*
X0248491Y0172449D01*
X0248441Y0172413D01*
X0248394Y0172374D01*
X0248349Y0172332D01*
X0248307Y0172287D01*
X0248268Y0172240D01*
X0248232Y0172190D01*
X0248200Y0172139D01*
X0248170Y0172085D01*
X0248144Y0172030D01*
X0248121Y0171973D01*
X0248103Y0171914D01*
X0248087Y0171855D01*
X0248076Y0171795D01*
X0248068Y0171734D01*
X0248064Y0171673D01*
X0248120Y0171673D01*
X0248124Y0171730D01*
X0248131Y0171788D01*
X0248142Y0171844D01*
X0248157Y0171900D01*
X0248175Y0171955D01*
X0248196Y0172008D01*
X0248220Y0172060D01*
X0248248Y0172111D01*
X0248279Y0172159D01*
X0248313Y0172206D01*
X0248349Y0172250D01*
X0248389Y0172292D01*
X0248431Y0172332D01*
X0248475Y0172368D01*
X0248522Y0172402D01*
X0248570Y0172433D01*
X0248621Y0172461D01*
X0248673Y0172485D01*
X0248726Y0172506D01*
X0248781Y0172524D01*
X0248837Y0172539D01*
X0248893Y0172550D01*
X0248951Y0172557D01*
X0249008Y0172561D01*
X0249008Y0172504D01*
X0248952Y0172501D01*
X0248896Y0172493D01*
X0248841Y0172482D01*
X0248787Y0172468D01*
X0248733Y0172449D01*
X0248681Y0172428D01*
X0248631Y0172403D01*
X0248582Y0172375D01*
X0248536Y0172343D01*
X0248491Y0172309D01*
X0248449Y0172272D01*
X0248409Y0172232D01*
X0248372Y0172190D01*
X0248338Y0172145D01*
X0248306Y0172099D01*
X0248278Y0172050D01*
X0248253Y0172000D01*
X0248232Y0171948D01*
X0248213Y0171894D01*
X0248199Y0171840D01*
X0248188Y0171785D01*
X0248180Y0171729D01*
X0248177Y0171673D01*
X0248233Y0171673D01*
X0248236Y0171728D01*
X0248244Y0171782D01*
X0248255Y0171836D01*
X0248270Y0171888D01*
X0248289Y0171940D01*
X0248311Y0171990D01*
X0248336Y0172039D01*
X0248364Y0172086D01*
X0248396Y0172130D01*
X0248431Y0172173D01*
X0248468Y0172213D01*
X0248508Y0172250D01*
X0248551Y0172285D01*
X0248595Y0172317D01*
X0248642Y0172345D01*
X0248691Y0172370D01*
X0248741Y0172392D01*
X0248793Y0172411D01*
X0248845Y0172426D01*
X0248899Y0172437D01*
X0248953Y0172445D01*
X0249008Y0172448D01*
X0249008Y0172392D01*
X0248955Y0172388D01*
X0248902Y0172381D01*
X0248850Y0172369D01*
X0248799Y0172354D01*
X0248749Y0172335D01*
X0248701Y0172313D01*
X0248654Y0172287D01*
X0248610Y0172259D01*
X0248567Y0172227D01*
X0248527Y0172192D01*
X0248489Y0172154D01*
X0248454Y0172114D01*
X0248422Y0172071D01*
X0248394Y0172027D01*
X0248368Y0171980D01*
X0248346Y0171932D01*
X0248327Y0171882D01*
X0248312Y0171831D01*
X0248300Y0171779D01*
X0248293Y0171726D01*
X0248289Y0171673D01*
X0247824Y0181928D02*
X0248364Y0181928D01*
X0248364Y0181927D02*
X0248368Y0181874D01*
X0248376Y0181822D01*
X0248388Y0181770D01*
X0248404Y0181719D01*
X0248423Y0181670D01*
X0248446Y0181622D01*
X0248473Y0181576D01*
X0248503Y0181532D01*
X0248536Y0181491D01*
X0248572Y0181452D01*
X0248611Y0181416D01*
X0248652Y0181383D01*
X0248696Y0181353D01*
X0248742Y0181326D01*
X0248790Y0181303D01*
X0248839Y0181284D01*
X0248890Y0181268D01*
X0248942Y0181256D01*
X0248994Y0181248D01*
X0249047Y0181244D01*
X0249048Y0180704D01*
X0249047Y0180703D01*
X0248979Y0180707D01*
X0248911Y0180714D01*
X0248844Y0180725D01*
X0248777Y0180739D01*
X0248711Y0180757D01*
X0248647Y0180779D01*
X0248583Y0180804D01*
X0248521Y0180833D01*
X0248461Y0180865D01*
X0248403Y0180900D01*
X0248346Y0180938D01*
X0248292Y0180979D01*
X0248240Y0181023D01*
X0248190Y0181070D01*
X0248143Y0181120D01*
X0248099Y0181172D01*
X0248058Y0181226D01*
X0248020Y0181283D01*
X0247985Y0181341D01*
X0247953Y0181401D01*
X0247924Y0181463D01*
X0247899Y0181527D01*
X0247877Y0181591D01*
X0247859Y0181657D01*
X0247845Y0181724D01*
X0247834Y0181791D01*
X0247827Y0181859D01*
X0247823Y0181927D01*
X0247879Y0181927D01*
X0247883Y0181860D01*
X0247890Y0181793D01*
X0247901Y0181726D01*
X0247916Y0181660D01*
X0247935Y0181595D01*
X0247957Y0181532D01*
X0247983Y0181469D01*
X0248012Y0181408D01*
X0248045Y0181349D01*
X0248080Y0181292D01*
X0248119Y0181237D01*
X0248161Y0181184D01*
X0248206Y0181134D01*
X0248254Y0181086D01*
X0248304Y0181041D01*
X0248357Y0180999D01*
X0248412Y0180960D01*
X0248469Y0180925D01*
X0248528Y0180892D01*
X0248589Y0180863D01*
X0248652Y0180837D01*
X0248715Y0180815D01*
X0248780Y0180796D01*
X0248846Y0180781D01*
X0248913Y0180770D01*
X0248980Y0180763D01*
X0249047Y0180759D01*
X0249047Y0180815D01*
X0248980Y0180819D01*
X0248914Y0180827D01*
X0248848Y0180838D01*
X0248784Y0180853D01*
X0248720Y0180872D01*
X0248657Y0180895D01*
X0248596Y0180921D01*
X0248536Y0180951D01*
X0248478Y0180985D01*
X0248423Y0181021D01*
X0248369Y0181061D01*
X0248318Y0181104D01*
X0248269Y0181149D01*
X0248224Y0181198D01*
X0248181Y0181249D01*
X0248141Y0181303D01*
X0248105Y0181358D01*
X0248071Y0181416D01*
X0248041Y0181476D01*
X0248015Y0181537D01*
X0247992Y0181600D01*
X0247973Y0181664D01*
X0247958Y0181728D01*
X0247947Y0181794D01*
X0247939Y0181860D01*
X0247935Y0181927D01*
X0247991Y0181927D01*
X0247995Y0181864D01*
X0248002Y0181801D01*
X0248013Y0181739D01*
X0248028Y0181677D01*
X0248046Y0181616D01*
X0248067Y0181557D01*
X0248092Y0181499D01*
X0248121Y0181442D01*
X0248152Y0181387D01*
X0248187Y0181334D01*
X0248225Y0181284D01*
X0248266Y0181235D01*
X0248309Y0181189D01*
X0248355Y0181146D01*
X0248404Y0181105D01*
X0248454Y0181067D01*
X0248507Y0181032D01*
X0248562Y0181001D01*
X0248619Y0180972D01*
X0248677Y0180947D01*
X0248736Y0180926D01*
X0248797Y0180908D01*
X0248859Y0180893D01*
X0248921Y0180882D01*
X0248984Y0180875D01*
X0249047Y0180871D01*
X0249047Y0180927D01*
X0248985Y0180931D01*
X0248923Y0180939D01*
X0248862Y0180950D01*
X0248801Y0180965D01*
X0248742Y0180983D01*
X0248683Y0181005D01*
X0248627Y0181031D01*
X0248571Y0181060D01*
X0248518Y0181092D01*
X0248467Y0181127D01*
X0248418Y0181166D01*
X0248371Y0181207D01*
X0248327Y0181251D01*
X0248286Y0181298D01*
X0248247Y0181347D01*
X0248212Y0181398D01*
X0248180Y0181451D01*
X0248151Y0181507D01*
X0248125Y0181563D01*
X0248103Y0181622D01*
X0248085Y0181681D01*
X0248070Y0181742D01*
X0248059Y0181803D01*
X0248051Y0181865D01*
X0248047Y0181927D01*
X0248103Y0181927D01*
X0248107Y0181866D01*
X0248115Y0181805D01*
X0248126Y0181745D01*
X0248142Y0181686D01*
X0248160Y0181627D01*
X0248183Y0181570D01*
X0248209Y0181515D01*
X0248239Y0181461D01*
X0248271Y0181410D01*
X0248307Y0181360D01*
X0248346Y0181313D01*
X0248388Y0181268D01*
X0248433Y0181226D01*
X0248480Y0181187D01*
X0248530Y0181151D01*
X0248581Y0181119D01*
X0248635Y0181089D01*
X0248690Y0181063D01*
X0248747Y0181040D01*
X0248806Y0181022D01*
X0248865Y0181006D01*
X0248925Y0180995D01*
X0248986Y0180987D01*
X0249047Y0180983D01*
X0249047Y0181039D01*
X0248990Y0181043D01*
X0248932Y0181050D01*
X0248876Y0181061D01*
X0248820Y0181076D01*
X0248765Y0181094D01*
X0248712Y0181115D01*
X0248660Y0181139D01*
X0248609Y0181167D01*
X0248561Y0181198D01*
X0248514Y0181232D01*
X0248470Y0181268D01*
X0248428Y0181308D01*
X0248388Y0181350D01*
X0248352Y0181394D01*
X0248318Y0181441D01*
X0248287Y0181489D01*
X0248259Y0181540D01*
X0248235Y0181592D01*
X0248214Y0181645D01*
X0248196Y0181700D01*
X0248181Y0181756D01*
X0248170Y0181812D01*
X0248163Y0181870D01*
X0248159Y0181927D01*
X0248216Y0181927D01*
X0248219Y0181871D01*
X0248227Y0181815D01*
X0248238Y0181760D01*
X0248252Y0181706D01*
X0248271Y0181652D01*
X0248292Y0181600D01*
X0248317Y0181550D01*
X0248345Y0181501D01*
X0248377Y0181455D01*
X0248411Y0181410D01*
X0248448Y0181368D01*
X0248488Y0181328D01*
X0248530Y0181291D01*
X0248575Y0181257D01*
X0248621Y0181225D01*
X0248670Y0181197D01*
X0248720Y0181172D01*
X0248772Y0181151D01*
X0248826Y0181132D01*
X0248880Y0181118D01*
X0248935Y0181107D01*
X0248991Y0181099D01*
X0249047Y0181096D01*
X0249047Y0181152D01*
X0248992Y0181155D01*
X0248938Y0181163D01*
X0248884Y0181174D01*
X0248832Y0181189D01*
X0248780Y0181208D01*
X0248730Y0181230D01*
X0248681Y0181255D01*
X0248634Y0181283D01*
X0248590Y0181315D01*
X0248547Y0181350D01*
X0248507Y0181387D01*
X0248470Y0181427D01*
X0248435Y0181470D01*
X0248403Y0181514D01*
X0248375Y0181561D01*
X0248350Y0181610D01*
X0248328Y0181660D01*
X0248309Y0181712D01*
X0248294Y0181764D01*
X0248283Y0181818D01*
X0248275Y0181872D01*
X0248272Y0181927D01*
X0248328Y0181927D01*
X0248332Y0181874D01*
X0248339Y0181821D01*
X0248351Y0181769D01*
X0248366Y0181718D01*
X0248385Y0181668D01*
X0248407Y0181620D01*
X0248433Y0181573D01*
X0248461Y0181529D01*
X0248493Y0181486D01*
X0248528Y0181446D01*
X0248566Y0181408D01*
X0248606Y0181373D01*
X0248649Y0181341D01*
X0248693Y0181313D01*
X0248740Y0181287D01*
X0248788Y0181265D01*
X0248838Y0181246D01*
X0248889Y0181231D01*
X0248941Y0181219D01*
X0248994Y0181212D01*
X0249047Y0181208D01*
X0258831Y0180704D02*
X0258831Y0181244D01*
X0258832Y0181244D02*
X0258885Y0181248D01*
X0258937Y0181256D01*
X0258989Y0181268D01*
X0259040Y0181284D01*
X0259089Y0181303D01*
X0259137Y0181326D01*
X0259183Y0181353D01*
X0259227Y0181383D01*
X0259268Y0181416D01*
X0259307Y0181452D01*
X0259343Y0181491D01*
X0259376Y0181532D01*
X0259406Y0181576D01*
X0259433Y0181622D01*
X0259456Y0181670D01*
X0259475Y0181719D01*
X0259491Y0181770D01*
X0259503Y0181822D01*
X0259511Y0181874D01*
X0259515Y0181927D01*
X0260055Y0181928D01*
X0260056Y0181927D01*
X0260052Y0181859D01*
X0260045Y0181791D01*
X0260034Y0181724D01*
X0260020Y0181657D01*
X0260002Y0181591D01*
X0259980Y0181527D01*
X0259955Y0181463D01*
X0259926Y0181401D01*
X0259894Y0181341D01*
X0259859Y0181283D01*
X0259821Y0181226D01*
X0259780Y0181172D01*
X0259736Y0181120D01*
X0259689Y0181070D01*
X0259639Y0181023D01*
X0259587Y0180979D01*
X0259533Y0180938D01*
X0259476Y0180900D01*
X0259418Y0180865D01*
X0259358Y0180833D01*
X0259296Y0180804D01*
X0259232Y0180779D01*
X0259168Y0180757D01*
X0259102Y0180739D01*
X0259035Y0180725D01*
X0258968Y0180714D01*
X0258900Y0180707D01*
X0258832Y0180703D01*
X0258832Y0180759D01*
X0258899Y0180763D01*
X0258966Y0180770D01*
X0259033Y0180781D01*
X0259099Y0180796D01*
X0259164Y0180815D01*
X0259227Y0180837D01*
X0259290Y0180863D01*
X0259351Y0180892D01*
X0259410Y0180925D01*
X0259467Y0180960D01*
X0259522Y0180999D01*
X0259575Y0181041D01*
X0259625Y0181086D01*
X0259673Y0181134D01*
X0259718Y0181184D01*
X0259760Y0181237D01*
X0259799Y0181292D01*
X0259834Y0181349D01*
X0259867Y0181408D01*
X0259896Y0181469D01*
X0259922Y0181532D01*
X0259944Y0181595D01*
X0259963Y0181660D01*
X0259978Y0181726D01*
X0259989Y0181793D01*
X0259996Y0181860D01*
X0260000Y0181927D01*
X0259944Y0181927D01*
X0259940Y0181860D01*
X0259932Y0181794D01*
X0259921Y0181728D01*
X0259906Y0181664D01*
X0259887Y0181600D01*
X0259864Y0181537D01*
X0259838Y0181476D01*
X0259808Y0181416D01*
X0259774Y0181358D01*
X0259738Y0181303D01*
X0259698Y0181249D01*
X0259655Y0181198D01*
X0259610Y0181149D01*
X0259561Y0181104D01*
X0259510Y0181061D01*
X0259456Y0181021D01*
X0259401Y0180985D01*
X0259343Y0180951D01*
X0259283Y0180921D01*
X0259222Y0180895D01*
X0259159Y0180872D01*
X0259095Y0180853D01*
X0259031Y0180838D01*
X0258965Y0180827D01*
X0258899Y0180819D01*
X0258832Y0180815D01*
X0258832Y0180871D01*
X0258895Y0180875D01*
X0258958Y0180882D01*
X0259020Y0180893D01*
X0259082Y0180908D01*
X0259143Y0180926D01*
X0259202Y0180947D01*
X0259260Y0180972D01*
X0259317Y0181001D01*
X0259372Y0181032D01*
X0259425Y0181067D01*
X0259475Y0181105D01*
X0259524Y0181146D01*
X0259570Y0181189D01*
X0259613Y0181235D01*
X0259654Y0181284D01*
X0259692Y0181334D01*
X0259727Y0181387D01*
X0259758Y0181442D01*
X0259787Y0181499D01*
X0259812Y0181557D01*
X0259833Y0181616D01*
X0259851Y0181677D01*
X0259866Y0181739D01*
X0259877Y0181801D01*
X0259884Y0181864D01*
X0259888Y0181927D01*
X0259832Y0181927D01*
X0259828Y0181865D01*
X0259820Y0181803D01*
X0259809Y0181742D01*
X0259794Y0181681D01*
X0259776Y0181622D01*
X0259754Y0181563D01*
X0259728Y0181507D01*
X0259699Y0181451D01*
X0259667Y0181398D01*
X0259632Y0181347D01*
X0259593Y0181298D01*
X0259552Y0181251D01*
X0259508Y0181207D01*
X0259461Y0181166D01*
X0259412Y0181127D01*
X0259361Y0181092D01*
X0259308Y0181060D01*
X0259252Y0181031D01*
X0259196Y0181005D01*
X0259137Y0180983D01*
X0259078Y0180965D01*
X0259017Y0180950D01*
X0258956Y0180939D01*
X0258894Y0180931D01*
X0258832Y0180927D01*
X0258832Y0180983D01*
X0258893Y0180987D01*
X0258954Y0180995D01*
X0259014Y0181006D01*
X0259073Y0181022D01*
X0259132Y0181040D01*
X0259189Y0181063D01*
X0259244Y0181089D01*
X0259298Y0181119D01*
X0259349Y0181151D01*
X0259399Y0181187D01*
X0259446Y0181226D01*
X0259491Y0181268D01*
X0259533Y0181313D01*
X0259572Y0181360D01*
X0259608Y0181410D01*
X0259640Y0181461D01*
X0259670Y0181515D01*
X0259696Y0181570D01*
X0259719Y0181627D01*
X0259737Y0181686D01*
X0259753Y0181745D01*
X0259764Y0181805D01*
X0259772Y0181866D01*
X0259776Y0181927D01*
X0259720Y0181927D01*
X0259716Y0181870D01*
X0259709Y0181812D01*
X0259698Y0181756D01*
X0259683Y0181700D01*
X0259665Y0181645D01*
X0259644Y0181592D01*
X0259620Y0181540D01*
X0259592Y0181489D01*
X0259561Y0181441D01*
X0259527Y0181394D01*
X0259491Y0181350D01*
X0259451Y0181308D01*
X0259409Y0181268D01*
X0259365Y0181232D01*
X0259318Y0181198D01*
X0259270Y0181167D01*
X0259219Y0181139D01*
X0259167Y0181115D01*
X0259114Y0181094D01*
X0259059Y0181076D01*
X0259003Y0181061D01*
X0258947Y0181050D01*
X0258889Y0181043D01*
X0258832Y0181039D01*
X0258832Y0181096D01*
X0258888Y0181099D01*
X0258944Y0181107D01*
X0258999Y0181118D01*
X0259053Y0181132D01*
X0259107Y0181151D01*
X0259159Y0181172D01*
X0259209Y0181197D01*
X0259258Y0181225D01*
X0259304Y0181257D01*
X0259349Y0181291D01*
X0259391Y0181328D01*
X0259431Y0181368D01*
X0259468Y0181410D01*
X0259502Y0181455D01*
X0259534Y0181501D01*
X0259562Y0181550D01*
X0259587Y0181600D01*
X0259608Y0181652D01*
X0259627Y0181706D01*
X0259641Y0181760D01*
X0259652Y0181815D01*
X0259660Y0181871D01*
X0259663Y0181927D01*
X0259607Y0181927D01*
X0259604Y0181872D01*
X0259596Y0181818D01*
X0259585Y0181764D01*
X0259570Y0181712D01*
X0259551Y0181660D01*
X0259529Y0181610D01*
X0259504Y0181561D01*
X0259476Y0181514D01*
X0259444Y0181470D01*
X0259409Y0181427D01*
X0259372Y0181387D01*
X0259332Y0181350D01*
X0259289Y0181315D01*
X0259245Y0181283D01*
X0259198Y0181255D01*
X0259149Y0181230D01*
X0259099Y0181208D01*
X0259047Y0181189D01*
X0258995Y0181174D01*
X0258941Y0181163D01*
X0258887Y0181155D01*
X0258832Y0181152D01*
X0258832Y0181208D01*
X0258885Y0181212D01*
X0258938Y0181219D01*
X0258990Y0181231D01*
X0259041Y0181246D01*
X0259091Y0181265D01*
X0259139Y0181287D01*
X0259186Y0181313D01*
X0259230Y0181341D01*
X0259273Y0181373D01*
X0259313Y0181408D01*
X0259351Y0181446D01*
X0259386Y0181486D01*
X0259418Y0181529D01*
X0259446Y0181573D01*
X0259472Y0181620D01*
X0259494Y0181668D01*
X0259513Y0181718D01*
X0259528Y0181769D01*
X0259540Y0181821D01*
X0259547Y0181874D01*
X0259551Y0181927D01*
D19*
X0259786Y0181997D02*
X0259786Y0191682D01*
X0259786Y0191643D02*
X0259784Y0191705D01*
X0259778Y0191766D01*
X0259769Y0191827D01*
X0259755Y0191888D01*
X0259738Y0191947D01*
X0259717Y0192005D01*
X0259692Y0192062D01*
X0259664Y0192117D01*
X0259633Y0192170D01*
X0259598Y0192221D01*
X0259560Y0192270D01*
X0259519Y0192317D01*
X0259476Y0192360D01*
X0259429Y0192401D01*
X0259380Y0192439D01*
X0259329Y0192474D01*
X0259276Y0192505D01*
X0259221Y0192533D01*
X0259164Y0192558D01*
X0259106Y0192579D01*
X0259047Y0192596D01*
X0258986Y0192610D01*
X0258925Y0192619D01*
X0258864Y0192625D01*
X0258802Y0192627D01*
X0249077Y0192627D01*
X0249015Y0192625D01*
X0248954Y0192619D01*
X0248893Y0192610D01*
X0248832Y0192596D01*
X0248773Y0192579D01*
X0248715Y0192558D01*
X0248658Y0192533D01*
X0248603Y0192505D01*
X0248550Y0192474D01*
X0248499Y0192439D01*
X0248450Y0192401D01*
X0248403Y0192360D01*
X0248360Y0192317D01*
X0248319Y0192270D01*
X0248281Y0192221D01*
X0248246Y0192170D01*
X0248215Y0192117D01*
X0248187Y0192062D01*
X0248162Y0192005D01*
X0248141Y0191947D01*
X0248124Y0191888D01*
X0248110Y0191827D01*
X0248101Y0191766D01*
X0248095Y0191705D01*
X0248093Y0191643D01*
X0248093Y0191682D02*
X0248093Y0181997D01*
X0249077Y0180973D02*
X0258762Y0180973D01*
X0258762Y0172627D02*
X0249077Y0172627D01*
X0248054Y0171603D02*
X0248054Y0161918D01*
X0248054Y0161957D02*
X0248056Y0161895D01*
X0248062Y0161834D01*
X0248071Y0161773D01*
X0248085Y0161712D01*
X0248102Y0161653D01*
X0248123Y0161595D01*
X0248148Y0161538D01*
X0248176Y0161483D01*
X0248207Y0161430D01*
X0248242Y0161379D01*
X0248280Y0161330D01*
X0248321Y0161283D01*
X0248364Y0161240D01*
X0248411Y0161199D01*
X0248460Y0161161D01*
X0248511Y0161126D01*
X0248564Y0161095D01*
X0248619Y0161067D01*
X0248676Y0161042D01*
X0248734Y0161021D01*
X0248793Y0161004D01*
X0248854Y0160990D01*
X0248915Y0160981D01*
X0248976Y0160975D01*
X0249038Y0160973D01*
X0258762Y0160973D01*
X0258824Y0160975D01*
X0258885Y0160981D01*
X0258946Y0160990D01*
X0259007Y0161004D01*
X0259066Y0161021D01*
X0259124Y0161042D01*
X0259181Y0161067D01*
X0259236Y0161095D01*
X0259289Y0161126D01*
X0259340Y0161161D01*
X0259389Y0161199D01*
X0259436Y0161240D01*
X0259479Y0161283D01*
X0259520Y0161330D01*
X0259558Y0161379D01*
X0259593Y0161430D01*
X0259624Y0161483D01*
X0259652Y0161538D01*
X0259677Y0161595D01*
X0259698Y0161653D01*
X0259715Y0161712D01*
X0259729Y0161773D01*
X0259738Y0161834D01*
X0259744Y0161895D01*
X0259746Y0161957D01*
X0259746Y0161918D02*
X0259746Y0171603D01*
X0145020Y0030700D02*
X0145020Y0012900D01*
X0132820Y0012900D02*
X0132820Y0020600D01*
X0132820Y0023000D01*
X0132820Y0030700D01*
D20*
X0250081Y0169359D02*
X0250083Y0169430D01*
X0250089Y0169501D01*
X0250099Y0169572D01*
X0250113Y0169641D01*
X0250130Y0169710D01*
X0250152Y0169778D01*
X0250177Y0169845D01*
X0250206Y0169910D01*
X0250238Y0169973D01*
X0250274Y0170035D01*
X0250313Y0170094D01*
X0250356Y0170151D01*
X0250401Y0170206D01*
X0250450Y0170258D01*
X0250501Y0170307D01*
X0250555Y0170353D01*
X0250612Y0170397D01*
X0250670Y0170437D01*
X0250731Y0170473D01*
X0250794Y0170507D01*
X0250859Y0170536D01*
X0250925Y0170562D01*
X0250993Y0170585D01*
X0251061Y0170603D01*
X0251131Y0170618D01*
X0251201Y0170629D01*
X0251272Y0170636D01*
X0251343Y0170639D01*
X0251414Y0170638D01*
X0251485Y0170633D01*
X0251556Y0170624D01*
X0251626Y0170611D01*
X0251695Y0170595D01*
X0251763Y0170574D01*
X0251830Y0170550D01*
X0251896Y0170522D01*
X0251959Y0170490D01*
X0252021Y0170455D01*
X0252081Y0170417D01*
X0252139Y0170375D01*
X0252194Y0170331D01*
X0252247Y0170283D01*
X0252297Y0170232D01*
X0252344Y0170179D01*
X0252388Y0170123D01*
X0252429Y0170065D01*
X0252467Y0170004D01*
X0252501Y0169942D01*
X0252531Y0169877D01*
X0252558Y0169812D01*
X0252582Y0169744D01*
X0252601Y0169676D01*
X0252617Y0169607D01*
X0252629Y0169536D01*
X0252637Y0169466D01*
X0252641Y0169395D01*
X0252641Y0169323D01*
X0252637Y0169252D01*
X0252629Y0169182D01*
X0252617Y0169111D01*
X0252601Y0169042D01*
X0252582Y0168974D01*
X0252558Y0168906D01*
X0252531Y0168841D01*
X0252501Y0168776D01*
X0252467Y0168714D01*
X0252429Y0168653D01*
X0252388Y0168595D01*
X0252344Y0168539D01*
X0252297Y0168486D01*
X0252247Y0168435D01*
X0252194Y0168387D01*
X0252139Y0168343D01*
X0252081Y0168301D01*
X0252021Y0168263D01*
X0251959Y0168228D01*
X0251896Y0168196D01*
X0251830Y0168168D01*
X0251763Y0168144D01*
X0251695Y0168123D01*
X0251626Y0168107D01*
X0251556Y0168094D01*
X0251485Y0168085D01*
X0251414Y0168080D01*
X0251343Y0168079D01*
X0251272Y0168082D01*
X0251201Y0168089D01*
X0251131Y0168100D01*
X0251061Y0168115D01*
X0250993Y0168133D01*
X0250925Y0168156D01*
X0250859Y0168182D01*
X0250794Y0168211D01*
X0250731Y0168245D01*
X0250670Y0168281D01*
X0250612Y0168321D01*
X0250555Y0168365D01*
X0250501Y0168411D01*
X0250450Y0168460D01*
X0250401Y0168512D01*
X0250356Y0168567D01*
X0250313Y0168624D01*
X0250274Y0168683D01*
X0250238Y0168745D01*
X0250206Y0168808D01*
X0250177Y0168873D01*
X0250152Y0168940D01*
X0250130Y0169008D01*
X0250113Y0169077D01*
X0250099Y0169146D01*
X0250089Y0169217D01*
X0250083Y0169288D01*
X0250081Y0169359D01*
X0255199Y0184241D02*
X0255201Y0184312D01*
X0255207Y0184383D01*
X0255217Y0184454D01*
X0255231Y0184523D01*
X0255248Y0184592D01*
X0255270Y0184660D01*
X0255295Y0184727D01*
X0255324Y0184792D01*
X0255356Y0184855D01*
X0255392Y0184917D01*
X0255431Y0184976D01*
X0255474Y0185033D01*
X0255519Y0185088D01*
X0255568Y0185140D01*
X0255619Y0185189D01*
X0255673Y0185235D01*
X0255730Y0185279D01*
X0255788Y0185319D01*
X0255849Y0185355D01*
X0255912Y0185389D01*
X0255977Y0185418D01*
X0256043Y0185444D01*
X0256111Y0185467D01*
X0256179Y0185485D01*
X0256249Y0185500D01*
X0256319Y0185511D01*
X0256390Y0185518D01*
X0256461Y0185521D01*
X0256532Y0185520D01*
X0256603Y0185515D01*
X0256674Y0185506D01*
X0256744Y0185493D01*
X0256813Y0185477D01*
X0256881Y0185456D01*
X0256948Y0185432D01*
X0257014Y0185404D01*
X0257077Y0185372D01*
X0257139Y0185337D01*
X0257199Y0185299D01*
X0257257Y0185257D01*
X0257312Y0185213D01*
X0257365Y0185165D01*
X0257415Y0185114D01*
X0257462Y0185061D01*
X0257506Y0185005D01*
X0257547Y0184947D01*
X0257585Y0184886D01*
X0257619Y0184824D01*
X0257649Y0184759D01*
X0257676Y0184694D01*
X0257700Y0184626D01*
X0257719Y0184558D01*
X0257735Y0184489D01*
X0257747Y0184418D01*
X0257755Y0184348D01*
X0257759Y0184277D01*
X0257759Y0184205D01*
X0257755Y0184134D01*
X0257747Y0184064D01*
X0257735Y0183993D01*
X0257719Y0183924D01*
X0257700Y0183856D01*
X0257676Y0183788D01*
X0257649Y0183723D01*
X0257619Y0183658D01*
X0257585Y0183596D01*
X0257547Y0183535D01*
X0257506Y0183477D01*
X0257462Y0183421D01*
X0257415Y0183368D01*
X0257365Y0183317D01*
X0257312Y0183269D01*
X0257257Y0183225D01*
X0257199Y0183183D01*
X0257139Y0183145D01*
X0257077Y0183110D01*
X0257014Y0183078D01*
X0256948Y0183050D01*
X0256881Y0183026D01*
X0256813Y0183005D01*
X0256744Y0182989D01*
X0256674Y0182976D01*
X0256603Y0182967D01*
X0256532Y0182962D01*
X0256461Y0182961D01*
X0256390Y0182964D01*
X0256319Y0182971D01*
X0256249Y0182982D01*
X0256179Y0182997D01*
X0256111Y0183015D01*
X0256043Y0183038D01*
X0255977Y0183064D01*
X0255912Y0183093D01*
X0255849Y0183127D01*
X0255788Y0183163D01*
X0255730Y0183203D01*
X0255673Y0183247D01*
X0255619Y0183293D01*
X0255568Y0183342D01*
X0255519Y0183394D01*
X0255474Y0183449D01*
X0255431Y0183506D01*
X0255392Y0183565D01*
X0255356Y0183627D01*
X0255324Y0183690D01*
X0255295Y0183755D01*
X0255270Y0183822D01*
X0255248Y0183890D01*
X0255231Y0183959D01*
X0255217Y0184028D01*
X0255207Y0184099D01*
X0255201Y0184170D01*
X0255199Y0184241D01*
D21*
X0113920Y0038300D02*
X0033920Y0038300D01*
X0033920Y0015300D01*
X0113920Y0015300D01*
X0113920Y0022800D01*
X0113794Y0022802D01*
X0113669Y0022808D01*
X0113544Y0022818D01*
X0113419Y0022832D01*
X0113294Y0022849D01*
X0113170Y0022871D01*
X0113047Y0022896D01*
X0112925Y0022926D01*
X0112804Y0022959D01*
X0112684Y0022996D01*
X0112565Y0023036D01*
X0112448Y0023081D01*
X0112331Y0023129D01*
X0112217Y0023181D01*
X0112104Y0023236D01*
X0111993Y0023295D01*
X0111884Y0023357D01*
X0111777Y0023423D01*
X0111672Y0023492D01*
X0111569Y0023564D01*
X0111468Y0023639D01*
X0111370Y0023718D01*
X0111275Y0023800D01*
X0111182Y0023884D01*
X0111092Y0023972D01*
X0111004Y0024062D01*
X0110920Y0024155D01*
X0110838Y0024250D01*
X0110759Y0024348D01*
X0110684Y0024449D01*
X0110612Y0024552D01*
X0110543Y0024657D01*
X0110477Y0024764D01*
X0110415Y0024873D01*
X0110356Y0024984D01*
X0110301Y0025097D01*
X0110249Y0025211D01*
X0110201Y0025328D01*
X0110156Y0025445D01*
X0110116Y0025564D01*
X0110079Y0025684D01*
X0110046Y0025805D01*
X0110016Y0025927D01*
X0109991Y0026050D01*
X0109969Y0026174D01*
X0109952Y0026299D01*
X0109938Y0026424D01*
X0109928Y0026549D01*
X0109922Y0026674D01*
X0109920Y0026800D01*
X0109922Y0026926D01*
X0109928Y0027051D01*
X0109938Y0027176D01*
X0109952Y0027301D01*
X0109969Y0027426D01*
X0109991Y0027550D01*
X0110016Y0027673D01*
X0110046Y0027795D01*
X0110079Y0027916D01*
X0110116Y0028036D01*
X0110156Y0028155D01*
X0110201Y0028272D01*
X0110249Y0028389D01*
X0110301Y0028503D01*
X0110356Y0028616D01*
X0110415Y0028727D01*
X0110477Y0028836D01*
X0110543Y0028943D01*
X0110612Y0029048D01*
X0110684Y0029151D01*
X0110759Y0029252D01*
X0110838Y0029350D01*
X0110920Y0029445D01*
X0111004Y0029538D01*
X0111092Y0029628D01*
X0111182Y0029716D01*
X0111275Y0029800D01*
X0111370Y0029882D01*
X0111468Y0029961D01*
X0111569Y0030036D01*
X0111672Y0030108D01*
X0111777Y0030177D01*
X0111884Y0030243D01*
X0111993Y0030305D01*
X0112104Y0030364D01*
X0112217Y0030419D01*
X0112331Y0030471D01*
X0112448Y0030519D01*
X0112565Y0030564D01*
X0112684Y0030604D01*
X0112804Y0030641D01*
X0112925Y0030674D01*
X0113047Y0030704D01*
X0113170Y0030729D01*
X0113294Y0030751D01*
X0113419Y0030768D01*
X0113544Y0030782D01*
X0113669Y0030792D01*
X0113794Y0030798D01*
X0113920Y0030800D01*
X0113920Y0038300D01*
D22*
X0130150Y0010386D02*
X0133286Y0007250D01*
X0133286Y0008818D02*
X0130150Y0008818D01*
X0130150Y0007250D02*
X0133286Y0010386D01*
X0131718Y0010386D02*
X0131718Y0007250D01*
D23*
X0173920Y0111800D03*
M02*
